G04 #@! TF.GenerationSoftware,KiCad,Pcbnew,9.0.5*
G04 #@! TF.CreationDate,2025-10-27T12:23:45+01:00*
G04 #@! TF.ProjectId,Laser_Electronics,4c617365-725f-4456-9c65-6374726f6e69,rev?*
G04 #@! TF.SameCoordinates,Original*
G04 #@! TF.FileFunction,Soldermask,Bot*
G04 #@! TF.FilePolarity,Negative*
%FSLAX46Y46*%
G04 Gerber Fmt 4.6, Leading zero omitted, Abs format (unit mm)*
G04 Created by KiCad (PCBNEW 9.0.5) date 2025-10-27 12:23:45*
%MOMM*%
%LPD*%
G01*
G04 APERTURE LIST*
G04 Aperture macros list*
%AMRoundRect*
0 Rectangle with rounded corners*
0 $1 Rounding radius*
0 $2 $3 $4 $5 $6 $7 $8 $9 X,Y pos of 4 corners*
0 Add a 4 corners polygon primitive as box body*
4,1,4,$2,$3,$4,$5,$6,$7,$8,$9,$2,$3,0*
0 Add four circle primitives for the rounded corners*
1,1,$1+$1,$2,$3*
1,1,$1+$1,$4,$5*
1,1,$1+$1,$6,$7*
1,1,$1+$1,$8,$9*
0 Add four rect primitives between the rounded corners*
20,1,$1+$1,$2,$3,$4,$5,0*
20,1,$1+$1,$4,$5,$6,$7,0*
20,1,$1+$1,$6,$7,$8,$9,0*
20,1,$1+$1,$8,$9,$2,$3,0*%
G04 Aperture macros list end*
%ADD10RoundRect,0.250000X-0.350000X-0.625000X0.350000X-0.625000X0.350000X0.625000X-0.350000X0.625000X0*%
%ADD11O,1.200000X1.750000*%
%ADD12R,1.700000X1.700000*%
%ADD13C,1.700000*%
%ADD14C,0.900000*%
%ADD15RoundRect,0.250000X-0.600000X-0.725000X0.600000X-0.725000X0.600000X0.725000X-0.600000X0.725000X0*%
%ADD16O,1.700000X1.950000*%
%ADD17C,5.600000*%
%ADD18R,1.600000X1.600000*%
%ADD19O,1.600000X1.600000*%
%ADD20RoundRect,0.250001X0.799999X0.799999X-0.799999X0.799999X-0.799999X-0.799999X0.799999X-0.799999X0*%
%ADD21C,2.100000*%
G04 APERTURE END LIST*
D10*
X118015000Y-92710000D03*
D11*
X120015000Y-92710000D03*
D12*
X113665000Y-57785000D03*
D13*
X116205000Y-57785000D03*
X118745000Y-57785000D03*
D10*
X126270000Y-92710000D03*
D11*
X128270000Y-92710000D03*
D12*
X113665000Y-62230000D03*
D13*
X116205000Y-62230000D03*
X118745000Y-62230000D03*
X121285000Y-62230000D03*
D14*
X136700968Y-61037855D03*
X144700968Y-61037855D03*
D12*
X113665000Y-66675000D03*
D13*
X116205000Y-66675000D03*
X118745000Y-66675000D03*
X121285000Y-66675000D03*
X123825000Y-66675000D03*
X126365000Y-66675000D03*
D15*
X138470000Y-109220000D03*
D16*
X140970000Y-109220000D03*
X143470000Y-109220000D03*
D17*
X139700000Y-93980000D03*
D18*
X113665000Y-136525000D03*
D19*
X116205000Y-136525000D03*
X118745000Y-136525000D03*
X121285000Y-136525000D03*
X123825000Y-136525000D03*
X126365000Y-136525000D03*
X128905000Y-136525000D03*
X131445000Y-136525000D03*
X131445000Y-123825000D03*
X128905000Y-123825000D03*
X126365000Y-123825000D03*
X123825000Y-123825000D03*
X121285000Y-123825000D03*
X118745000Y-123825000D03*
X116205000Y-123825000D03*
X113665000Y-123825000D03*
X131445000Y-126365000D03*
X131445000Y-128905000D03*
D12*
X146304000Y-93472000D03*
D13*
X146304000Y-90932000D03*
X146304000Y-88392000D03*
X146304000Y-85852000D03*
X146304000Y-83312000D03*
X146304000Y-80772000D03*
X146304000Y-78232000D03*
X146304000Y-75692000D03*
D18*
X113665000Y-112014000D03*
D19*
X116205000Y-112014000D03*
X118745000Y-112014000D03*
X121285000Y-112014000D03*
X123825000Y-112014000D03*
X126365000Y-112014000D03*
X128905000Y-112014000D03*
X131445000Y-112014000D03*
X131445000Y-99314000D03*
X128905000Y-99314000D03*
X126365000Y-99314000D03*
X123825000Y-99314000D03*
X121285000Y-99314000D03*
X118745000Y-99314000D03*
X116205000Y-99314000D03*
X113665000Y-99314000D03*
X131445000Y-101854000D03*
X131445000Y-104394000D03*
D15*
X118805000Y-117175000D03*
D16*
X121305000Y-117175000D03*
X123805000Y-117175000D03*
X126305000Y-117175000D03*
D15*
X118805000Y-141940000D03*
D16*
X121305000Y-141940000D03*
X123805000Y-141940000D03*
X126305000Y-141940000D03*
D20*
X142200000Y-140467500D03*
D21*
X137200000Y-140467500D03*
M02*
