%TF.GenerationSoftware,KiCad,Pcbnew,9.0.5*%
%TF.CreationDate,2025-10-27T12:24:36+01:00*%
%TF.ProjectId,Laser_Electronics,4c617365-725f-4456-9c65-6374726f6e69,rev?*%
%TF.SameCoordinates,Original*%
%TF.FileFunction,Drillmap*%
%TF.FilePolarity,Positive*%
%FSLAX45Y45*%
G04 Gerber Fmt 4.5, Leading zero omitted, Abs format (unit mm)*
G04 Created by KiCad (PCBNEW 9.0.5) date 2025-10-27 12:24:36*
%MOMM*%
%LPD*%
G01*
G04 APERTURE LIST*
%ADD10C,0.050000*%
%ADD11C,0.200000*%
%ADD12C,0.100000*%
G04 APERTURE END LIST*
D10*
X13639800Y-5842000D02*
X13487400Y-5588000D01*
X11176000Y-14605000D02*
X11176000Y-5588000D01*
X14693900Y-5588000D02*
X14566900Y-5842000D01*
X14859000Y-5588000D02*
X14693900Y-5588000D01*
X11176000Y-5588000D02*
X13487400Y-5588000D01*
X11176000Y-14605000D02*
X14859000Y-14605000D01*
X14859000Y-14605000D02*
X14859000Y-5588000D01*
X14566900Y-5842000D02*
X13639800Y-5842000D01*
D11*
D12*
X13625097Y-6058785D02*
X13715097Y-6148785D01*
X13715097Y-6058785D02*
X13625097Y-6148785D01*
X14425097Y-6058785D02*
X14515097Y-6148785D01*
X14515097Y-6058785D02*
X14425097Y-6148785D01*
D11*
X11434277Y-14918984D02*
X11434277Y-14718984D01*
X11434277Y-14718984D02*
X11481896Y-14718984D01*
X11481896Y-14718984D02*
X11510467Y-14728508D01*
X11510467Y-14728508D02*
X11529515Y-14747555D01*
X11529515Y-14747555D02*
X11539039Y-14766603D01*
X11539039Y-14766603D02*
X11548562Y-14804698D01*
X11548562Y-14804698D02*
X11548562Y-14833269D01*
X11548562Y-14833269D02*
X11539039Y-14871365D01*
X11539039Y-14871365D02*
X11529515Y-14890412D01*
X11529515Y-14890412D02*
X11510467Y-14909460D01*
X11510467Y-14909460D02*
X11481896Y-14918984D01*
X11481896Y-14918984D02*
X11434277Y-14918984D01*
X11634277Y-14918984D02*
X11634277Y-14785650D01*
X11634277Y-14823746D02*
X11643801Y-14804698D01*
X11643801Y-14804698D02*
X11653324Y-14795174D01*
X11653324Y-14795174D02*
X11672372Y-14785650D01*
X11672372Y-14785650D02*
X11691420Y-14785650D01*
X11758086Y-14918984D02*
X11758086Y-14785650D01*
X11758086Y-14718984D02*
X11748562Y-14728508D01*
X11748562Y-14728508D02*
X11758086Y-14738031D01*
X11758086Y-14738031D02*
X11767610Y-14728508D01*
X11767610Y-14728508D02*
X11758086Y-14718984D01*
X11758086Y-14718984D02*
X11758086Y-14738031D01*
X11881896Y-14918984D02*
X11862848Y-14909460D01*
X11862848Y-14909460D02*
X11853324Y-14890412D01*
X11853324Y-14890412D02*
X11853324Y-14718984D01*
X11986658Y-14918984D02*
X11967610Y-14909460D01*
X11967610Y-14909460D02*
X11958086Y-14890412D01*
X11958086Y-14890412D02*
X11958086Y-14718984D01*
X12215229Y-14918984D02*
X12215229Y-14718984D01*
X12215229Y-14718984D02*
X12281896Y-14861841D01*
X12281896Y-14861841D02*
X12348562Y-14718984D01*
X12348562Y-14718984D02*
X12348562Y-14918984D01*
X12529515Y-14918984D02*
X12529515Y-14814222D01*
X12529515Y-14814222D02*
X12519991Y-14795174D01*
X12519991Y-14795174D02*
X12500943Y-14785650D01*
X12500943Y-14785650D02*
X12462848Y-14785650D01*
X12462848Y-14785650D02*
X12443801Y-14795174D01*
X12529515Y-14909460D02*
X12510467Y-14918984D01*
X12510467Y-14918984D02*
X12462848Y-14918984D01*
X12462848Y-14918984D02*
X12443801Y-14909460D01*
X12443801Y-14909460D02*
X12434277Y-14890412D01*
X12434277Y-14890412D02*
X12434277Y-14871365D01*
X12434277Y-14871365D02*
X12443801Y-14852317D01*
X12443801Y-14852317D02*
X12462848Y-14842793D01*
X12462848Y-14842793D02*
X12510467Y-14842793D01*
X12510467Y-14842793D02*
X12529515Y-14833269D01*
X12624753Y-14785650D02*
X12624753Y-14985650D01*
X12624753Y-14795174D02*
X12643801Y-14785650D01*
X12643801Y-14785650D02*
X12681896Y-14785650D01*
X12681896Y-14785650D02*
X12700943Y-14795174D01*
X12700943Y-14795174D02*
X12710467Y-14804698D01*
X12710467Y-14804698D02*
X12719991Y-14823746D01*
X12719991Y-14823746D02*
X12719991Y-14880888D01*
X12719991Y-14880888D02*
X12710467Y-14899936D01*
X12710467Y-14899936D02*
X12700943Y-14909460D01*
X12700943Y-14909460D02*
X12681896Y-14918984D01*
X12681896Y-14918984D02*
X12643801Y-14918984D01*
X12643801Y-14918984D02*
X12624753Y-14909460D01*
X12805705Y-14899936D02*
X12815229Y-14909460D01*
X12815229Y-14909460D02*
X12805705Y-14918984D01*
X12805705Y-14918984D02*
X12796182Y-14909460D01*
X12796182Y-14909460D02*
X12805705Y-14899936D01*
X12805705Y-14899936D02*
X12805705Y-14918984D01*
X12805705Y-14795174D02*
X12815229Y-14804698D01*
X12815229Y-14804698D02*
X12805705Y-14814222D01*
X12805705Y-14814222D02*
X12796182Y-14804698D01*
X12796182Y-14804698D02*
X12805705Y-14795174D01*
X12805705Y-14795174D02*
X12805705Y-14814222D01*
D12*
X11083500Y-15202500D02*
X11173500Y-15292500D01*
X11173500Y-15202500D02*
X11083500Y-15292500D01*
D11*
X11472372Y-15138984D02*
X11491420Y-15138984D01*
X11491420Y-15138984D02*
X11510467Y-15148508D01*
X11510467Y-15148508D02*
X11519991Y-15158031D01*
X11519991Y-15158031D02*
X11529515Y-15177079D01*
X11529515Y-15177079D02*
X11539039Y-15215174D01*
X11539039Y-15215174D02*
X11539039Y-15262793D01*
X11539039Y-15262793D02*
X11529515Y-15300888D01*
X11529515Y-15300888D02*
X11519991Y-15319936D01*
X11519991Y-15319936D02*
X11510467Y-15329460D01*
X11510467Y-15329460D02*
X11491420Y-15338984D01*
X11491420Y-15338984D02*
X11472372Y-15338984D01*
X11472372Y-15338984D02*
X11453324Y-15329460D01*
X11453324Y-15329460D02*
X11443801Y-15319936D01*
X11443801Y-15319936D02*
X11434277Y-15300888D01*
X11434277Y-15300888D02*
X11424753Y-15262793D01*
X11424753Y-15262793D02*
X11424753Y-15215174D01*
X11424753Y-15215174D02*
X11434277Y-15177079D01*
X11434277Y-15177079D02*
X11443801Y-15158031D01*
X11443801Y-15158031D02*
X11453324Y-15148508D01*
X11453324Y-15148508D02*
X11472372Y-15138984D01*
X11624753Y-15319936D02*
X11634277Y-15329460D01*
X11634277Y-15329460D02*
X11624753Y-15338984D01*
X11624753Y-15338984D02*
X11615229Y-15329460D01*
X11615229Y-15329460D02*
X11624753Y-15319936D01*
X11624753Y-15319936D02*
X11624753Y-15338984D01*
X11729515Y-15338984D02*
X11767610Y-15338984D01*
X11767610Y-15338984D02*
X11786658Y-15329460D01*
X11786658Y-15329460D02*
X11796182Y-15319936D01*
X11796182Y-15319936D02*
X11815229Y-15291365D01*
X11815229Y-15291365D02*
X11824753Y-15253269D01*
X11824753Y-15253269D02*
X11824753Y-15177079D01*
X11824753Y-15177079D02*
X11815229Y-15158031D01*
X11815229Y-15158031D02*
X11805705Y-15148508D01*
X11805705Y-15148508D02*
X11786658Y-15138984D01*
X11786658Y-15138984D02*
X11748562Y-15138984D01*
X11748562Y-15138984D02*
X11729515Y-15148508D01*
X11729515Y-15148508D02*
X11719991Y-15158031D01*
X11719991Y-15158031D02*
X11710467Y-15177079D01*
X11710467Y-15177079D02*
X11710467Y-15224698D01*
X11710467Y-15224698D02*
X11719991Y-15243746D01*
X11719991Y-15243746D02*
X11729515Y-15253269D01*
X11729515Y-15253269D02*
X11748562Y-15262793D01*
X11748562Y-15262793D02*
X11786658Y-15262793D01*
X11786658Y-15262793D02*
X11805705Y-15253269D01*
X11805705Y-15253269D02*
X11815229Y-15243746D01*
X11815229Y-15243746D02*
X11824753Y-15224698D01*
X11948562Y-15138984D02*
X11967610Y-15138984D01*
X11967610Y-15138984D02*
X11986658Y-15148508D01*
X11986658Y-15148508D02*
X11996182Y-15158031D01*
X11996182Y-15158031D02*
X12005705Y-15177079D01*
X12005705Y-15177079D02*
X12015229Y-15215174D01*
X12015229Y-15215174D02*
X12015229Y-15262793D01*
X12015229Y-15262793D02*
X12005705Y-15300888D01*
X12005705Y-15300888D02*
X11996182Y-15319936D01*
X11996182Y-15319936D02*
X11986658Y-15329460D01*
X11986658Y-15329460D02*
X11967610Y-15338984D01*
X11967610Y-15338984D02*
X11948562Y-15338984D01*
X11948562Y-15338984D02*
X11929515Y-15329460D01*
X11929515Y-15329460D02*
X11919991Y-15319936D01*
X11919991Y-15319936D02*
X11910467Y-15300888D01*
X11910467Y-15300888D02*
X11900943Y-15262793D01*
X11900943Y-15262793D02*
X11900943Y-15215174D01*
X11900943Y-15215174D02*
X11910467Y-15177079D01*
X11910467Y-15177079D02*
X11919991Y-15158031D01*
X11919991Y-15158031D02*
X11929515Y-15148508D01*
X11929515Y-15148508D02*
X11948562Y-15138984D01*
X12139039Y-15138984D02*
X12158086Y-15138984D01*
X12158086Y-15138984D02*
X12177134Y-15148508D01*
X12177134Y-15148508D02*
X12186658Y-15158031D01*
X12186658Y-15158031D02*
X12196182Y-15177079D01*
X12196182Y-15177079D02*
X12205705Y-15215174D01*
X12205705Y-15215174D02*
X12205705Y-15262793D01*
X12205705Y-15262793D02*
X12196182Y-15300888D01*
X12196182Y-15300888D02*
X12186658Y-15319936D01*
X12186658Y-15319936D02*
X12177134Y-15329460D01*
X12177134Y-15329460D02*
X12158086Y-15338984D01*
X12158086Y-15338984D02*
X12139039Y-15338984D01*
X12139039Y-15338984D02*
X12119991Y-15329460D01*
X12119991Y-15329460D02*
X12110467Y-15319936D01*
X12110467Y-15319936D02*
X12100943Y-15300888D01*
X12100943Y-15300888D02*
X12091420Y-15262793D01*
X12091420Y-15262793D02*
X12091420Y-15215174D01*
X12091420Y-15215174D02*
X12100943Y-15177079D01*
X12100943Y-15177079D02*
X12110467Y-15158031D01*
X12110467Y-15158031D02*
X12119991Y-15148508D01*
X12119991Y-15148508D02*
X12139039Y-15138984D01*
X12291420Y-15338984D02*
X12291420Y-15205650D01*
X12291420Y-15224698D02*
X12300943Y-15215174D01*
X12300943Y-15215174D02*
X12319991Y-15205650D01*
X12319991Y-15205650D02*
X12348563Y-15205650D01*
X12348563Y-15205650D02*
X12367610Y-15215174D01*
X12367610Y-15215174D02*
X12377134Y-15234222D01*
X12377134Y-15234222D02*
X12377134Y-15338984D01*
X12377134Y-15234222D02*
X12386658Y-15215174D01*
X12386658Y-15215174D02*
X12405705Y-15205650D01*
X12405705Y-15205650D02*
X12434277Y-15205650D01*
X12434277Y-15205650D02*
X12453324Y-15215174D01*
X12453324Y-15215174D02*
X12462848Y-15234222D01*
X12462848Y-15234222D02*
X12462848Y-15338984D01*
X12558086Y-15338984D02*
X12558086Y-15205650D01*
X12558086Y-15224698D02*
X12567610Y-15215174D01*
X12567610Y-15215174D02*
X12586658Y-15205650D01*
X12586658Y-15205650D02*
X12615229Y-15205650D01*
X12615229Y-15205650D02*
X12634277Y-15215174D01*
X12634277Y-15215174D02*
X12643801Y-15234222D01*
X12643801Y-15234222D02*
X12643801Y-15338984D01*
X12643801Y-15234222D02*
X12653324Y-15215174D01*
X12653324Y-15215174D02*
X12672372Y-15205650D01*
X12672372Y-15205650D02*
X12700943Y-15205650D01*
X12700943Y-15205650D02*
X12719991Y-15215174D01*
X12719991Y-15215174D02*
X12729515Y-15234222D01*
X12729515Y-15234222D02*
X12729515Y-15338984D01*
X13119991Y-15129460D02*
X12948563Y-15386603D01*
X13377134Y-15138984D02*
X13396182Y-15138984D01*
X13396182Y-15138984D02*
X13415229Y-15148508D01*
X13415229Y-15148508D02*
X13424753Y-15158031D01*
X13424753Y-15158031D02*
X13434277Y-15177079D01*
X13434277Y-15177079D02*
X13443801Y-15215174D01*
X13443801Y-15215174D02*
X13443801Y-15262793D01*
X13443801Y-15262793D02*
X13434277Y-15300888D01*
X13434277Y-15300888D02*
X13424753Y-15319936D01*
X13424753Y-15319936D02*
X13415229Y-15329460D01*
X13415229Y-15329460D02*
X13396182Y-15338984D01*
X13396182Y-15338984D02*
X13377134Y-15338984D01*
X13377134Y-15338984D02*
X13358086Y-15329460D01*
X13358086Y-15329460D02*
X13348563Y-15319936D01*
X13348563Y-15319936D02*
X13339039Y-15300888D01*
X13339039Y-15300888D02*
X13329515Y-15262793D01*
X13329515Y-15262793D02*
X13329515Y-15215174D01*
X13329515Y-15215174D02*
X13339039Y-15177079D01*
X13339039Y-15177079D02*
X13348563Y-15158031D01*
X13348563Y-15158031D02*
X13358086Y-15148508D01*
X13358086Y-15148508D02*
X13377134Y-15138984D01*
X13529515Y-15319936D02*
X13539039Y-15329460D01*
X13539039Y-15329460D02*
X13529515Y-15338984D01*
X13529515Y-15338984D02*
X13519991Y-15329460D01*
X13519991Y-15329460D02*
X13529515Y-15319936D01*
X13529515Y-15319936D02*
X13529515Y-15338984D01*
X13662848Y-15138984D02*
X13681896Y-15138984D01*
X13681896Y-15138984D02*
X13700944Y-15148508D01*
X13700944Y-15148508D02*
X13710467Y-15158031D01*
X13710467Y-15158031D02*
X13719991Y-15177079D01*
X13719991Y-15177079D02*
X13729515Y-15215174D01*
X13729515Y-15215174D02*
X13729515Y-15262793D01*
X13729515Y-15262793D02*
X13719991Y-15300888D01*
X13719991Y-15300888D02*
X13710467Y-15319936D01*
X13710467Y-15319936D02*
X13700944Y-15329460D01*
X13700944Y-15329460D02*
X13681896Y-15338984D01*
X13681896Y-15338984D02*
X13662848Y-15338984D01*
X13662848Y-15338984D02*
X13643801Y-15329460D01*
X13643801Y-15329460D02*
X13634277Y-15319936D01*
X13634277Y-15319936D02*
X13624753Y-15300888D01*
X13624753Y-15300888D02*
X13615229Y-15262793D01*
X13615229Y-15262793D02*
X13615229Y-15215174D01*
X13615229Y-15215174D02*
X13624753Y-15177079D01*
X13624753Y-15177079D02*
X13634277Y-15158031D01*
X13634277Y-15158031D02*
X13643801Y-15148508D01*
X13643801Y-15148508D02*
X13662848Y-15138984D01*
X13796182Y-15138984D02*
X13919991Y-15138984D01*
X13919991Y-15138984D02*
X13853325Y-15215174D01*
X13853325Y-15215174D02*
X13881896Y-15215174D01*
X13881896Y-15215174D02*
X13900944Y-15224698D01*
X13900944Y-15224698D02*
X13910467Y-15234222D01*
X13910467Y-15234222D02*
X13919991Y-15253269D01*
X13919991Y-15253269D02*
X13919991Y-15300888D01*
X13919991Y-15300888D02*
X13910467Y-15319936D01*
X13910467Y-15319936D02*
X13900944Y-15329460D01*
X13900944Y-15329460D02*
X13881896Y-15338984D01*
X13881896Y-15338984D02*
X13824753Y-15338984D01*
X13824753Y-15338984D02*
X13805706Y-15329460D01*
X13805706Y-15329460D02*
X13796182Y-15319936D01*
X14100944Y-15138984D02*
X14005706Y-15138984D01*
X14005706Y-15138984D02*
X13996182Y-15234222D01*
X13996182Y-15234222D02*
X14005706Y-15224698D01*
X14005706Y-15224698D02*
X14024753Y-15215174D01*
X14024753Y-15215174D02*
X14072372Y-15215174D01*
X14072372Y-15215174D02*
X14091420Y-15224698D01*
X14091420Y-15224698D02*
X14100944Y-15234222D01*
X14100944Y-15234222D02*
X14110467Y-15253269D01*
X14110467Y-15253269D02*
X14110467Y-15300888D01*
X14110467Y-15300888D02*
X14100944Y-15319936D01*
X14100944Y-15319936D02*
X14091420Y-15329460D01*
X14091420Y-15329460D02*
X14072372Y-15338984D01*
X14072372Y-15338984D02*
X14024753Y-15338984D01*
X14024753Y-15338984D02*
X14005706Y-15329460D01*
X14005706Y-15329460D02*
X13996182Y-15319936D01*
X14281896Y-15205650D02*
X14281896Y-15338984D01*
X14234277Y-15129460D02*
X14186658Y-15272317D01*
X14186658Y-15272317D02*
X14310467Y-15272317D01*
X14377134Y-15138984D02*
X14377134Y-15177079D01*
X14453325Y-15138984D02*
X14453325Y-15177079D01*
X14748563Y-15415174D02*
X14739039Y-15405650D01*
X14739039Y-15405650D02*
X14719991Y-15377079D01*
X14719991Y-15377079D02*
X14710468Y-15358031D01*
X14710468Y-15358031D02*
X14700944Y-15329460D01*
X14700944Y-15329460D02*
X14691420Y-15281841D01*
X14691420Y-15281841D02*
X14691420Y-15243746D01*
X14691420Y-15243746D02*
X14700944Y-15196127D01*
X14700944Y-15196127D02*
X14710468Y-15167555D01*
X14710468Y-15167555D02*
X14719991Y-15148508D01*
X14719991Y-15148508D02*
X14739039Y-15119936D01*
X14739039Y-15119936D02*
X14748563Y-15110412D01*
X14815229Y-15158031D02*
X14824753Y-15148508D01*
X14824753Y-15148508D02*
X14843801Y-15138984D01*
X14843801Y-15138984D02*
X14891420Y-15138984D01*
X14891420Y-15138984D02*
X14910468Y-15148508D01*
X14910468Y-15148508D02*
X14919991Y-15158031D01*
X14919991Y-15158031D02*
X14929515Y-15177079D01*
X14929515Y-15177079D02*
X14929515Y-15196127D01*
X14929515Y-15196127D02*
X14919991Y-15224698D01*
X14919991Y-15224698D02*
X14805706Y-15338984D01*
X14805706Y-15338984D02*
X14929515Y-15338984D01*
X15167610Y-15338984D02*
X15167610Y-15138984D01*
X15253325Y-15338984D02*
X15253325Y-15234222D01*
X15253325Y-15234222D02*
X15243801Y-15215174D01*
X15243801Y-15215174D02*
X15224753Y-15205650D01*
X15224753Y-15205650D02*
X15196182Y-15205650D01*
X15196182Y-15205650D02*
X15177134Y-15215174D01*
X15177134Y-15215174D02*
X15167610Y-15224698D01*
X15377134Y-15338984D02*
X15358087Y-15329460D01*
X15358087Y-15329460D02*
X15348563Y-15319936D01*
X15348563Y-15319936D02*
X15339039Y-15300888D01*
X15339039Y-15300888D02*
X15339039Y-15243746D01*
X15339039Y-15243746D02*
X15348563Y-15224698D01*
X15348563Y-15224698D02*
X15358087Y-15215174D01*
X15358087Y-15215174D02*
X15377134Y-15205650D01*
X15377134Y-15205650D02*
X15405706Y-15205650D01*
X15405706Y-15205650D02*
X15424753Y-15215174D01*
X15424753Y-15215174D02*
X15434277Y-15224698D01*
X15434277Y-15224698D02*
X15443801Y-15243746D01*
X15443801Y-15243746D02*
X15443801Y-15300888D01*
X15443801Y-15300888D02*
X15434277Y-15319936D01*
X15434277Y-15319936D02*
X15424753Y-15329460D01*
X15424753Y-15329460D02*
X15405706Y-15338984D01*
X15405706Y-15338984D02*
X15377134Y-15338984D01*
X15558087Y-15338984D02*
X15539039Y-15329460D01*
X15539039Y-15329460D02*
X15529515Y-15310412D01*
X15529515Y-15310412D02*
X15529515Y-15138984D01*
X15710468Y-15329460D02*
X15691420Y-15338984D01*
X15691420Y-15338984D02*
X15653325Y-15338984D01*
X15653325Y-15338984D02*
X15634277Y-15329460D01*
X15634277Y-15329460D02*
X15624753Y-15310412D01*
X15624753Y-15310412D02*
X15624753Y-15234222D01*
X15624753Y-15234222D02*
X15634277Y-15215174D01*
X15634277Y-15215174D02*
X15653325Y-15205650D01*
X15653325Y-15205650D02*
X15691420Y-15205650D01*
X15691420Y-15205650D02*
X15710468Y-15215174D01*
X15710468Y-15215174D02*
X15719991Y-15234222D01*
X15719991Y-15234222D02*
X15719991Y-15253269D01*
X15719991Y-15253269D02*
X15624753Y-15272317D01*
X15796182Y-15329460D02*
X15815230Y-15338984D01*
X15815230Y-15338984D02*
X15853325Y-15338984D01*
X15853325Y-15338984D02*
X15872372Y-15329460D01*
X15872372Y-15329460D02*
X15881896Y-15310412D01*
X15881896Y-15310412D02*
X15881896Y-15300888D01*
X15881896Y-15300888D02*
X15872372Y-15281841D01*
X15872372Y-15281841D02*
X15853325Y-15272317D01*
X15853325Y-15272317D02*
X15824753Y-15272317D01*
X15824753Y-15272317D02*
X15805706Y-15262793D01*
X15805706Y-15262793D02*
X15796182Y-15243746D01*
X15796182Y-15243746D02*
X15796182Y-15234222D01*
X15796182Y-15234222D02*
X15805706Y-15215174D01*
X15805706Y-15215174D02*
X15824753Y-15205650D01*
X15824753Y-15205650D02*
X15853325Y-15205650D01*
X15853325Y-15205650D02*
X15872372Y-15215174D01*
X15948563Y-15415174D02*
X15958087Y-15405650D01*
X15958087Y-15405650D02*
X15977134Y-15377079D01*
X15977134Y-15377079D02*
X15986658Y-15358031D01*
X15986658Y-15358031D02*
X15996182Y-15329460D01*
X15996182Y-15329460D02*
X16005706Y-15281841D01*
X16005706Y-15281841D02*
X16005706Y-15243746D01*
X16005706Y-15243746D02*
X15996182Y-15196127D01*
X15996182Y-15196127D02*
X15986658Y-15167555D01*
X15986658Y-15167555D02*
X15977134Y-15148508D01*
X15977134Y-15148508D02*
X15958087Y-15119936D01*
X15958087Y-15119936D02*
X15948563Y-15110412D01*
X16310468Y-15415174D02*
X16300944Y-15405650D01*
X16300944Y-15405650D02*
X16281896Y-15377079D01*
X16281896Y-15377079D02*
X16272372Y-15358031D01*
X16272372Y-15358031D02*
X16262849Y-15329460D01*
X16262849Y-15329460D02*
X16253325Y-15281841D01*
X16253325Y-15281841D02*
X16253325Y-15243746D01*
X16253325Y-15243746D02*
X16262849Y-15196127D01*
X16262849Y-15196127D02*
X16272372Y-15167555D01*
X16272372Y-15167555D02*
X16281896Y-15148508D01*
X16281896Y-15148508D02*
X16300944Y-15119936D01*
X16300944Y-15119936D02*
X16310468Y-15110412D01*
X16386658Y-15205650D02*
X16386658Y-15338984D01*
X16386658Y-15224698D02*
X16396182Y-15215174D01*
X16396182Y-15215174D02*
X16415230Y-15205650D01*
X16415230Y-15205650D02*
X16443801Y-15205650D01*
X16443801Y-15205650D02*
X16462849Y-15215174D01*
X16462849Y-15215174D02*
X16472372Y-15234222D01*
X16472372Y-15234222D02*
X16472372Y-15338984D01*
X16596182Y-15338984D02*
X16577134Y-15329460D01*
X16577134Y-15329460D02*
X16567611Y-15319936D01*
X16567611Y-15319936D02*
X16558087Y-15300888D01*
X16558087Y-15300888D02*
X16558087Y-15243746D01*
X16558087Y-15243746D02*
X16567611Y-15224698D01*
X16567611Y-15224698D02*
X16577134Y-15215174D01*
X16577134Y-15215174D02*
X16596182Y-15205650D01*
X16596182Y-15205650D02*
X16624753Y-15205650D01*
X16624753Y-15205650D02*
X16643801Y-15215174D01*
X16643801Y-15215174D02*
X16653325Y-15224698D01*
X16653325Y-15224698D02*
X16662849Y-15243746D01*
X16662849Y-15243746D02*
X16662849Y-15300888D01*
X16662849Y-15300888D02*
X16653325Y-15319936D01*
X16653325Y-15319936D02*
X16643801Y-15329460D01*
X16643801Y-15329460D02*
X16624753Y-15338984D01*
X16624753Y-15338984D02*
X16596182Y-15338984D01*
X16719992Y-15205650D02*
X16796182Y-15205650D01*
X16748563Y-15138984D02*
X16748563Y-15310412D01*
X16748563Y-15310412D02*
X16758087Y-15329460D01*
X16758087Y-15329460D02*
X16777134Y-15338984D01*
X16777134Y-15338984D02*
X16796182Y-15338984D01*
X17015230Y-15205650D02*
X17015230Y-15405650D01*
X17015230Y-15215174D02*
X17034277Y-15205650D01*
X17034277Y-15205650D02*
X17072373Y-15205650D01*
X17072373Y-15205650D02*
X17091420Y-15215174D01*
X17091420Y-15215174D02*
X17100944Y-15224698D01*
X17100944Y-15224698D02*
X17110468Y-15243746D01*
X17110468Y-15243746D02*
X17110468Y-15300888D01*
X17110468Y-15300888D02*
X17100944Y-15319936D01*
X17100944Y-15319936D02*
X17091420Y-15329460D01*
X17091420Y-15329460D02*
X17072373Y-15338984D01*
X17072373Y-15338984D02*
X17034277Y-15338984D01*
X17034277Y-15338984D02*
X17015230Y-15329460D01*
X17224754Y-15338984D02*
X17205706Y-15329460D01*
X17205706Y-15329460D02*
X17196182Y-15310412D01*
X17196182Y-15310412D02*
X17196182Y-15138984D01*
X17386658Y-15338984D02*
X17386658Y-15234222D01*
X17386658Y-15234222D02*
X17377135Y-15215174D01*
X17377135Y-15215174D02*
X17358087Y-15205650D01*
X17358087Y-15205650D02*
X17319992Y-15205650D01*
X17319992Y-15205650D02*
X17300944Y-15215174D01*
X17386658Y-15329460D02*
X17367611Y-15338984D01*
X17367611Y-15338984D02*
X17319992Y-15338984D01*
X17319992Y-15338984D02*
X17300944Y-15329460D01*
X17300944Y-15329460D02*
X17291420Y-15310412D01*
X17291420Y-15310412D02*
X17291420Y-15291365D01*
X17291420Y-15291365D02*
X17300944Y-15272317D01*
X17300944Y-15272317D02*
X17319992Y-15262793D01*
X17319992Y-15262793D02*
X17367611Y-15262793D01*
X17367611Y-15262793D02*
X17386658Y-15253269D01*
X17453325Y-15205650D02*
X17529515Y-15205650D01*
X17481896Y-15138984D02*
X17481896Y-15310412D01*
X17481896Y-15310412D02*
X17491420Y-15329460D01*
X17491420Y-15329460D02*
X17510468Y-15338984D01*
X17510468Y-15338984D02*
X17529515Y-15338984D01*
X17672373Y-15329460D02*
X17653325Y-15338984D01*
X17653325Y-15338984D02*
X17615230Y-15338984D01*
X17615230Y-15338984D02*
X17596182Y-15329460D01*
X17596182Y-15329460D02*
X17586658Y-15310412D01*
X17586658Y-15310412D02*
X17586658Y-15234222D01*
X17586658Y-15234222D02*
X17596182Y-15215174D01*
X17596182Y-15215174D02*
X17615230Y-15205650D01*
X17615230Y-15205650D02*
X17653325Y-15205650D01*
X17653325Y-15205650D02*
X17672373Y-15215174D01*
X17672373Y-15215174D02*
X17681896Y-15234222D01*
X17681896Y-15234222D02*
X17681896Y-15253269D01*
X17681896Y-15253269D02*
X17586658Y-15272317D01*
X17853325Y-15338984D02*
X17853325Y-15138984D01*
X17853325Y-15329460D02*
X17834277Y-15338984D01*
X17834277Y-15338984D02*
X17796182Y-15338984D01*
X17796182Y-15338984D02*
X17777135Y-15329460D01*
X17777135Y-15329460D02*
X17767611Y-15319936D01*
X17767611Y-15319936D02*
X17758087Y-15300888D01*
X17758087Y-15300888D02*
X17758087Y-15243746D01*
X17758087Y-15243746D02*
X17767611Y-15224698D01*
X17767611Y-15224698D02*
X17777135Y-15215174D01*
X17777135Y-15215174D02*
X17796182Y-15205650D01*
X17796182Y-15205650D02*
X17834277Y-15205650D01*
X17834277Y-15205650D02*
X17853325Y-15215174D01*
X17929516Y-15415174D02*
X17939039Y-15405650D01*
X17939039Y-15405650D02*
X17958087Y-15377079D01*
X17958087Y-15377079D02*
X17967611Y-15358031D01*
X17967611Y-15358031D02*
X17977135Y-15329460D01*
X17977135Y-15329460D02*
X17986658Y-15281841D01*
X17986658Y-15281841D02*
X17986658Y-15243746D01*
X17986658Y-15243746D02*
X17977135Y-15196127D01*
X17977135Y-15196127D02*
X17967611Y-15167555D01*
X17967611Y-15167555D02*
X17958087Y-15148508D01*
X17958087Y-15148508D02*
X17939039Y-15119936D01*
X17939039Y-15119936D02*
X17929516Y-15110412D01*
M02*
