G04 #@! TF.GenerationSoftware,KiCad,Pcbnew,9.0.5*
G04 #@! TF.CreationDate,2025-10-27T12:23:45+01:00*
G04 #@! TF.ProjectId,Laser_Electronics,4c617365-725f-4456-9c65-6374726f6e69,rev?*
G04 #@! TF.SameCoordinates,Original*
G04 #@! TF.FileFunction,Copper,L1,Top*
G04 #@! TF.FilePolarity,Positive*
%FSLAX46Y46*%
G04 Gerber Fmt 4.6, Leading zero omitted, Abs format (unit mm)*
G04 Created by KiCad (PCBNEW 9.0.5) date 2025-10-27 12:23:45*
%MOMM*%
%LPD*%
G01*
G04 APERTURE LIST*
G04 Aperture macros list*
%AMRoundRect*
0 Rectangle with rounded corners*
0 $1 Rounding radius*
0 $2 $3 $4 $5 $6 $7 $8 $9 X,Y pos of 4 corners*
0 Add a 4 corners polygon primitive as box body*
4,1,4,$2,$3,$4,$5,$6,$7,$8,$9,$2,$3,0*
0 Add four circle primitives for the rounded corners*
1,1,$1+$1,$2,$3*
1,1,$1+$1,$4,$5*
1,1,$1+$1,$6,$7*
1,1,$1+$1,$8,$9*
0 Add four rect primitives between the rounded corners*
20,1,$1+$1,$2,$3,$4,$5,0*
20,1,$1+$1,$4,$5,$6,$7,0*
20,1,$1+$1,$6,$7,$8,$9,0*
20,1,$1+$1,$8,$9,$2,$3,0*%
G04 Aperture macros list end*
G04 #@! TA.AperFunction,ComponentPad*
%ADD10RoundRect,0.250000X-0.350000X-0.625000X0.350000X-0.625000X0.350000X0.625000X-0.350000X0.625000X0*%
G04 #@! TD*
G04 #@! TA.AperFunction,ComponentPad*
%ADD11O,1.200000X1.750000*%
G04 #@! TD*
G04 #@! TA.AperFunction,SMDPad,CuDef*
%ADD12RoundRect,0.200000X-0.300000X-0.200000X0.300000X-0.200000X0.300000X0.200000X-0.300000X0.200000X0*%
G04 #@! TD*
G04 #@! TA.AperFunction,SMDPad,CuDef*
%ADD13RoundRect,0.200000X-0.200000X-0.275000X0.200000X-0.275000X0.200000X0.275000X-0.200000X0.275000X0*%
G04 #@! TD*
G04 #@! TA.AperFunction,ComponentPad*
%ADD14R,1.700000X1.700000*%
G04 #@! TD*
G04 #@! TA.AperFunction,ComponentPad*
%ADD15C,1.700000*%
G04 #@! TD*
G04 #@! TA.AperFunction,SMDPad,CuDef*
%ADD16RoundRect,0.150000X0.587500X0.150000X-0.587500X0.150000X-0.587500X-0.150000X0.587500X-0.150000X0*%
G04 #@! TD*
G04 #@! TA.AperFunction,SMDPad,CuDef*
%ADD17RoundRect,0.375000X-0.625000X-0.375000X0.625000X-0.375000X0.625000X0.375000X-0.625000X0.375000X0*%
G04 #@! TD*
G04 #@! TA.AperFunction,SMDPad,CuDef*
%ADD18RoundRect,0.500000X-0.500000X-1.400000X0.500000X-1.400000X0.500000X1.400000X-0.500000X1.400000X0*%
G04 #@! TD*
G04 #@! TA.AperFunction,SMDPad,CuDef*
%ADD19RoundRect,0.225000X-0.225000X-0.250000X0.225000X-0.250000X0.225000X0.250000X-0.225000X0.250000X0*%
G04 #@! TD*
G04 #@! TA.AperFunction,SMDPad,CuDef*
%ADD20RoundRect,0.200000X0.275000X-0.200000X0.275000X0.200000X-0.275000X0.200000X-0.275000X-0.200000X0*%
G04 #@! TD*
G04 #@! TA.AperFunction,SMDPad,CuDef*
%ADD21R,0.700000X1.600000*%
G04 #@! TD*
G04 #@! TA.AperFunction,SMDPad,CuDef*
%ADD22R,1.200000X2.200000*%
G04 #@! TD*
G04 #@! TA.AperFunction,SMDPad,CuDef*
%ADD23R,1.600000X1.400000*%
G04 #@! TD*
G04 #@! TA.AperFunction,SMDPad,CuDef*
%ADD24R,1.200000X1.400000*%
G04 #@! TD*
G04 #@! TA.AperFunction,ComponentPad*
%ADD25RoundRect,0.250000X-0.600000X-0.725000X0.600000X-0.725000X0.600000X0.725000X-0.600000X0.725000X0*%
G04 #@! TD*
G04 #@! TA.AperFunction,ComponentPad*
%ADD26O,1.700000X1.950000*%
G04 #@! TD*
G04 #@! TA.AperFunction,SMDPad,CuDef*
%ADD27RoundRect,0.250000X1.500000X0.550000X-1.500000X0.550000X-1.500000X-0.550000X1.500000X-0.550000X0*%
G04 #@! TD*
G04 #@! TA.AperFunction,SMDPad,CuDef*
%ADD28R,0.900000X1.500000*%
G04 #@! TD*
G04 #@! TA.AperFunction,SMDPad,CuDef*
%ADD29R,1.500000X0.900000*%
G04 #@! TD*
G04 #@! TA.AperFunction,SMDPad,CuDef*
%ADD30R,1.050000X1.050000*%
G04 #@! TD*
G04 #@! TA.AperFunction,HeatsinkPad*
%ADD31C,0.600000*%
G04 #@! TD*
G04 #@! TA.AperFunction,HeatsinkPad*
%ADD32R,4.200000X4.200000*%
G04 #@! TD*
G04 #@! TA.AperFunction,ComponentPad*
%ADD33C,5.600000*%
G04 #@! TD*
G04 #@! TA.AperFunction,SMDPad,CuDef*
%ADD34RoundRect,0.225000X-0.250000X0.225000X-0.250000X-0.225000X0.250000X-0.225000X0.250000X0.225000X0*%
G04 #@! TD*
G04 #@! TA.AperFunction,SMDPad,CuDef*
%ADD35RoundRect,0.150000X0.825000X0.150000X-0.825000X0.150000X-0.825000X-0.150000X0.825000X-0.150000X0*%
G04 #@! TD*
G04 #@! TA.AperFunction,ComponentPad*
%ADD36R,1.600000X1.600000*%
G04 #@! TD*
G04 #@! TA.AperFunction,ComponentPad*
%ADD37O,1.600000X1.600000*%
G04 #@! TD*
G04 #@! TA.AperFunction,SMDPad,CuDef*
%ADD38R,0.502500X0.630000*%
G04 #@! TD*
G04 #@! TA.AperFunction,SMDPad,CuDef*
%ADD39R,0.505000X0.630000*%
G04 #@! TD*
G04 #@! TA.AperFunction,SMDPad,CuDef*
%ADD40RoundRect,0.200000X0.200000X0.275000X-0.200000X0.275000X-0.200000X-0.275000X0.200000X-0.275000X0*%
G04 #@! TD*
G04 #@! TA.AperFunction,SMDPad,CuDef*
%ADD41RoundRect,0.225000X0.225000X0.250000X-0.225000X0.250000X-0.225000X-0.250000X0.225000X-0.250000X0*%
G04 #@! TD*
G04 #@! TA.AperFunction,SMDPad,CuDef*
%ADD42RoundRect,0.200000X-0.275000X0.200000X-0.275000X-0.200000X0.275000X-0.200000X0.275000X0.200000X0*%
G04 #@! TD*
G04 #@! TA.AperFunction,SMDPad,CuDef*
%ADD43RoundRect,0.250000X-1.500000X-0.550000X1.500000X-0.550000X1.500000X0.550000X-1.500000X0.550000X0*%
G04 #@! TD*
G04 #@! TA.AperFunction,SMDPad,CuDef*
%ADD44RoundRect,0.218750X0.218750X0.256250X-0.218750X0.256250X-0.218750X-0.256250X0.218750X-0.256250X0*%
G04 #@! TD*
G04 #@! TA.AperFunction,ComponentPad*
%ADD45RoundRect,0.250001X0.799999X0.799999X-0.799999X0.799999X-0.799999X-0.799999X0.799999X-0.799999X0*%
G04 #@! TD*
G04 #@! TA.AperFunction,ComponentPad*
%ADD46C,2.100000*%
G04 #@! TD*
G04 #@! TA.AperFunction,ViaPad*
%ADD47C,0.600000*%
G04 #@! TD*
G04 #@! TA.AperFunction,Conductor*
%ADD48C,0.250000*%
G04 #@! TD*
G04 #@! TA.AperFunction,Conductor*
%ADD49C,0.600000*%
G04 #@! TD*
G04 #@! TA.AperFunction,Conductor*
%ADD50C,1.500000*%
G04 #@! TD*
G04 #@! TA.AperFunction,Conductor*
%ADD51C,2.300000*%
G04 #@! TD*
G04 #@! TA.AperFunction,Conductor*
%ADD52C,0.350000*%
G04 #@! TD*
G04 APERTURE END LIST*
D10*
X118015000Y-92710000D03*
D11*
X120015000Y-92710000D03*
D12*
X129540000Y-56642000D03*
X131040000Y-56642000D03*
X131040000Y-57742000D03*
X129540000Y-57742000D03*
D13*
X144717000Y-113792000D03*
X146367000Y-113792000D03*
D14*
X113665000Y-57785000D03*
D15*
X116205000Y-57785000D03*
X118745000Y-57785000D03*
D16*
X137462500Y-84135000D03*
X137462500Y-82235000D03*
X135587500Y-83185000D03*
D17*
X135915000Y-122160000D03*
X135915000Y-124460000D03*
D18*
X142215000Y-124460000D03*
D17*
X135915000Y-126760000D03*
D19*
X112890000Y-91440000D03*
X114440000Y-91440000D03*
D10*
X126270000Y-92710000D03*
D11*
X128270000Y-92710000D03*
D14*
X113665000Y-62230000D03*
D15*
X116205000Y-62230000D03*
X118745000Y-62230000D03*
X121285000Y-62230000D03*
D20*
X137160000Y-80200000D03*
X137160000Y-78550000D03*
D21*
X137500968Y-71537855D03*
X138600968Y-71537855D03*
X139700968Y-71537855D03*
X140800968Y-71537855D03*
X141900968Y-71537855D03*
X143000968Y-71537855D03*
X144100968Y-71537855D03*
X145200968Y-71537855D03*
X146300968Y-71537855D03*
D22*
X132000968Y-61437855D03*
D23*
X132900968Y-71037855D03*
D22*
X147500968Y-61437855D03*
D24*
X147500968Y-71037855D03*
D14*
X113665000Y-66675000D03*
D15*
X116205000Y-66675000D03*
X118745000Y-66675000D03*
X121285000Y-66675000D03*
X123825000Y-66675000D03*
X126365000Y-66675000D03*
D19*
X114160000Y-108849000D03*
X115710000Y-108849000D03*
D25*
X138470000Y-109220000D03*
D26*
X140970000Y-109220000D03*
X143470000Y-109220000D03*
D27*
X126525000Y-106934000D03*
X121125000Y-106934000D03*
D28*
X113035000Y-88760000D03*
X114305000Y-88760000D03*
X115575000Y-88760000D03*
X116845000Y-88760000D03*
X118115000Y-88760000D03*
X119385000Y-88760000D03*
X120655000Y-88760000D03*
X121925000Y-88760000D03*
X123195000Y-88760000D03*
X124465000Y-88760000D03*
X125735000Y-88760000D03*
X127005000Y-88760000D03*
X128275000Y-88760000D03*
X129545000Y-88760000D03*
D29*
X130795000Y-85720000D03*
X130795000Y-84450000D03*
X130795000Y-83180000D03*
X130795000Y-81910000D03*
X130795000Y-80640000D03*
X130795000Y-79370000D03*
X130795000Y-78100000D03*
X130795000Y-76830000D03*
X130795000Y-75560000D03*
X130795000Y-74290000D03*
D28*
X129545000Y-71260000D03*
X128275000Y-71260000D03*
X127005000Y-71260000D03*
X125735000Y-71260000D03*
X124465000Y-71260000D03*
X123195000Y-71260000D03*
X121925000Y-71260000D03*
X120655000Y-71260000D03*
X119385000Y-71260000D03*
X118115000Y-71260000D03*
X116845000Y-71260000D03*
X115575000Y-71260000D03*
X114305000Y-71260000D03*
X113035000Y-71260000D03*
D30*
X118850000Y-82215000D03*
D31*
X119612500Y-82215000D03*
D30*
X120375000Y-82215000D03*
D31*
X121137500Y-82215000D03*
D30*
X121900000Y-82215000D03*
D31*
X118850000Y-81452500D03*
X120375000Y-81452500D03*
X121900000Y-81452500D03*
D30*
X118850000Y-80690000D03*
D31*
X119612500Y-80690000D03*
D30*
X120375000Y-80690000D03*
D32*
X120375000Y-80690000D03*
D31*
X121137500Y-80690000D03*
D30*
X121900000Y-80690000D03*
D31*
X118850000Y-79927500D03*
X120375000Y-79927500D03*
X121900000Y-79927500D03*
D30*
X118850000Y-79165000D03*
D31*
X119612500Y-79165000D03*
D30*
X120375000Y-79165000D03*
D31*
X121137500Y-79165000D03*
D30*
X121900000Y-79165000D03*
D33*
X139700000Y-93980000D03*
D34*
X144780000Y-127495000D03*
X144780000Y-129045000D03*
D16*
X137462500Y-76515000D03*
X137462500Y-74615000D03*
X135587500Y-75565000D03*
D13*
X122263500Y-57404000D03*
X123913500Y-57404000D03*
X129223000Y-66548000D03*
X130873000Y-66548000D03*
D19*
X145529000Y-97282000D03*
X147079000Y-97282000D03*
D35*
X129475000Y-63119000D03*
X129475000Y-61849000D03*
X129475000Y-60579000D03*
X129475000Y-59309000D03*
X124525000Y-59309000D03*
X124525000Y-60579000D03*
X124525000Y-61849000D03*
X124525000Y-63119000D03*
D36*
X113665000Y-136525000D03*
D37*
X116205000Y-136525000D03*
X118745000Y-136525000D03*
X121285000Y-136525000D03*
X123825000Y-136525000D03*
X126365000Y-136525000D03*
X128905000Y-136525000D03*
X131445000Y-136525000D03*
X131445000Y-123825000D03*
X128905000Y-123825000D03*
X126365000Y-123825000D03*
X123825000Y-123825000D03*
X121285000Y-123825000D03*
X118745000Y-123825000D03*
X116205000Y-123825000D03*
X113665000Y-123825000D03*
X131445000Y-126365000D03*
X131445000Y-128905000D03*
D19*
X114287000Y-132852000D03*
X115837000Y-132852000D03*
X145529000Y-105156000D03*
X147079000Y-105156000D03*
D38*
X147466250Y-115570000D03*
D39*
X147465000Y-119150000D03*
X145415000Y-115570000D03*
X145415000Y-119150000D03*
D14*
X146304000Y-93472000D03*
D15*
X146304000Y-90932000D03*
X146304000Y-88392000D03*
X146304000Y-85852000D03*
X146304000Y-83312000D03*
X146304000Y-80772000D03*
X146304000Y-78232000D03*
X146304000Y-75692000D03*
D13*
X140653000Y-99060000D03*
X142303000Y-99060000D03*
D36*
X113665000Y-112014000D03*
D37*
X116205000Y-112014000D03*
X118745000Y-112014000D03*
X121285000Y-112014000D03*
X123825000Y-112014000D03*
X126365000Y-112014000D03*
X128905000Y-112014000D03*
X131445000Y-112014000D03*
X131445000Y-99314000D03*
X128905000Y-99314000D03*
X126365000Y-99314000D03*
X123825000Y-99314000D03*
X121285000Y-99314000D03*
X118745000Y-99314000D03*
X116205000Y-99314000D03*
X113665000Y-99314000D03*
X131445000Y-101854000D03*
X131445000Y-104394000D03*
D34*
X144780000Y-123685000D03*
X144780000Y-125235000D03*
D40*
X143065000Y-105156000D03*
X141415000Y-105156000D03*
D25*
X118805000Y-117175000D03*
D26*
X121305000Y-117175000D03*
X123805000Y-117175000D03*
X126305000Y-117175000D03*
D41*
X142380000Y-74295000D03*
X140830000Y-74295000D03*
D42*
X139700000Y-78550000D03*
X139700000Y-80200000D03*
D25*
X118805000Y-141940000D03*
D26*
X121305000Y-141940000D03*
X123805000Y-141940000D03*
X126305000Y-141940000D03*
D27*
X126525000Y-131445000D03*
X121125000Y-131445000D03*
D43*
X136365000Y-132080000D03*
X141765000Y-132080000D03*
D38*
X145268750Y-102870000D03*
D39*
X145270000Y-99290000D03*
X147320000Y-102870000D03*
X147320000Y-99290000D03*
D27*
X141765000Y-116840000D03*
X136365000Y-116840000D03*
D44*
X127305000Y-57404000D03*
X125730000Y-57404000D03*
D45*
X142200000Y-140467500D03*
D46*
X137200000Y-140467500D03*
D41*
X130950000Y-64770000D03*
X129400000Y-64770000D03*
D47*
X124206000Y-85090000D03*
X113665000Y-140335000D03*
X143256000Y-67310000D03*
X139065000Y-121285000D03*
X137795000Y-106045000D03*
X147574000Y-68834000D03*
X139065000Y-114300000D03*
X114300000Y-102235000D03*
X129286000Y-81788000D03*
X120650000Y-75565000D03*
X133350000Y-96520000D03*
X133858000Y-65278000D03*
X116840000Y-59690000D03*
X144780000Y-73152000D03*
X147320000Y-109220000D03*
X134620000Y-102870000D03*
X146685000Y-133985000D03*
X117475000Y-100965000D03*
X119888000Y-64770000D03*
X146050000Y-61468000D03*
X118110000Y-95250000D03*
X131963000Y-92202000D03*
X114935000Y-77470000D03*
X115062000Y-94488000D03*
X135382000Y-60198000D03*
X129032000Y-74168000D03*
X141986000Y-64008000D03*
X146685000Y-121285000D03*
X130810000Y-121285000D03*
X128524000Y-57404000D03*
X120015000Y-104775000D03*
X133096000Y-61976000D03*
X131963000Y-90424000D03*
X114935000Y-83820000D03*
X140716000Y-60198000D03*
X134620000Y-107315000D03*
X143523000Y-73152000D03*
X133604000Y-73914000D03*
X127508000Y-79756000D03*
X146685000Y-144145000D03*
X139065000Y-130175000D03*
X147066000Y-73660000D03*
X142875000Y-101600000D03*
X120650000Y-73660000D03*
X144272000Y-98044000D03*
X113665000Y-64770000D03*
X127508000Y-74168000D03*
X146685000Y-140335000D03*
X130810000Y-117475000D03*
X131445000Y-144145000D03*
X136398000Y-67056000D03*
X132080000Y-65786000D03*
X136144000Y-92710000D03*
X126492000Y-63246000D03*
X113665000Y-144145000D03*
X142748000Y-90424000D03*
X116078000Y-97282000D03*
X114935000Y-80645000D03*
X121158000Y-97028000D03*
X131445000Y-107315000D03*
X127000000Y-121285000D03*
X133858000Y-67056000D03*
X133350000Y-57658000D03*
X147574000Y-57912000D03*
X136144000Y-94996000D03*
X118745000Y-133985000D03*
X128905000Y-114300000D03*
X113665000Y-60325000D03*
X121920000Y-102235000D03*
X116332000Y-93218000D03*
X147320000Y-117475000D03*
X123825000Y-133985000D03*
X113665000Y-106680000D03*
X136525000Y-98425000D03*
X128016000Y-76454000D03*
X143510000Y-112395000D03*
X139065000Y-118745000D03*
X137922000Y-64008000D03*
X131445000Y-140335000D03*
X129286000Y-79756000D03*
X121412000Y-92710000D03*
X125730000Y-108712000D03*
X116840000Y-81915000D03*
X113665000Y-130810000D03*
X116840000Y-79375000D03*
X128905000Y-133985000D03*
X127508000Y-82042000D03*
X113665000Y-128270000D03*
X117475000Y-73660000D03*
X129540000Y-72898000D03*
X147574000Y-64008000D03*
X131064000Y-71120000D03*
X139065000Y-133985000D03*
X140970000Y-72898000D03*
X134620000Y-63119000D03*
X114220000Y-86430000D03*
X115062000Y-69088000D03*
X139700000Y-70185855D03*
X117602000Y-86868000D03*
X120655000Y-90999000D03*
X131318000Y-93980000D03*
X123190000Y-90678000D03*
X126990558Y-90160558D03*
X119380000Y-72898000D03*
X115570000Y-73660000D03*
X133223000Y-76835000D03*
X118110000Y-90424000D03*
X122550000Y-75184000D03*
X144272000Y-74892000D03*
X115570000Y-87630000D03*
X133985000Y-83185000D03*
X135128000Y-93980000D03*
X135128000Y-91440000D03*
X131572000Y-59436000D03*
X133858000Y-76200000D03*
X138931808Y-81781808D03*
X146050000Y-69596000D03*
X116332000Y-69088000D03*
X135636000Y-73152000D03*
X133350000Y-92202000D03*
X122682000Y-60960000D03*
X122682000Y-64399000D03*
X134874000Y-74168000D03*
X138938000Y-99060000D03*
D48*
X141900968Y-70487855D02*
X141900968Y-71537855D01*
X123894145Y-69560855D02*
X140973968Y-69560855D01*
X124449000Y-101230000D02*
X124449000Y-111045595D01*
X124206000Y-77216000D02*
X123195000Y-76205000D01*
X124206000Y-85090000D02*
X124206000Y-77216000D01*
X124449000Y-111045595D02*
X124981000Y-111577595D01*
X123195000Y-70260000D02*
X123894145Y-69560855D01*
X123195000Y-71260000D02*
X123195000Y-70260000D01*
X123195000Y-76205000D02*
X123195000Y-71260000D01*
X140973968Y-69560855D02*
X141900968Y-70487855D01*
X126365000Y-99314000D02*
X124449000Y-101230000D01*
X124981000Y-111577595D02*
X124981000Y-122441000D01*
X124981000Y-122441000D02*
X126365000Y-123825000D01*
X114935000Y-104716405D02*
X120159000Y-99492405D01*
X120159000Y-99492405D02*
X120159000Y-97021000D01*
X114935000Y-122555000D02*
X114935000Y-104716405D01*
X128275000Y-89760000D02*
X128275000Y-88760000D01*
X126248000Y-90932000D02*
X127103000Y-90932000D01*
X120159000Y-97021000D02*
X126248000Y-90932000D01*
X116205000Y-123825000D02*
X114935000Y-122555000D01*
X127103000Y-90932000D02*
X128275000Y-89760000D01*
X118610514Y-93911000D02*
X118941000Y-93580514D01*
X112539000Y-124291405D02*
X112539000Y-98847595D01*
X131445000Y-128905000D02*
X117152595Y-128905000D01*
X117475595Y-93911000D02*
X118610514Y-93911000D01*
X112539000Y-98847595D02*
X117475595Y-93911000D01*
X118941000Y-91625000D02*
X119385000Y-91181000D01*
X118941000Y-93580514D02*
X118941000Y-91625000D01*
X119385000Y-91181000D02*
X119385000Y-88760000D01*
X117152595Y-128905000D02*
X112539000Y-124291405D01*
X122699000Y-99492405D02*
X122699000Y-98789000D01*
X118872000Y-107552514D02*
X118872000Y-103319405D01*
X122411000Y-120575514D02*
X119981000Y-118145514D01*
X114791000Y-124951000D02*
X121751405Y-124951000D01*
X122411000Y-124291405D02*
X122411000Y-120575514D01*
X123300000Y-98188000D02*
X124206000Y-98188000D01*
X129851000Y-89649190D02*
X129851595Y-89648595D01*
X129851595Y-89648595D02*
X129545000Y-89342000D01*
X119981000Y-118145514D02*
X119981000Y-108661514D01*
X129545000Y-89342000D02*
X129545000Y-88760000D01*
X124206000Y-98188000D02*
X125108000Y-97286000D01*
X129851000Y-92964000D02*
X129851000Y-89649190D01*
X122699000Y-98789000D02*
X123300000Y-98188000D01*
X118872000Y-103319405D02*
X122699000Y-99492405D01*
X113665000Y-123825000D02*
X114791000Y-124951000D01*
X125529000Y-97286000D02*
X129851000Y-92964000D01*
X121751405Y-124951000D02*
X122411000Y-124291405D01*
X119981000Y-108661514D02*
X118872000Y-107552514D01*
X125108000Y-97286000D02*
X125529000Y-97286000D01*
D49*
X114287000Y-135903000D02*
X113665000Y-136525000D01*
X113665000Y-60325000D02*
X113665000Y-62230000D01*
D48*
X113035000Y-88760000D02*
X113035000Y-91295000D01*
D49*
X142380000Y-74295000D02*
X143523000Y-73152000D01*
X113035000Y-67305000D02*
X113035000Y-71260000D01*
X113665000Y-62230000D02*
X113665000Y-64770000D01*
X143523000Y-73152000D02*
X144780000Y-73152000D01*
X143299968Y-72788855D02*
X143299968Y-71671968D01*
X131963000Y-90424000D02*
X131963000Y-92202000D01*
X131963000Y-86243000D02*
X131963000Y-90424000D01*
X128270000Y-92710000D02*
X128270000Y-92985000D01*
X143165855Y-71537855D02*
X143000968Y-71537855D01*
X129286000Y-85143000D02*
X129286000Y-81788000D01*
X114287000Y-132852000D02*
X114287000Y-135903000D01*
D48*
X113035000Y-91295000D02*
X112890000Y-91440000D01*
D49*
X143299968Y-71671968D02*
X143165855Y-71537855D01*
X113665000Y-57785000D02*
X113665000Y-60325000D01*
D50*
X135915000Y-122160000D02*
X135915000Y-117290000D01*
D48*
X126365000Y-63119000D02*
X126492000Y-63246000D01*
D50*
X135915000Y-117290000D02*
X136365000Y-116840000D01*
D49*
X113665000Y-66675000D02*
X113035000Y-67305000D01*
X129286000Y-81788000D02*
X129286000Y-79756000D01*
X124227000Y-97028000D02*
X121158000Y-97028000D01*
X130795000Y-85720000D02*
X129863000Y-85720000D01*
X128270000Y-92985000D02*
X124227000Y-97028000D01*
X113665000Y-64770000D02*
X113665000Y-66675000D01*
X144416855Y-72788855D02*
X143299968Y-72788855D01*
D48*
X124525000Y-63119000D02*
X126365000Y-63119000D01*
D49*
X129863000Y-85720000D02*
X129286000Y-85143000D01*
X130795000Y-85720000D02*
X131440000Y-85720000D01*
X131440000Y-85720000D02*
X131963000Y-86243000D01*
X144780000Y-73152000D02*
X144416855Y-72788855D01*
X114160000Y-111519000D02*
X113665000Y-112014000D01*
X114160000Y-108849000D02*
X114160000Y-111519000D01*
D50*
X131445000Y-109855000D02*
X131445000Y-112014000D01*
D51*
X131445000Y-136525000D02*
X131920000Y-136525000D01*
D50*
X135915000Y-126760000D02*
X135915000Y-127635000D01*
D51*
X131920000Y-136525000D02*
X136365000Y-132080000D01*
D50*
X135915000Y-127635000D02*
X135915000Y-131630000D01*
X126525000Y-131445000D02*
X128905000Y-131445000D01*
X144780000Y-127495000D02*
X136055000Y-127495000D01*
D51*
X136225000Y-131940000D02*
X136365000Y-132080000D01*
D50*
X128524000Y-106934000D02*
X131445000Y-109855000D01*
X128905000Y-131445000D02*
X131445000Y-133985000D01*
X131445000Y-133985000D02*
X131445000Y-136525000D01*
X126525000Y-106934000D02*
X128524000Y-106934000D01*
X135915000Y-131630000D02*
X136365000Y-132080000D01*
X136055000Y-127495000D02*
X135915000Y-127635000D01*
D48*
X131445000Y-99314000D02*
X130319000Y-100440000D01*
X127779000Y-99780405D02*
X127779000Y-98535000D01*
X130319000Y-100440000D02*
X128438595Y-100440000D01*
X127779000Y-98535000D02*
X132588000Y-93726000D01*
X132588000Y-100457000D02*
X131445000Y-99314000D01*
X132588000Y-122682000D02*
X132588000Y-100457000D01*
X128438595Y-100440000D02*
X127779000Y-99780405D01*
X132466000Y-84450000D02*
X130795000Y-84450000D01*
X132588000Y-93726000D02*
X132588000Y-84328000D01*
X132588000Y-84328000D02*
X132466000Y-84450000D01*
X131445000Y-123825000D02*
X132588000Y-122682000D01*
D49*
X129531181Y-130302000D02*
X129373181Y-130144000D01*
X140830000Y-74295000D02*
X142227000Y-75692000D01*
X115837000Y-132852000D02*
X115837000Y-136157000D01*
X140830000Y-71566887D02*
X140800968Y-71537855D01*
D52*
X129475000Y-63119000D02*
X128849000Y-62493000D01*
D49*
X118545000Y-130144000D02*
X115837000Y-132852000D01*
D50*
X142240000Y-116840000D02*
X142215000Y-116865000D01*
X141765000Y-116840000D02*
X142240000Y-116840000D01*
D49*
X121857000Y-57404000D02*
X122263500Y-57404000D01*
X118745000Y-59690000D02*
X121285000Y-62230000D01*
D50*
X144780000Y-123685000D02*
X142990000Y-123685000D01*
D49*
X142227000Y-75692000D02*
X146304000Y-75692000D01*
X129373181Y-130144000D02*
X118545000Y-130144000D01*
D52*
X128849000Y-62493000D02*
X121548000Y-62493000D01*
D49*
X135915000Y-124460000D02*
X132746000Y-127629000D01*
D48*
X114305000Y-88760000D02*
X114305000Y-91305000D01*
X114305000Y-91305000D02*
X114440000Y-91440000D01*
D49*
X129475000Y-63119000D02*
X129475000Y-64695000D01*
X118745000Y-57785000D02*
X118745000Y-59690000D01*
X115710000Y-111519000D02*
X116205000Y-112014000D01*
X140830000Y-74295000D02*
X140830000Y-71566887D01*
X115710000Y-108849000D02*
X115710000Y-111519000D01*
X115837000Y-136157000D02*
X116205000Y-136525000D01*
X132746000Y-129443892D02*
X131887892Y-130302000D01*
X129475000Y-64695000D02*
X129400000Y-64770000D01*
D48*
X129077000Y-58205000D02*
X123064500Y-58205000D01*
D49*
X121476000Y-57785000D02*
X121857000Y-57404000D01*
D48*
X144717000Y-113888000D02*
X141765000Y-116840000D01*
D49*
X134620000Y-63119000D02*
X129475000Y-63119000D01*
D50*
X135915000Y-124460000D02*
X142215000Y-124460000D01*
D49*
X114220000Y-88675000D02*
X114305000Y-88760000D01*
X131887892Y-130302000D02*
X129531181Y-130302000D01*
X114220000Y-86430000D02*
X114220000Y-88675000D01*
D50*
X142215000Y-116865000D02*
X142215000Y-124460000D01*
D48*
X123064500Y-58205000D02*
X122263500Y-57404000D01*
X121548000Y-62493000D02*
X121285000Y-62230000D01*
D50*
X142990000Y-123685000D02*
X142215000Y-124460000D01*
D49*
X118745000Y-57785000D02*
X121476000Y-57785000D01*
D48*
X144717000Y-113792000D02*
X144717000Y-113888000D01*
D49*
X132746000Y-127629000D02*
X132746000Y-129443892D01*
D48*
X129540000Y-57742000D02*
X129077000Y-58205000D01*
X130692000Y-93720702D02*
X130810000Y-93602702D01*
X123358595Y-110888000D02*
X123358595Y-101660810D01*
X125222000Y-99797405D02*
X125222000Y-99568000D01*
X130692000Y-94098000D02*
X130692000Y-93720702D01*
X123825000Y-123825000D02*
X123825000Y-118983115D01*
X125222000Y-99568000D02*
X125239000Y-99551000D01*
X125898595Y-98188000D02*
X126602000Y-98188000D01*
X125476000Y-73406000D02*
X127005000Y-71877000D01*
X125239000Y-98847595D02*
X125898595Y-98188000D01*
X127005000Y-71877000D02*
X127005000Y-71260000D01*
X123825000Y-118983115D02*
X122629000Y-117787115D01*
X123358595Y-101660810D02*
X125222000Y-99797405D01*
X125239000Y-99551000D02*
X125239000Y-98847595D01*
X126602000Y-98188000D02*
X130692000Y-94098000D01*
X129416702Y-87122000D02*
X125476000Y-83181298D01*
X122629000Y-111617595D02*
X123358595Y-110888000D01*
X130810000Y-87122000D02*
X129416702Y-87122000D01*
X130810000Y-93602702D02*
X130810000Y-87122000D01*
X122629000Y-117787115D02*
X122629000Y-111617595D01*
X125476000Y-83181298D02*
X125476000Y-73406000D01*
X140501000Y-77015690D02*
X140501000Y-87089582D01*
X139700000Y-71536887D02*
X139700968Y-71537855D01*
X140501000Y-87089582D02*
X128905000Y-98685582D01*
X130031000Y-98188000D02*
X128905000Y-99314000D01*
X128905000Y-123825000D02*
X130031000Y-124951000D01*
X131911405Y-124951000D02*
X133039000Y-123823405D01*
X139700968Y-71537855D02*
X139700968Y-76215658D01*
X130031000Y-124951000D02*
X131911405Y-124951000D01*
X128905000Y-98685582D02*
X128905000Y-99314000D01*
X114305000Y-69845000D02*
X114305000Y-71260000D01*
X131911405Y-98188000D02*
X130031000Y-98188000D01*
X133039000Y-99315595D02*
X131911405Y-98188000D01*
X133039000Y-123823405D02*
X133039000Y-99315595D01*
X139700968Y-76215658D02*
X140501000Y-77015690D01*
X139700000Y-70185855D02*
X139700000Y-71536887D01*
X115062000Y-69088000D02*
X114305000Y-69845000D01*
X117856000Y-86868000D02*
X117602000Y-86868000D01*
X117619000Y-102980000D02*
X117619000Y-120159000D01*
X121925000Y-77388000D02*
X122801000Y-78264000D01*
X123075145Y-69109855D02*
X142722968Y-69109855D01*
X117619000Y-120159000D02*
X121285000Y-123825000D01*
X121925000Y-71260000D02*
X121925000Y-77388000D01*
X121925000Y-71260000D02*
X121925000Y-70260000D01*
X119049000Y-86868000D02*
X117856000Y-86868000D01*
X142722968Y-69109855D02*
X144100968Y-70487855D01*
X121285000Y-99314000D02*
X117619000Y-102980000D01*
X122801000Y-83116000D02*
X119049000Y-86868000D01*
X144100968Y-70487855D02*
X144100968Y-71537855D01*
X121925000Y-70260000D02*
X123075145Y-69109855D01*
X122801000Y-78264000D02*
X122801000Y-83116000D01*
X116205000Y-99314000D02*
X124465000Y-91054000D01*
X116205000Y-99314000D02*
X116332000Y-99314000D01*
X124465000Y-91054000D02*
X124465000Y-88760000D01*
X120655000Y-90999000D02*
X120655000Y-88760000D01*
X130302000Y-87684000D02*
X130302000Y-87630000D01*
X124714000Y-99314000D02*
X124788000Y-99240000D01*
X123825000Y-99314000D02*
X124714000Y-99314000D01*
X125711785Y-97737000D02*
X126291000Y-97737000D01*
X130302000Y-93472892D02*
X130302000Y-89836000D01*
X130302000Y-87630000D02*
X129286000Y-87630000D01*
X129286000Y-87630000D02*
X124968000Y-83312000D01*
X126291000Y-97737000D02*
X130241000Y-93787000D01*
X125735000Y-72385000D02*
X125735000Y-71260000D01*
X130302000Y-89836000D02*
X130321000Y-89836000D01*
X124788000Y-98660785D02*
X125711785Y-97737000D01*
X130241000Y-93533892D02*
X130302000Y-93472892D01*
X124968000Y-83312000D02*
X124968000Y-73152000D01*
X130321000Y-89836000D02*
X130321000Y-87684000D01*
X124788000Y-99240000D02*
X124788000Y-98660785D01*
X130241000Y-93787000D02*
X130241000Y-93533892D01*
X130321000Y-87684000D02*
X130302000Y-87684000D01*
X124968000Y-73152000D02*
X125735000Y-72385000D01*
X116671405Y-100440000D02*
X117619000Y-99492405D01*
X113665000Y-99314000D02*
X114791000Y-100440000D01*
X117619000Y-98537810D02*
X125735000Y-90421810D01*
X117619000Y-99492405D02*
X117619000Y-98537810D01*
X114791000Y-100440000D02*
X116671405Y-100440000D01*
X125735000Y-90421810D02*
X125735000Y-88760000D01*
X146367000Y-113792000D02*
X145542000Y-113792000D01*
X145542000Y-106997000D02*
X143701000Y-105156000D01*
X145529000Y-105156000D02*
X143065000Y-105156000D01*
X143701000Y-105156000D02*
X143065000Y-105156000D01*
X145415000Y-119150000D02*
X145415000Y-115570000D01*
X145415000Y-115570000D02*
X145542000Y-115443000D01*
X145542000Y-115443000D02*
X145542000Y-106997000D01*
X145529000Y-99031000D02*
X145270000Y-99290000D01*
X142303000Y-99060000D02*
X145040000Y-99060000D01*
X145270000Y-102868750D02*
X145268750Y-102870000D01*
X145270000Y-99290000D02*
X145270000Y-102868750D01*
X145529000Y-97282000D02*
X145529000Y-99031000D01*
X145040000Y-99060000D02*
X145270000Y-99290000D01*
X123913500Y-57404000D02*
X125730000Y-57404000D01*
X116845000Y-70260000D02*
X116845000Y-71260000D01*
X119921000Y-66375884D02*
X119921000Y-67184000D01*
X122649000Y-65499000D02*
X120797884Y-65499000D01*
X119921000Y-67184000D02*
X116845000Y-70260000D01*
X123825000Y-66675000D02*
X122649000Y-65499000D01*
X120797884Y-65499000D02*
X119921000Y-66375884D01*
X121285000Y-66675000D02*
X118115000Y-69845000D01*
X118115000Y-69845000D02*
X118115000Y-71260000D01*
X116845000Y-88760000D02*
X116845000Y-91540000D01*
X116845000Y-91540000D02*
X118015000Y-92710000D01*
X129851000Y-86671000D02*
X125984000Y-82804000D01*
X131318000Y-93980000D02*
X131318000Y-86992190D01*
X128070000Y-71465000D02*
X128275000Y-71260000D01*
X130996810Y-86671000D02*
X129851000Y-86671000D01*
X125984000Y-74222000D02*
X128070000Y-72136000D01*
X128070000Y-72136000D02*
X128070000Y-71465000D01*
X125984000Y-82804000D02*
X125984000Y-74222000D01*
X131318000Y-86992190D02*
X130996810Y-86671000D01*
X123190000Y-90678000D02*
X121925000Y-89413000D01*
X121925000Y-89413000D02*
X121925000Y-88760000D01*
X126990558Y-90160558D02*
X126990558Y-88774442D01*
X126990558Y-88774442D02*
X127005000Y-88760000D01*
X119380000Y-71265000D02*
X119385000Y-71260000D01*
X119380000Y-72898000D02*
X119380000Y-71265000D01*
X115570000Y-73660000D02*
X115570000Y-71265000D01*
X115570000Y-71265000D02*
X115575000Y-71260000D01*
X131948000Y-75560000D02*
X130795000Y-75560000D01*
X133223000Y-76835000D02*
X131948000Y-75560000D01*
X118110000Y-90424000D02*
X118110000Y-88765000D01*
X118110000Y-88765000D02*
X118115000Y-88760000D01*
X144272000Y-74892000D02*
X144557936Y-74892000D01*
X123252000Y-84022000D02*
X123252000Y-76899810D01*
X122550000Y-76197810D02*
X122550000Y-75184000D01*
X144557936Y-74892000D02*
X146300968Y-73148968D01*
X123195000Y-84079000D02*
X123195000Y-88760000D01*
X123252000Y-76899810D02*
X122550000Y-76197810D01*
X123195000Y-84079000D02*
X123252000Y-84022000D01*
X146300968Y-73148968D02*
X146300968Y-71537855D01*
X138124968Y-70011855D02*
X138600968Y-70487855D01*
X124713145Y-70011855D02*
X138124968Y-70011855D01*
X124465000Y-71260000D02*
X124465000Y-70260000D01*
X138600968Y-70487855D02*
X138600968Y-71537855D01*
X124465000Y-70260000D02*
X124713145Y-70011855D01*
X137160000Y-78550000D02*
X137160000Y-76817500D01*
X137160000Y-76817500D02*
X137462500Y-76515000D01*
X124525000Y-61849000D02*
X124907322Y-61849000D01*
X130126000Y-58656000D02*
X131040000Y-57742000D01*
X128100322Y-58656000D02*
X130126000Y-58656000D01*
X124907322Y-61849000D02*
X128100322Y-58656000D01*
X139700000Y-80200000D02*
X139700000Y-81897500D01*
X139700000Y-81897500D02*
X137462500Y-84135000D01*
X135128000Y-98869000D02*
X135128000Y-93980000D01*
X141415000Y-105156000D02*
X135128000Y-98869000D01*
X115570000Y-87630000D02*
X115570000Y-88755000D01*
X135587500Y-83185000D02*
X133985000Y-83185000D01*
X135128000Y-85344000D02*
X135128000Y-91440000D01*
X135128000Y-83644500D02*
X135587500Y-83185000D01*
X135128000Y-85344000D02*
X135128000Y-83644500D01*
X115570000Y-88755000D02*
X115575000Y-88760000D01*
X117387000Y-56603000D02*
X116205000Y-57785000D01*
X129501000Y-56603000D02*
X117387000Y-56603000D01*
X129540000Y-56642000D02*
X129501000Y-56603000D01*
X130795000Y-74290000D02*
X131818190Y-74290000D01*
X131818190Y-74290000D02*
X133728190Y-76200000D01*
X129475000Y-59309000D02*
X131445000Y-59309000D01*
X133728190Y-76200000D02*
X133858000Y-76200000D01*
X131445000Y-59309000D02*
X131572000Y-59436000D01*
X138931808Y-81781808D02*
X137915692Y-81781808D01*
X128348855Y-68658855D02*
X145112855Y-68658855D01*
X137160000Y-81932500D02*
X137462500Y-82235000D01*
X145112855Y-68658855D02*
X146050000Y-69596000D01*
X137915692Y-81781808D02*
X137462500Y-82235000D01*
X137160000Y-80200000D02*
X137160000Y-81932500D01*
X126365000Y-66675000D02*
X128348855Y-68658855D01*
X116205000Y-66675000D02*
X116205000Y-68961000D01*
X139700000Y-78550000D02*
X139700000Y-76852500D01*
X135636000Y-73152000D02*
X135999500Y-73152000D01*
X139700000Y-76852500D02*
X137462500Y-74615000D01*
X116205000Y-68961000D02*
X116332000Y-69088000D01*
X135999500Y-73152000D02*
X137462500Y-74615000D01*
X126429000Y-65024000D02*
X127953000Y-66548000D01*
X127953000Y-66548000D02*
X129223000Y-66548000D01*
X121539000Y-65024000D02*
X118745000Y-62230000D01*
X126429000Y-65024000D02*
X121539000Y-65024000D01*
X129545000Y-71260000D02*
X129545000Y-71379000D01*
X122682000Y-60960000D02*
X122936000Y-60960000D01*
X127454000Y-64399000D02*
X122682000Y-64399000D01*
X134874000Y-74851500D02*
X135587500Y-75565000D01*
X129545000Y-71379000D02*
X133731000Y-75565000D01*
X133350000Y-77802500D02*
X133350000Y-92202000D01*
X127454000Y-64399000D02*
X128626000Y-65571000D01*
X122936000Y-60960000D02*
X123317000Y-60579000D01*
X135587500Y-75565000D02*
X133350000Y-77802500D01*
X134874000Y-74168000D02*
X134874000Y-74851500D01*
X129896000Y-65571000D02*
X130873000Y-66548000D01*
X133731000Y-75565000D02*
X135587500Y-75565000D01*
X128626000Y-65571000D02*
X129896000Y-65571000D01*
X138938000Y-99060000D02*
X140653000Y-99060000D01*
X123317000Y-60579000D02*
X124525000Y-60579000D01*
G04 #@! TA.AperFunction,Conductor*
G36*
X134729002Y-56150185D02*
G01*
X134768291Y-56190702D01*
X134939503Y-56476055D01*
X136168938Y-58525116D01*
X136177169Y-58541458D01*
X136185635Y-58561896D01*
X136185637Y-58561899D01*
X136188269Y-58564531D01*
X136199066Y-58575327D01*
X136208835Y-58591609D01*
X136233975Y-58610236D01*
X136256103Y-58632364D01*
X136273647Y-58639631D01*
X136288905Y-58650936D01*
X136319262Y-58658525D01*
X136348172Y-58670500D01*
X136351895Y-58670500D01*
X136381969Y-58674202D01*
X136385585Y-58675106D01*
X136407467Y-58671850D01*
X136425716Y-58670500D01*
X145660108Y-58670500D01*
X145700944Y-58673402D01*
X145709650Y-58670500D01*
X145718828Y-58670500D01*
X145752596Y-58656511D01*
X145760785Y-58653454D01*
X145795486Y-58641889D01*
X145802419Y-58635875D01*
X145810897Y-58632364D01*
X145839842Y-58603418D01*
X145870770Y-58576595D01*
X145870771Y-58576592D01*
X145870773Y-58576591D01*
X145876323Y-58569440D01*
X145881362Y-58561899D01*
X145881364Y-58561897D01*
X145895349Y-58528130D01*
X145898991Y-58520149D01*
X147059545Y-56199043D01*
X147107132Y-56147887D01*
X147170454Y-56130500D01*
X148215500Y-56130500D01*
X148282539Y-56150185D01*
X148328294Y-56202989D01*
X148339500Y-56254500D01*
X148339500Y-59720312D01*
X148319815Y-59787351D01*
X148267011Y-59833106D01*
X148202244Y-59843601D01*
X148148812Y-59837855D01*
X147750968Y-59837855D01*
X147750968Y-63037855D01*
X148148796Y-63037855D01*
X148148805Y-63037854D01*
X148202241Y-63032108D01*
X148271001Y-63044511D01*
X148322140Y-63092120D01*
X148339500Y-63155397D01*
X148339500Y-69720312D01*
X148319815Y-69787351D01*
X148267011Y-69833106D01*
X148202244Y-69843601D01*
X148148812Y-69837855D01*
X147750968Y-69837855D01*
X147750968Y-72237855D01*
X148148796Y-72237855D01*
X148148805Y-72237854D01*
X148202241Y-72232108D01*
X148271001Y-72244511D01*
X148322140Y-72292120D01*
X148339500Y-72355397D01*
X148339500Y-114878996D01*
X148319815Y-114946035D01*
X148267011Y-114991790D01*
X148197853Y-115001734D01*
X148134297Y-114972709D01*
X148116234Y-114953307D01*
X148074690Y-114897812D01*
X148074687Y-114897809D01*
X147959593Y-114811649D01*
X147959586Y-114811645D01*
X147824879Y-114761403D01*
X147824872Y-114761401D01*
X147765344Y-114755000D01*
X147716250Y-114755000D01*
X147716250Y-116385000D01*
X147765328Y-116385000D01*
X147765344Y-116384999D01*
X147824872Y-116378598D01*
X147824879Y-116378596D01*
X147959586Y-116328354D01*
X147959593Y-116328350D01*
X148074686Y-116242191D01*
X148116233Y-116186692D01*
X148172167Y-116144821D01*
X148241858Y-116139837D01*
X148303181Y-116173322D01*
X148336666Y-116234645D01*
X148339500Y-116261003D01*
X148339500Y-118458996D01*
X148319815Y-118526035D01*
X148267011Y-118571790D01*
X148197853Y-118581734D01*
X148134297Y-118552709D01*
X148116234Y-118533307D01*
X148074690Y-118477812D01*
X148074687Y-118477809D01*
X147959593Y-118391649D01*
X147959586Y-118391645D01*
X147824879Y-118341403D01*
X147824872Y-118341401D01*
X147765344Y-118335000D01*
X147715000Y-118335000D01*
X147715000Y-119965000D01*
X147765328Y-119965000D01*
X147765344Y-119964999D01*
X147824872Y-119958598D01*
X147824879Y-119958596D01*
X147959586Y-119908354D01*
X147959593Y-119908350D01*
X148074686Y-119822191D01*
X148116233Y-119766692D01*
X148172167Y-119724821D01*
X148241858Y-119719837D01*
X148303181Y-119753322D01*
X148336666Y-119814645D01*
X148339500Y-119841003D01*
X148339500Y-145675500D01*
X148319815Y-145742539D01*
X148267011Y-145788294D01*
X148215500Y-145799500D01*
X112134500Y-145799500D01*
X112067461Y-145779815D01*
X112021706Y-145727011D01*
X112010500Y-145675500D01*
X112010500Y-141164983D01*
X117454500Y-141164983D01*
X117454500Y-142715001D01*
X117454501Y-142715018D01*
X117465000Y-142817796D01*
X117465001Y-142817799D01*
X117510894Y-142956294D01*
X117520186Y-142984334D01*
X117612288Y-143133656D01*
X117736344Y-143257712D01*
X117885666Y-143349814D01*
X118052203Y-143404999D01*
X118154991Y-143415500D01*
X119455008Y-143415499D01*
X119557797Y-143404999D01*
X119724334Y-143349814D01*
X119873656Y-143257712D01*
X119997712Y-143133656D01*
X120089814Y-142984334D01*
X120089814Y-142984331D01*
X120093178Y-142978879D01*
X120145126Y-142932154D01*
X120214088Y-142920931D01*
X120278170Y-142948774D01*
X120286398Y-142956294D01*
X120425213Y-143095109D01*
X120597179Y-143220048D01*
X120597181Y-143220049D01*
X120597184Y-143220051D01*
X120786588Y-143316557D01*
X120988757Y-143382246D01*
X121198713Y-143415500D01*
X121198714Y-143415500D01*
X121411286Y-143415500D01*
X121411287Y-143415500D01*
X121621243Y-143382246D01*
X121823412Y-143316557D01*
X122012816Y-143220051D01*
X122034789Y-143204086D01*
X122184786Y-143095109D01*
X122184788Y-143095106D01*
X122184792Y-143095104D01*
X122335104Y-142944792D01*
X122454683Y-142780204D01*
X122510011Y-142737540D01*
X122579624Y-142731561D01*
X122641420Y-142764166D01*
X122655313Y-142780199D01*
X122757560Y-142920931D01*
X122774896Y-142944792D01*
X122925213Y-143095109D01*
X123097179Y-143220048D01*
X123097181Y-143220049D01*
X123097184Y-143220051D01*
X123286588Y-143316557D01*
X123488757Y-143382246D01*
X123698713Y-143415500D01*
X123698714Y-143415500D01*
X123911286Y-143415500D01*
X123911287Y-143415500D01*
X124121243Y-143382246D01*
X124323412Y-143316557D01*
X124512816Y-143220051D01*
X124534789Y-143204086D01*
X124684786Y-143095109D01*
X124684788Y-143095106D01*
X124684792Y-143095104D01*
X124835104Y-142944792D01*
X124954683Y-142780204D01*
X125010011Y-142737540D01*
X125079624Y-142731561D01*
X125141420Y-142764166D01*
X125155313Y-142780199D01*
X125257560Y-142920931D01*
X125274896Y-142944792D01*
X125425213Y-143095109D01*
X125597179Y-143220048D01*
X125597181Y-143220049D01*
X125597184Y-143220051D01*
X125786588Y-143316557D01*
X125988757Y-143382246D01*
X126198713Y-143415500D01*
X126198714Y-143415500D01*
X126411286Y-143415500D01*
X126411287Y-143415500D01*
X126621243Y-143382246D01*
X126823412Y-143316557D01*
X127012816Y-143220051D01*
X127034789Y-143204086D01*
X127184786Y-143095109D01*
X127184788Y-143095106D01*
X127184792Y-143095104D01*
X127335104Y-142944792D01*
X127335106Y-142944788D01*
X127335109Y-142944786D01*
X127460048Y-142772820D01*
X127460047Y-142772820D01*
X127460051Y-142772816D01*
X127556557Y-142583412D01*
X127622246Y-142381243D01*
X127655500Y-142171287D01*
X127655500Y-141708713D01*
X127622246Y-141498757D01*
X127556557Y-141296588D01*
X127460051Y-141107184D01*
X127460049Y-141107181D01*
X127460048Y-141107179D01*
X127335109Y-140935213D01*
X127184786Y-140784890D01*
X127012820Y-140659951D01*
X126823414Y-140563444D01*
X126823413Y-140563443D01*
X126823412Y-140563443D01*
X126621243Y-140497754D01*
X126621241Y-140497753D01*
X126621240Y-140497753D01*
X126459957Y-140472208D01*
X126411287Y-140464500D01*
X126198713Y-140464500D01*
X126150042Y-140472208D01*
X125988760Y-140497753D01*
X125786585Y-140563444D01*
X125597179Y-140659951D01*
X125425213Y-140784890D01*
X125274894Y-140935209D01*
X125274890Y-140935214D01*
X125155318Y-141099793D01*
X125099989Y-141142459D01*
X125030375Y-141148438D01*
X124968580Y-141115833D01*
X124954682Y-141099793D01*
X124835109Y-140935214D01*
X124835105Y-140935209D01*
X124684786Y-140784890D01*
X124512820Y-140659951D01*
X124323414Y-140563444D01*
X124323413Y-140563443D01*
X124323412Y-140563443D01*
X124121243Y-140497754D01*
X124121241Y-140497753D01*
X124121240Y-140497753D01*
X123959957Y-140472208D01*
X123911287Y-140464500D01*
X123698713Y-140464500D01*
X123650042Y-140472208D01*
X123488760Y-140497753D01*
X123286585Y-140563444D01*
X123097179Y-140659951D01*
X122925213Y-140784890D01*
X122774894Y-140935209D01*
X122774890Y-140935214D01*
X122655318Y-141099793D01*
X122599989Y-141142459D01*
X122530375Y-141148438D01*
X122468580Y-141115833D01*
X122454682Y-141099793D01*
X122335109Y-140935214D01*
X122335105Y-140935209D01*
X122184786Y-140784890D01*
X122012820Y-140659951D01*
X121823414Y-140563444D01*
X121823413Y-140563443D01*
X121823412Y-140563443D01*
X121621243Y-140497754D01*
X121621241Y-140497753D01*
X121621240Y-140497753D01*
X121459957Y-140472208D01*
X121411287Y-140464500D01*
X121198713Y-140464500D01*
X121150042Y-140472208D01*
X120988760Y-140497753D01*
X120786585Y-140563444D01*
X120597179Y-140659951D01*
X120425215Y-140784889D01*
X120286398Y-140923706D01*
X120225075Y-140957190D01*
X120155383Y-140952206D01*
X120099450Y-140910334D01*
X120093178Y-140901120D01*
X119997712Y-140746344D01*
X119873657Y-140622289D01*
X119873656Y-140622288D01*
X119724334Y-140530186D01*
X119557797Y-140475001D01*
X119557795Y-140475000D01*
X119455010Y-140464500D01*
X118154998Y-140464500D01*
X118154981Y-140464501D01*
X118052203Y-140475000D01*
X118052200Y-140475001D01*
X117885668Y-140530185D01*
X117885663Y-140530187D01*
X117736342Y-140622289D01*
X117612289Y-140746342D01*
X117520187Y-140895663D01*
X117520185Y-140895668D01*
X117516228Y-140907610D01*
X117465001Y-141062203D01*
X117465001Y-141062204D01*
X117465000Y-141062204D01*
X117454500Y-141164983D01*
X112010500Y-141164983D01*
X112010500Y-140345473D01*
X135649500Y-140345473D01*
X135649500Y-140589527D01*
X135687679Y-140830576D01*
X135763096Y-141062685D01*
X135815223Y-141164991D01*
X135873896Y-141280142D01*
X136017339Y-141477576D01*
X136017343Y-141477581D01*
X136189918Y-141650156D01*
X136189923Y-141650160D01*
X136270515Y-141708713D01*
X136387361Y-141793606D01*
X136604815Y-141904404D01*
X136836924Y-141979821D01*
X137077973Y-142018000D01*
X137077974Y-142018000D01*
X137322026Y-142018000D01*
X137322027Y-142018000D01*
X137563076Y-141979821D01*
X137795185Y-141904404D01*
X138012639Y-141793606D01*
X138210083Y-141650155D01*
X138382655Y-141477583D01*
X138526106Y-141280139D01*
X138636904Y-141062685D01*
X138712321Y-140830576D01*
X138750500Y-140589527D01*
X138750500Y-140345473D01*
X138712321Y-140104424D01*
X138636904Y-139872315D01*
X138526106Y-139654861D01*
X138526105Y-139654859D01*
X138498972Y-139617514D01*
X140650000Y-139617514D01*
X140650000Y-140217500D01*
X141709252Y-140217500D01*
X141687482Y-140255208D01*
X141650000Y-140395091D01*
X141650000Y-140539909D01*
X141687482Y-140679792D01*
X141709252Y-140717500D01*
X140650000Y-140717500D01*
X140650000Y-141317485D01*
X140660493Y-141420189D01*
X140660494Y-141420196D01*
X140715641Y-141586618D01*
X140715643Y-141586623D01*
X140807684Y-141735844D01*
X140931655Y-141859815D01*
X141080876Y-141951856D01*
X141080881Y-141951858D01*
X141247303Y-142007005D01*
X141247310Y-142007006D01*
X141350014Y-142017499D01*
X141350027Y-142017500D01*
X141950000Y-142017500D01*
X141950000Y-140958247D01*
X141987708Y-140980018D01*
X142127591Y-141017500D01*
X142272409Y-141017500D01*
X142412292Y-140980018D01*
X142450000Y-140958247D01*
X142450000Y-142017500D01*
X143049973Y-142017500D01*
X143049985Y-142017499D01*
X143152689Y-142007006D01*
X143152696Y-142007005D01*
X143319118Y-141951858D01*
X143319123Y-141951856D01*
X143468344Y-141859815D01*
X143592315Y-141735844D01*
X143684356Y-141586623D01*
X143684358Y-141586618D01*
X143739505Y-141420196D01*
X143739506Y-141420189D01*
X143749999Y-141317485D01*
X143750000Y-141317472D01*
X143750000Y-140717500D01*
X142690748Y-140717500D01*
X142712518Y-140679792D01*
X142750000Y-140539909D01*
X142750000Y-140395091D01*
X142712518Y-140255208D01*
X142690748Y-140217500D01*
X143750000Y-140217500D01*
X143750000Y-139617527D01*
X143749999Y-139617514D01*
X143739506Y-139514810D01*
X143739505Y-139514803D01*
X143684358Y-139348381D01*
X143684356Y-139348376D01*
X143592315Y-139199155D01*
X143468344Y-139075184D01*
X143319123Y-138983143D01*
X143319118Y-138983141D01*
X143152696Y-138927994D01*
X143152689Y-138927993D01*
X143049985Y-138917500D01*
X142450000Y-138917500D01*
X142450000Y-139976752D01*
X142412292Y-139954982D01*
X142272409Y-139917500D01*
X142127591Y-139917500D01*
X141987708Y-139954982D01*
X141950000Y-139976752D01*
X141950000Y-138917500D01*
X141350014Y-138917500D01*
X141247310Y-138927993D01*
X141247303Y-138927994D01*
X141080881Y-138983141D01*
X141080876Y-138983143D01*
X140931655Y-139075184D01*
X140807684Y-139199155D01*
X140715643Y-139348376D01*
X140715641Y-139348381D01*
X140660494Y-139514803D01*
X140660493Y-139514810D01*
X140650000Y-139617514D01*
X138498972Y-139617514D01*
X138382660Y-139457423D01*
X138382656Y-139457418D01*
X138210081Y-139284843D01*
X138210076Y-139284839D01*
X138012642Y-139141396D01*
X138012641Y-139141395D01*
X138012639Y-139141394D01*
X137795185Y-139030596D01*
X137563076Y-138955179D01*
X137563074Y-138955178D01*
X137563072Y-138955178D01*
X137391433Y-138927993D01*
X137322027Y-138917000D01*
X137077973Y-138917000D01*
X137022093Y-138925850D01*
X136836927Y-138955178D01*
X136604812Y-139030597D01*
X136387357Y-139141396D01*
X136189923Y-139284839D01*
X136189918Y-139284843D01*
X136017343Y-139457418D01*
X136017339Y-139457423D01*
X135873896Y-139654857D01*
X135763097Y-139872312D01*
X135687678Y-140104427D01*
X135683661Y-140129792D01*
X135649500Y-140345473D01*
X112010500Y-140345473D01*
X112010500Y-133150322D01*
X113337001Y-133150322D01*
X113347144Y-133249607D01*
X113400452Y-133410481D01*
X113400457Y-133410492D01*
X113489424Y-133554728D01*
X113489427Y-133554732D01*
X113609267Y-133674572D01*
X113609271Y-133674575D01*
X113753507Y-133763542D01*
X113753518Y-133763547D01*
X113914393Y-133816855D01*
X114013683Y-133826999D01*
X114037000Y-133826998D01*
X114037000Y-133102000D01*
X113337001Y-133102000D01*
X113337001Y-133150322D01*
X112010500Y-133150322D01*
X112010500Y-132553677D01*
X113337000Y-132553677D01*
X113337000Y-132602000D01*
X114037000Y-132602000D01*
X114037000Y-131876999D01*
X114013693Y-131877000D01*
X114013674Y-131877001D01*
X113914392Y-131887144D01*
X113753518Y-131940452D01*
X113753507Y-131940457D01*
X113609271Y-132029424D01*
X113609267Y-132029427D01*
X113489427Y-132149267D01*
X113489424Y-132149271D01*
X113400457Y-132293507D01*
X113400452Y-132293518D01*
X113347144Y-132454393D01*
X113337000Y-132553677D01*
X112010500Y-132553677D01*
X112010500Y-124946857D01*
X112030185Y-124879818D01*
X112082989Y-124834063D01*
X112152147Y-124824119D01*
X112215703Y-124853144D01*
X112222181Y-124859176D01*
X116753858Y-129390855D01*
X116753862Y-129390858D01*
X116856305Y-129459309D01*
X116856306Y-129459309D01*
X116856310Y-129459312D01*
X116922992Y-129486932D01*
X116970143Y-129506463D01*
X116990192Y-129510451D01*
X117051942Y-129522734D01*
X117090987Y-129530501D01*
X117090989Y-129530501D01*
X117220316Y-129530501D01*
X117220336Y-129530500D01*
X117727060Y-129530500D01*
X117794099Y-129550185D01*
X117839854Y-129602989D01*
X117849798Y-129672147D01*
X117820773Y-129735703D01*
X117814741Y-129742181D01*
X115716739Y-131840181D01*
X115655416Y-131873666D01*
X115629060Y-131876500D01*
X115563663Y-131876500D01*
X115563644Y-131876501D01*
X115464292Y-131886650D01*
X115464289Y-131886651D01*
X115303305Y-131939996D01*
X115303294Y-131940001D01*
X115158959Y-132029029D01*
X115158953Y-132029033D01*
X115149324Y-132038663D01*
X115088000Y-132072146D01*
X115018308Y-132067159D01*
X114973965Y-132038660D01*
X114964732Y-132029427D01*
X114964728Y-132029424D01*
X114820492Y-131940457D01*
X114820481Y-131940452D01*
X114659606Y-131887144D01*
X114560322Y-131877000D01*
X114537000Y-131877000D01*
X114537000Y-133826999D01*
X114560308Y-133826999D01*
X114560322Y-133826998D01*
X114659607Y-133816855D01*
X114820481Y-133763547D01*
X114820487Y-133763544D01*
X114847402Y-133746943D01*
X114914794Y-133728502D01*
X114981458Y-133749423D01*
X115026228Y-133803065D01*
X115036500Y-133852481D01*
X115036500Y-135282760D01*
X115016815Y-135349799D01*
X114964011Y-135395554D01*
X114894853Y-135405498D01*
X114831297Y-135376473D01*
X114824819Y-135370441D01*
X114822187Y-135367809D01*
X114707093Y-135281649D01*
X114707086Y-135281645D01*
X114572379Y-135231403D01*
X114572372Y-135231401D01*
X114512844Y-135225000D01*
X113915000Y-135225000D01*
X113915000Y-136209314D01*
X113910606Y-136204920D01*
X113819394Y-136152259D01*
X113717661Y-136125000D01*
X113612339Y-136125000D01*
X113510606Y-136152259D01*
X113419394Y-136204920D01*
X113415000Y-136209314D01*
X113415000Y-135225000D01*
X112817155Y-135225000D01*
X112757627Y-135231401D01*
X112757620Y-135231403D01*
X112622913Y-135281645D01*
X112622906Y-135281649D01*
X112507812Y-135367809D01*
X112507809Y-135367812D01*
X112421649Y-135482906D01*
X112421645Y-135482913D01*
X112371403Y-135617620D01*
X112371401Y-135617627D01*
X112365000Y-135677155D01*
X112365000Y-136275000D01*
X113349314Y-136275000D01*
X113344920Y-136279394D01*
X113292259Y-136370606D01*
X113265000Y-136472339D01*
X113265000Y-136577661D01*
X113292259Y-136679394D01*
X113344920Y-136770606D01*
X113349314Y-136775000D01*
X112365000Y-136775000D01*
X112365000Y-137372844D01*
X112371401Y-137432372D01*
X112371403Y-137432379D01*
X112421645Y-137567086D01*
X112421649Y-137567093D01*
X112507809Y-137682187D01*
X112507812Y-137682190D01*
X112622906Y-137768350D01*
X112622913Y-137768354D01*
X112757620Y-137818596D01*
X112757627Y-137818598D01*
X112817155Y-137824999D01*
X112817172Y-137825000D01*
X113415000Y-137825000D01*
X113415000Y-136840686D01*
X113419394Y-136845080D01*
X113510606Y-136897741D01*
X113612339Y-136925000D01*
X113717661Y-136925000D01*
X113819394Y-136897741D01*
X113910606Y-136845080D01*
X113915000Y-136840686D01*
X113915000Y-137825000D01*
X114512828Y-137825000D01*
X114512844Y-137824999D01*
X114572372Y-137818598D01*
X114572379Y-137818596D01*
X114707086Y-137768354D01*
X114707093Y-137768350D01*
X114822187Y-137682190D01*
X114822190Y-137682187D01*
X114908350Y-137567093D01*
X114908354Y-137567086D01*
X114958596Y-137432379D01*
X114962620Y-137394956D01*
X114989358Y-137330404D01*
X115046750Y-137290556D01*
X115116575Y-137288062D01*
X115176664Y-137323714D01*
X115186228Y-137335325D01*
X115213028Y-137372212D01*
X115213032Y-137372217D01*
X115357786Y-137516971D01*
X115472385Y-137600230D01*
X115523390Y-137637287D01*
X115611517Y-137682190D01*
X115705776Y-137730218D01*
X115705778Y-137730218D01*
X115705781Y-137730220D01*
X115810137Y-137764127D01*
X115900465Y-137793477D01*
X116001557Y-137809488D01*
X116102648Y-137825500D01*
X116102649Y-137825500D01*
X116307351Y-137825500D01*
X116307352Y-137825500D01*
X116509534Y-137793477D01*
X116704219Y-137730220D01*
X116886610Y-137637287D01*
X116983234Y-137567086D01*
X117052213Y-137516971D01*
X117052215Y-137516968D01*
X117052219Y-137516966D01*
X117196966Y-137372219D01*
X117196968Y-137372215D01*
X117196971Y-137372213D01*
X117317284Y-137206614D01*
X117317283Y-137206614D01*
X117317287Y-137206610D01*
X117364516Y-137113917D01*
X117412489Y-137063123D01*
X117480310Y-137046328D01*
X117546445Y-137068865D01*
X117585483Y-137113917D01*
X117629348Y-137200006D01*
X117632715Y-137206614D01*
X117753028Y-137372213D01*
X117897786Y-137516971D01*
X118012385Y-137600230D01*
X118063390Y-137637287D01*
X118151517Y-137682190D01*
X118245776Y-137730218D01*
X118245778Y-137730218D01*
X118245781Y-137730220D01*
X118350137Y-137764127D01*
X118440465Y-137793477D01*
X118541557Y-137809488D01*
X118642648Y-137825500D01*
X118642649Y-137825500D01*
X118847351Y-137825500D01*
X118847352Y-137825500D01*
X119049534Y-137793477D01*
X119244219Y-137730220D01*
X119426610Y-137637287D01*
X119523234Y-137567086D01*
X119592213Y-137516971D01*
X119592215Y-137516968D01*
X119592219Y-137516966D01*
X119736966Y-137372219D01*
X119736968Y-137372215D01*
X119736971Y-137372213D01*
X119857284Y-137206614D01*
X119857283Y-137206614D01*
X119857287Y-137206610D01*
X119904516Y-137113917D01*
X119952489Y-137063123D01*
X120020310Y-137046328D01*
X120086445Y-137068865D01*
X120125483Y-137113917D01*
X120169348Y-137200006D01*
X120172715Y-137206614D01*
X120293028Y-137372213D01*
X120437786Y-137516971D01*
X120552385Y-137600230D01*
X120603390Y-137637287D01*
X120691517Y-137682190D01*
X120785776Y-137730218D01*
X120785778Y-137730218D01*
X120785781Y-137730220D01*
X120890137Y-137764127D01*
X120980465Y-137793477D01*
X121081557Y-137809488D01*
X121182648Y-137825500D01*
X121182649Y-137825500D01*
X121387351Y-137825500D01*
X121387352Y-137825500D01*
X121589534Y-137793477D01*
X121784219Y-137730220D01*
X121966610Y-137637287D01*
X122063234Y-137567086D01*
X122132213Y-137516971D01*
X122132215Y-137516968D01*
X122132219Y-137516966D01*
X122276966Y-137372219D01*
X122276968Y-137372215D01*
X122276971Y-137372213D01*
X122397284Y-137206614D01*
X122397283Y-137206614D01*
X122397287Y-137206610D01*
X122444516Y-137113917D01*
X122492489Y-137063123D01*
X122560310Y-137046328D01*
X122626445Y-137068865D01*
X122665483Y-137113917D01*
X122709348Y-137200006D01*
X122712715Y-137206614D01*
X122833028Y-137372213D01*
X122977786Y-137516971D01*
X123092385Y-137600230D01*
X123143390Y-137637287D01*
X123231517Y-137682190D01*
X123325776Y-137730218D01*
X123325778Y-137730218D01*
X123325781Y-137730220D01*
X123430137Y-137764127D01*
X123520465Y-137793477D01*
X123621557Y-137809488D01*
X123722648Y-137825500D01*
X123722649Y-137825500D01*
X123927351Y-137825500D01*
X123927352Y-137825500D01*
X124129534Y-137793477D01*
X124324219Y-137730220D01*
X124506610Y-137637287D01*
X124603234Y-137567086D01*
X124672213Y-137516971D01*
X124672215Y-137516968D01*
X124672219Y-137516966D01*
X124816966Y-137372219D01*
X124816968Y-137372215D01*
X124816971Y-137372213D01*
X124937284Y-137206614D01*
X124937283Y-137206614D01*
X124937287Y-137206610D01*
X124984516Y-137113917D01*
X125032489Y-137063123D01*
X125100310Y-137046328D01*
X125166445Y-137068865D01*
X125205483Y-137113917D01*
X125249348Y-137200006D01*
X125252715Y-137206614D01*
X125373028Y-137372213D01*
X125517786Y-137516971D01*
X125632385Y-137600230D01*
X125683390Y-137637287D01*
X125771517Y-137682190D01*
X125865776Y-137730218D01*
X125865778Y-137730218D01*
X125865781Y-137730220D01*
X125970137Y-137764127D01*
X126060465Y-137793477D01*
X126161557Y-137809488D01*
X126262648Y-137825500D01*
X126262649Y-137825500D01*
X126467351Y-137825500D01*
X126467352Y-137825500D01*
X126669534Y-137793477D01*
X126864219Y-137730220D01*
X127046610Y-137637287D01*
X127143234Y-137567086D01*
X127212213Y-137516971D01*
X127212215Y-137516968D01*
X127212219Y-137516966D01*
X127356966Y-137372219D01*
X127356968Y-137372215D01*
X127356971Y-137372213D01*
X127477284Y-137206614D01*
X127477283Y-137206614D01*
X127477287Y-137206610D01*
X127524795Y-137113369D01*
X127572770Y-137062574D01*
X127640591Y-137045779D01*
X127706725Y-137068316D01*
X127745765Y-137113370D01*
X127793140Y-137206349D01*
X127913417Y-137371894D01*
X127913417Y-137371895D01*
X128058104Y-137516582D01*
X128223650Y-137636859D01*
X128405968Y-137729754D01*
X128600578Y-137792988D01*
X128655000Y-137801607D01*
X128655000Y-136840686D01*
X128659394Y-136845080D01*
X128750606Y-136897741D01*
X128852339Y-136925000D01*
X128957661Y-136925000D01*
X129059394Y-136897741D01*
X129150606Y-136845080D01*
X129155000Y-136840686D01*
X129155000Y-137801606D01*
X129209421Y-137792988D01*
X129404031Y-137729754D01*
X129586349Y-137636859D01*
X129751891Y-137516585D01*
X129865503Y-137402973D01*
X129926826Y-137369488D01*
X129996518Y-137374472D01*
X130052452Y-137416343D01*
X130053503Y-137417768D01*
X130064114Y-137432372D01*
X130186069Y-137600229D01*
X130369771Y-137783931D01*
X130579949Y-137936634D01*
X130727445Y-138011787D01*
X130811423Y-138054577D01*
X130811425Y-138054577D01*
X130811428Y-138054579D01*
X131058507Y-138134860D01*
X131190706Y-138155797D01*
X131315098Y-138175500D01*
X131315103Y-138175500D01*
X132049902Y-138175500D01*
X132192450Y-138152922D01*
X132306493Y-138134860D01*
X132453398Y-138087126D01*
X132492977Y-138074267D01*
X132492978Y-138074267D01*
X132536060Y-138060268D01*
X132553573Y-138054579D01*
X132785051Y-137936635D01*
X132995229Y-137783931D01*
X137362341Y-133416817D01*
X137423664Y-133383333D01*
X137450022Y-133380499D01*
X137915002Y-133380499D01*
X137915008Y-133380499D01*
X138017797Y-133369999D01*
X138184334Y-133314814D01*
X138333656Y-133222712D01*
X138457712Y-133098656D01*
X138549814Y-132949334D01*
X138604999Y-132782797D01*
X138615500Y-132680009D01*
X138615500Y-132679986D01*
X139515001Y-132679986D01*
X139525494Y-132782697D01*
X139580641Y-132949119D01*
X139580643Y-132949124D01*
X139672684Y-133098345D01*
X139796654Y-133222315D01*
X139945875Y-133314356D01*
X139945880Y-133314358D01*
X140112302Y-133369505D01*
X140112309Y-133369506D01*
X140215019Y-133379999D01*
X141514999Y-133379999D01*
X142015000Y-133379999D01*
X143314972Y-133379999D01*
X143314986Y-133379998D01*
X143417697Y-133369505D01*
X143584119Y-133314358D01*
X143584124Y-133314356D01*
X143733345Y-133222315D01*
X143857315Y-133098345D01*
X143949356Y-132949124D01*
X143949358Y-132949119D01*
X144004505Y-132782697D01*
X144004506Y-132782690D01*
X144014999Y-132679986D01*
X144015000Y-132679973D01*
X144015000Y-132330000D01*
X142015000Y-132330000D01*
X142015000Y-133379999D01*
X141514999Y-133379999D01*
X141515000Y-133379998D01*
X141515000Y-132330000D01*
X139515001Y-132330000D01*
X139515001Y-132679986D01*
X138615500Y-132679986D01*
X138615499Y-132072146D01*
X138615499Y-131480013D01*
X139515000Y-131480013D01*
X139515000Y-131830000D01*
X141515000Y-131830000D01*
X142015000Y-131830000D01*
X144014999Y-131830000D01*
X144014999Y-131480028D01*
X144014998Y-131480013D01*
X144004505Y-131377302D01*
X143949358Y-131210880D01*
X143949356Y-131210875D01*
X143857315Y-131061654D01*
X143733345Y-130937684D01*
X143584124Y-130845643D01*
X143584119Y-130845641D01*
X143417697Y-130790494D01*
X143417690Y-130790493D01*
X143314986Y-130780000D01*
X142015000Y-130780000D01*
X142015000Y-131830000D01*
X141515000Y-131830000D01*
X141515000Y-130780000D01*
X140215028Y-130780000D01*
X140215012Y-130780001D01*
X140112302Y-130790494D01*
X139945880Y-130845641D01*
X139945875Y-130845643D01*
X139796654Y-130937684D01*
X139672684Y-131061654D01*
X139580643Y-131210875D01*
X139580641Y-131210880D01*
X139525494Y-131377302D01*
X139525493Y-131377309D01*
X139515000Y-131480013D01*
X138615499Y-131480013D01*
X138615499Y-131479998D01*
X138615498Y-131479981D01*
X138604999Y-131377203D01*
X138604998Y-131377200D01*
X138549814Y-131210666D01*
X138457712Y-131061344D01*
X138333656Y-130937288D01*
X138184334Y-130845186D01*
X138017797Y-130790001D01*
X138017795Y-130790000D01*
X137915016Y-130779500D01*
X137915009Y-130779500D01*
X137450022Y-130779500D01*
X137425409Y-130772273D01*
X137399973Y-130768951D01*
X137389370Y-130761690D01*
X137382983Y-130759815D01*
X137370037Y-130750255D01*
X137366046Y-130746886D01*
X137300229Y-130681069D01*
X137212968Y-130617669D01*
X137209515Y-130614755D01*
X137192635Y-130589222D01*
X137173948Y-130564987D01*
X137172890Y-130559353D01*
X137170984Y-130556470D01*
X137170883Y-130548666D01*
X137165500Y-130520000D01*
X137165500Y-129318322D01*
X143805001Y-129318322D01*
X143815144Y-129417607D01*
X143868452Y-129578481D01*
X143868457Y-129578492D01*
X143957424Y-129722728D01*
X143957427Y-129722732D01*
X144077267Y-129842572D01*
X144077271Y-129842575D01*
X144221507Y-129931542D01*
X144221518Y-129931547D01*
X144382393Y-129984855D01*
X144481683Y-129994999D01*
X145030000Y-129994999D01*
X145078308Y-129994999D01*
X145078322Y-129994998D01*
X145177607Y-129984855D01*
X145338481Y-129931547D01*
X145338492Y-129931542D01*
X145482728Y-129842575D01*
X145482732Y-129842572D01*
X145602572Y-129722732D01*
X145602575Y-129722728D01*
X145691542Y-129578492D01*
X145691547Y-129578481D01*
X145744855Y-129417606D01*
X145754999Y-129318322D01*
X145755000Y-129318309D01*
X145755000Y-129295000D01*
X145030000Y-129295000D01*
X145030000Y-129994999D01*
X144481683Y-129994999D01*
X144529999Y-129994998D01*
X144530000Y-129994998D01*
X144530000Y-129295000D01*
X143805001Y-129295000D01*
X143805001Y-129318322D01*
X137165500Y-129318322D01*
X137165500Y-128869500D01*
X137185185Y-128802461D01*
X137237989Y-128756706D01*
X137289500Y-128745500D01*
X143704138Y-128745500D01*
X143771177Y-128765185D01*
X143791819Y-128781819D01*
X143805000Y-128795000D01*
X145754999Y-128795000D01*
X145754999Y-128771692D01*
X145754998Y-128771677D01*
X145744855Y-128672392D01*
X145691545Y-128511514D01*
X145682137Y-128496261D01*
X145663695Y-128428869D01*
X145684615Y-128362205D01*
X145699985Y-128343488D01*
X145733828Y-128309646D01*
X145849524Y-128150405D01*
X145938884Y-127975025D01*
X145999709Y-127787826D01*
X146010414Y-127720237D01*
X146030500Y-127593422D01*
X146030500Y-127396577D01*
X145999709Y-127202173D01*
X145971487Y-127115317D01*
X145938884Y-127014975D01*
X145938882Y-127014972D01*
X145938882Y-127014970D01*
X145891743Y-126922455D01*
X145849524Y-126839595D01*
X145733828Y-126680354D01*
X145594646Y-126541172D01*
X145435405Y-126425476D01*
X145300328Y-126356651D01*
X145249532Y-126308676D01*
X145232737Y-126240855D01*
X145255274Y-126174721D01*
X145309989Y-126131269D01*
X145317621Y-126128459D01*
X145338484Y-126121545D01*
X145338492Y-126121542D01*
X145482728Y-126032575D01*
X145482732Y-126032572D01*
X145602572Y-125912732D01*
X145602575Y-125912728D01*
X145691542Y-125768492D01*
X145691547Y-125768481D01*
X145744855Y-125607606D01*
X145754999Y-125508322D01*
X145755000Y-125508309D01*
X145755000Y-125485000D01*
X144904000Y-125485000D01*
X144836961Y-125465315D01*
X144791206Y-125412511D01*
X144780000Y-125361000D01*
X144780000Y-125109000D01*
X144799685Y-125041961D01*
X144852489Y-124996206D01*
X144904000Y-124985000D01*
X145754999Y-124985000D01*
X145754999Y-124961692D01*
X145754998Y-124961677D01*
X145744855Y-124862392D01*
X145691545Y-124701514D01*
X145682137Y-124686261D01*
X145663695Y-124618869D01*
X145684615Y-124552205D01*
X145699985Y-124533488D01*
X145733828Y-124499646D01*
X145849524Y-124340405D01*
X145938884Y-124165025D01*
X145999709Y-123977826D01*
X146001565Y-123966107D01*
X146030500Y-123783422D01*
X146030500Y-123586577D01*
X145999709Y-123392173D01*
X145960134Y-123270375D01*
X145938884Y-123204975D01*
X145938882Y-123204972D01*
X145938882Y-123204970D01*
X145849523Y-123029594D01*
X145838692Y-123014686D01*
X145733828Y-122870354D01*
X145594646Y-122731172D01*
X145435405Y-122615476D01*
X145422903Y-122609106D01*
X145260029Y-122526117D01*
X145072826Y-122465290D01*
X144878422Y-122434500D01*
X144878417Y-122434500D01*
X143589500Y-122434500D01*
X143522461Y-122414815D01*
X143476706Y-122362011D01*
X143465500Y-122310500D01*
X143465500Y-118203732D01*
X143485185Y-118136693D01*
X143537989Y-118090938D01*
X143550495Y-118086026D01*
X143584334Y-118074814D01*
X143733656Y-117982712D01*
X143857712Y-117858656D01*
X143949814Y-117709334D01*
X144004999Y-117542797D01*
X144015500Y-117440009D01*
X144015499Y-116239992D01*
X144008370Y-116170208D01*
X144004999Y-116137203D01*
X144004998Y-116137200D01*
X143957043Y-115992483D01*
X143949814Y-115970666D01*
X143857712Y-115821344D01*
X143850660Y-115814292D01*
X143817175Y-115752969D01*
X143822159Y-115683277D01*
X143850660Y-115638930D01*
X144169590Y-115320000D01*
X144460603Y-115028987D01*
X144521925Y-114995503D01*
X144591617Y-115000487D01*
X144647550Y-115042359D01*
X144671967Y-115107823D01*
X144668961Y-115145177D01*
X144668411Y-115147504D01*
X144668409Y-115147514D01*
X144668409Y-115147517D01*
X144662000Y-115207127D01*
X144662000Y-115207134D01*
X144662000Y-115207135D01*
X144662000Y-115932870D01*
X144662001Y-115932876D01*
X144668408Y-115992483D01*
X144718702Y-116127328D01*
X144718703Y-116127330D01*
X144764767Y-116188863D01*
X144789184Y-116254327D01*
X144789500Y-116263174D01*
X144789500Y-118456825D01*
X144769815Y-118523864D01*
X144764767Y-118531135D01*
X144718706Y-118592665D01*
X144718702Y-118592671D01*
X144668410Y-118727513D01*
X144668409Y-118727517D01*
X144662000Y-118787127D01*
X144662000Y-118787134D01*
X144662000Y-118787135D01*
X144662000Y-119512870D01*
X144662001Y-119512876D01*
X144668408Y-119572483D01*
X144718702Y-119707328D01*
X144718706Y-119707335D01*
X144804952Y-119822544D01*
X144804955Y-119822547D01*
X144920164Y-119908793D01*
X144920171Y-119908797D01*
X144965118Y-119925561D01*
X145055017Y-119959091D01*
X145114627Y-119965500D01*
X145715372Y-119965499D01*
X145774983Y-119959091D01*
X145909831Y-119908796D01*
X146025046Y-119822546D01*
X146111296Y-119707331D01*
X146161591Y-119572483D01*
X146168000Y-119512873D01*
X146168000Y-119512844D01*
X146712500Y-119512844D01*
X146718901Y-119572372D01*
X146718903Y-119572379D01*
X146769145Y-119707086D01*
X146769149Y-119707093D01*
X146855309Y-119822187D01*
X146855312Y-119822190D01*
X146970406Y-119908350D01*
X146970413Y-119908354D01*
X147105120Y-119958596D01*
X147105127Y-119958598D01*
X147164655Y-119964999D01*
X147164672Y-119965000D01*
X147215000Y-119965000D01*
X147215000Y-119400000D01*
X146712500Y-119400000D01*
X146712500Y-119512844D01*
X146168000Y-119512844D01*
X146167999Y-118787155D01*
X146712500Y-118787155D01*
X146712500Y-118900000D01*
X147215000Y-118900000D01*
X147215000Y-118335000D01*
X147164655Y-118335000D01*
X147105127Y-118341401D01*
X147105120Y-118341403D01*
X146970413Y-118391645D01*
X146970406Y-118391649D01*
X146855312Y-118477809D01*
X146855309Y-118477812D01*
X146769149Y-118592906D01*
X146769145Y-118592913D01*
X146718903Y-118727620D01*
X146718901Y-118727627D01*
X146712500Y-118787155D01*
X146167999Y-118787155D01*
X146167999Y-118787128D01*
X146161591Y-118727517D01*
X146154110Y-118707460D01*
X146111297Y-118592671D01*
X146111293Y-118592665D01*
X146065233Y-118531135D01*
X146040816Y-118465671D01*
X146040500Y-118456825D01*
X146040500Y-116263174D01*
X146060185Y-116196135D01*
X146065233Y-116188863D01*
X146079198Y-116170208D01*
X146111296Y-116127331D01*
X146161591Y-115992483D01*
X146168000Y-115932873D01*
X146168000Y-115932844D01*
X146715000Y-115932844D01*
X146721401Y-115992372D01*
X146721403Y-115992379D01*
X146771645Y-116127086D01*
X146771649Y-116127093D01*
X146857809Y-116242187D01*
X146857812Y-116242190D01*
X146972906Y-116328350D01*
X146972913Y-116328354D01*
X147107620Y-116378596D01*
X147107627Y-116378598D01*
X147167155Y-116384999D01*
X147167172Y-116385000D01*
X147216250Y-116385000D01*
X147216250Y-115820000D01*
X146715000Y-115820000D01*
X146715000Y-115932844D01*
X146168000Y-115932844D01*
X146167999Y-115550494D01*
X146167999Y-115207129D01*
X146167821Y-115203805D01*
X146167926Y-115203799D01*
X146167500Y-115195836D01*
X146167500Y-114891500D01*
X146187185Y-114824461D01*
X146239989Y-114778706D01*
X146291500Y-114767500D01*
X146623613Y-114767500D01*
X146623616Y-114767500D01*
X146694196Y-114761086D01*
X146694197Y-114761085D01*
X146700730Y-114760492D01*
X146700968Y-114763114D01*
X146758833Y-114768260D01*
X146814034Y-114811093D01*
X146837315Y-114876970D01*
X146821284Y-114944976D01*
X146812763Y-114957985D01*
X146771649Y-115012906D01*
X146771645Y-115012913D01*
X146721403Y-115147620D01*
X146721401Y-115147627D01*
X146715000Y-115207155D01*
X146715000Y-115320000D01*
X147216250Y-115320000D01*
X147216250Y-114755000D01*
X147169020Y-114755000D01*
X147101981Y-114735315D01*
X147056226Y-114682511D01*
X147046282Y-114613353D01*
X147075307Y-114549797D01*
X147081339Y-114543319D01*
X147122468Y-114502189D01*
X147122469Y-114502188D01*
X147122472Y-114502185D01*
X147210478Y-114356606D01*
X147261086Y-114194196D01*
X147267500Y-114123616D01*
X147267500Y-113460384D01*
X147261086Y-113389804D01*
X147210478Y-113227394D01*
X147122472Y-113081815D01*
X147122470Y-113081813D01*
X147122469Y-113081811D01*
X147002188Y-112961530D01*
X146856606Y-112873522D01*
X146694196Y-112822914D01*
X146694194Y-112822913D01*
X146694192Y-112822913D01*
X146644778Y-112818423D01*
X146623616Y-112816500D01*
X146623613Y-112816500D01*
X146291500Y-112816500D01*
X146224461Y-112796815D01*
X146178706Y-112744011D01*
X146167500Y-112692500D01*
X146167500Y-106935393D01*
X146167499Y-106935389D01*
X146143464Y-106814555D01*
X146143463Y-106814548D01*
X146096311Y-106700714D01*
X146096310Y-106700713D01*
X146096307Y-106700707D01*
X146027858Y-106598267D01*
X146027855Y-106598263D01*
X145937637Y-106508045D01*
X145937606Y-106508016D01*
X145767970Y-106338380D01*
X145734485Y-106277057D01*
X145739469Y-106207365D01*
X145781341Y-106151432D01*
X145843050Y-106127341D01*
X145872718Y-106124310D01*
X145901708Y-106121349D01*
X146062697Y-106068003D01*
X146207044Y-105978968D01*
X146216668Y-105969343D01*
X146277987Y-105935856D01*
X146347679Y-105940835D01*
X146392034Y-105969339D01*
X146401267Y-105978572D01*
X146401271Y-105978575D01*
X146545507Y-106067542D01*
X146545518Y-106067547D01*
X146706393Y-106120855D01*
X146805683Y-106130999D01*
X147329000Y-106130999D01*
X147352308Y-106130999D01*
X147352322Y-106130998D01*
X147451607Y-106120855D01*
X147612481Y-106067547D01*
X147612492Y-106067542D01*
X147756728Y-105978575D01*
X147756732Y-105978572D01*
X147876572Y-105858732D01*
X147876575Y-105858728D01*
X147965542Y-105714492D01*
X147965547Y-105714481D01*
X148018855Y-105553606D01*
X148028999Y-105454322D01*
X148029000Y-105454309D01*
X148029000Y-105406000D01*
X147329000Y-105406000D01*
X147329000Y-106130999D01*
X146805683Y-106130999D01*
X146829000Y-106130998D01*
X146829000Y-104906000D01*
X147329000Y-104906000D01*
X148028999Y-104906000D01*
X148028999Y-104857692D01*
X148028998Y-104857677D01*
X148018855Y-104758392D01*
X147965547Y-104597518D01*
X147965542Y-104597507D01*
X147876575Y-104453271D01*
X147876572Y-104453267D01*
X147756732Y-104333427D01*
X147756728Y-104333424D01*
X147612492Y-104244457D01*
X147612481Y-104244452D01*
X147451606Y-104191144D01*
X147352322Y-104181000D01*
X147329000Y-104181000D01*
X147329000Y-104906000D01*
X146829000Y-104906000D01*
X146829000Y-104180999D01*
X146805693Y-104181000D01*
X146805674Y-104181001D01*
X146706392Y-104191144D01*
X146545518Y-104244452D01*
X146545507Y-104244457D01*
X146401271Y-104333424D01*
X146401265Y-104333428D01*
X146392031Y-104342663D01*
X146330707Y-104376146D01*
X146261015Y-104371159D01*
X146216672Y-104342660D01*
X146207043Y-104333031D01*
X146207040Y-104333029D01*
X146062705Y-104244001D01*
X146062699Y-104243998D01*
X146062697Y-104243997D01*
X146043157Y-104237522D01*
X145901709Y-104190651D01*
X145802346Y-104180500D01*
X145255662Y-104180500D01*
X145255644Y-104180501D01*
X145156292Y-104190650D01*
X145156289Y-104190651D01*
X144995305Y-104243996D01*
X144995294Y-104244001D01*
X144850959Y-104333029D01*
X144850957Y-104333031D01*
X144731032Y-104452955D01*
X144731031Y-104452956D01*
X144719535Y-104471596D01*
X144667588Y-104518321D01*
X144613996Y-104530500D01*
X143941602Y-104530500D01*
X143874563Y-104510815D01*
X143835486Y-104470651D01*
X143820471Y-104445814D01*
X143820468Y-104445810D01*
X143700188Y-104325530D01*
X143687194Y-104317675D01*
X143554606Y-104237522D01*
X143392196Y-104186914D01*
X143392194Y-104186913D01*
X143392192Y-104186913D01*
X143342778Y-104182423D01*
X143321616Y-104180500D01*
X142808384Y-104180500D01*
X142789145Y-104182248D01*
X142737807Y-104186913D01*
X142575393Y-104237522D01*
X142429811Y-104325530D01*
X142429810Y-104325531D01*
X142327681Y-104427661D01*
X142266358Y-104461146D01*
X142196666Y-104456162D01*
X142152319Y-104427661D01*
X142050188Y-104325530D01*
X142037194Y-104317675D01*
X141904606Y-104237522D01*
X141742196Y-104186914D01*
X141742194Y-104186913D01*
X141742192Y-104186913D01*
X141692778Y-104182423D01*
X141671616Y-104180500D01*
X141671613Y-104180500D01*
X141375453Y-104180500D01*
X141308414Y-104160815D01*
X141287772Y-104144181D01*
X136124744Y-98981153D01*
X138137500Y-98981153D01*
X138137500Y-99138846D01*
X138168261Y-99293489D01*
X138168264Y-99293501D01*
X138228602Y-99439172D01*
X138228609Y-99439185D01*
X138316210Y-99570288D01*
X138316213Y-99570292D01*
X138427707Y-99681786D01*
X138427711Y-99681789D01*
X138558814Y-99769390D01*
X138558827Y-99769397D01*
X138704498Y-99829735D01*
X138704503Y-99829737D01*
X138859153Y-99860499D01*
X138859156Y-99860500D01*
X138859158Y-99860500D01*
X139016844Y-99860500D01*
X139016845Y-99860499D01*
X139171497Y-99829737D01*
X139315260Y-99770189D01*
X139317172Y-99769397D01*
X139317172Y-99769396D01*
X139317179Y-99769394D01*
X139411459Y-99706398D01*
X139478136Y-99685520D01*
X139480350Y-99685500D01*
X139776398Y-99685500D01*
X139843437Y-99705185D01*
X139882514Y-99745349D01*
X139897528Y-99770185D01*
X139897531Y-99770189D01*
X140017811Y-99890469D01*
X140017813Y-99890470D01*
X140017815Y-99890472D01*
X140163394Y-99978478D01*
X140325804Y-100029086D01*
X140396384Y-100035500D01*
X140396387Y-100035500D01*
X140909613Y-100035500D01*
X140909616Y-100035500D01*
X140980196Y-100029086D01*
X141142606Y-99978478D01*
X141288185Y-99890472D01*
X141331571Y-99847086D01*
X141390319Y-99788339D01*
X141451642Y-99754854D01*
X141521334Y-99759838D01*
X141565681Y-99788339D01*
X141667811Y-99890469D01*
X141667813Y-99890470D01*
X141667815Y-99890472D01*
X141813394Y-99978478D01*
X141975804Y-100029086D01*
X142046384Y-100035500D01*
X142046387Y-100035500D01*
X142559613Y-100035500D01*
X142559616Y-100035500D01*
X142630196Y-100029086D01*
X142792606Y-99978478D01*
X142938185Y-99890472D01*
X143058472Y-99770185D01*
X143073486Y-99745349D01*
X143125014Y-99698162D01*
X143179602Y-99685500D01*
X144427250Y-99685500D01*
X144440589Y-99689416D01*
X144454462Y-99688523D01*
X144473451Y-99699066D01*
X144494289Y-99705185D01*
X144504643Y-99716384D01*
X144515547Y-99722439D01*
X144527346Y-99740943D01*
X144536498Y-99750842D01*
X144540486Y-99758270D01*
X144573704Y-99847331D01*
X144625342Y-99916310D01*
X144629748Y-99924516D01*
X144635095Y-99949961D01*
X144644184Y-99974327D01*
X144644500Y-99983174D01*
X144644500Y-102176825D01*
X144624815Y-102243864D01*
X144619767Y-102251135D01*
X144573706Y-102312665D01*
X144573702Y-102312671D01*
X144523410Y-102447513D01*
X144523409Y-102447517D01*
X144517000Y-102507127D01*
X144517000Y-102507134D01*
X144517000Y-102507135D01*
X144517000Y-103232870D01*
X144517001Y-103232876D01*
X144523408Y-103292483D01*
X144573702Y-103427328D01*
X144573706Y-103427335D01*
X144659952Y-103542544D01*
X144659955Y-103542547D01*
X144775164Y-103628793D01*
X144775171Y-103628797D01*
X144820118Y-103645561D01*
X144910017Y-103679091D01*
X144969627Y-103685500D01*
X145567872Y-103685499D01*
X145627483Y-103679091D01*
X145762331Y-103628796D01*
X145877546Y-103542546D01*
X145963796Y-103427331D01*
X146014091Y-103292483D01*
X146020500Y-103232873D01*
X146020500Y-103232844D01*
X146567500Y-103232844D01*
X146573901Y-103292372D01*
X146573903Y-103292379D01*
X146624145Y-103427086D01*
X146624149Y-103427093D01*
X146710309Y-103542187D01*
X146710312Y-103542190D01*
X146825406Y-103628350D01*
X146825413Y-103628354D01*
X146960120Y-103678596D01*
X146960127Y-103678598D01*
X147019655Y-103684999D01*
X147019672Y-103685000D01*
X147070000Y-103685000D01*
X147570000Y-103685000D01*
X147620328Y-103685000D01*
X147620344Y-103684999D01*
X147679872Y-103678598D01*
X147679879Y-103678596D01*
X147814586Y-103628354D01*
X147814593Y-103628350D01*
X147929687Y-103542190D01*
X147929690Y-103542187D01*
X148015850Y-103427093D01*
X148015854Y-103427086D01*
X148066096Y-103292379D01*
X148066098Y-103292372D01*
X148072499Y-103232844D01*
X148072500Y-103232827D01*
X148072500Y-103120000D01*
X147570000Y-103120000D01*
X147570000Y-103685000D01*
X147070000Y-103685000D01*
X147070000Y-103120000D01*
X146567500Y-103120000D01*
X146567500Y-103232844D01*
X146020500Y-103232844D01*
X146020499Y-102845971D01*
X146020499Y-102507155D01*
X146567500Y-102507155D01*
X146567500Y-102620000D01*
X147070000Y-102620000D01*
X147570000Y-102620000D01*
X148072500Y-102620000D01*
X148072500Y-102507172D01*
X148072499Y-102507155D01*
X148066098Y-102447627D01*
X148066096Y-102447620D01*
X148015854Y-102312913D01*
X148015850Y-102312906D01*
X147929690Y-102197812D01*
X147929687Y-102197809D01*
X147814593Y-102111649D01*
X147814586Y-102111645D01*
X147679879Y-102061403D01*
X147679872Y-102061401D01*
X147620344Y-102055000D01*
X147570000Y-102055000D01*
X147570000Y-102620000D01*
X147070000Y-102620000D01*
X147070000Y-102055000D01*
X147019655Y-102055000D01*
X146960127Y-102061401D01*
X146960120Y-102061403D01*
X146825413Y-102111645D01*
X146825406Y-102111649D01*
X146710312Y-102197809D01*
X146710309Y-102197812D01*
X146624149Y-102312906D01*
X146624145Y-102312913D01*
X146573903Y-102447620D01*
X146573901Y-102447627D01*
X146567500Y-102507155D01*
X146020499Y-102507155D01*
X146020499Y-102507129D01*
X146020498Y-102507123D01*
X146014091Y-102447516D01*
X145963797Y-102312671D01*
X145963795Y-102312668D01*
X145920233Y-102254476D01*
X145895816Y-102189011D01*
X145895500Y-102180165D01*
X145895500Y-99983174D01*
X145915185Y-99916135D01*
X145920233Y-99908863D01*
X145966296Y-99847331D01*
X146016591Y-99712483D01*
X146023000Y-99652873D01*
X146023000Y-99652844D01*
X146567500Y-99652844D01*
X146573901Y-99712372D01*
X146573903Y-99712379D01*
X146624145Y-99847086D01*
X146624149Y-99847093D01*
X146710309Y-99962187D01*
X146710312Y-99962190D01*
X146825406Y-100048350D01*
X146825413Y-100048354D01*
X146960120Y-100098596D01*
X146960127Y-100098598D01*
X147019655Y-100104999D01*
X147019672Y-100105000D01*
X147070000Y-100105000D01*
X147570000Y-100105000D01*
X147620328Y-100105000D01*
X147620344Y-100104999D01*
X147679872Y-100098598D01*
X147679879Y-100098596D01*
X147814586Y-100048354D01*
X147814593Y-100048350D01*
X147929687Y-99962190D01*
X147929690Y-99962187D01*
X148015850Y-99847093D01*
X148015854Y-99847086D01*
X148066096Y-99712379D01*
X148066098Y-99712372D01*
X148072499Y-99652844D01*
X148072500Y-99652827D01*
X148072500Y-99540000D01*
X147570000Y-99540000D01*
X147570000Y-100105000D01*
X147070000Y-100105000D01*
X147070000Y-99540000D01*
X146567500Y-99540000D01*
X146567500Y-99652844D01*
X146023000Y-99652844D01*
X146022999Y-99455161D01*
X146042684Y-99388123D01*
X146043868Y-99386315D01*
X146083311Y-99327286D01*
X146130463Y-99213452D01*
X146154500Y-99092606D01*
X146154500Y-98927155D01*
X146567500Y-98927155D01*
X146567500Y-99040000D01*
X147070000Y-99040000D01*
X147570000Y-99040000D01*
X148072500Y-99040000D01*
X148072500Y-98927172D01*
X148072499Y-98927155D01*
X148066098Y-98867627D01*
X148066096Y-98867620D01*
X148015854Y-98732913D01*
X148015850Y-98732906D01*
X147929690Y-98617812D01*
X147929687Y-98617809D01*
X147814593Y-98531649D01*
X147814586Y-98531645D01*
X147679879Y-98481403D01*
X147679872Y-98481401D01*
X147620344Y-98475000D01*
X147570000Y-98475000D01*
X147570000Y-99040000D01*
X147070000Y-99040000D01*
X147070000Y-98475000D01*
X147019655Y-98475000D01*
X146960127Y-98481401D01*
X146960117Y-98481403D01*
X146927204Y-98493678D01*
X146927202Y-98493680D01*
X146917831Y-98497176D01*
X146917823Y-98497179D01*
X146825411Y-98531646D01*
X146825406Y-98531649D01*
X146710312Y-98617809D01*
X146710309Y-98617812D01*
X146624149Y-98732906D01*
X146624145Y-98732913D01*
X146573903Y-98867620D01*
X146573901Y-98867627D01*
X146567500Y-98927155D01*
X146154500Y-98927155D01*
X146154500Y-98206546D01*
X146163930Y-98174430D01*
X146172584Y-98142065D01*
X146173856Y-98140626D01*
X146174185Y-98139508D01*
X146195041Y-98114837D01*
X146203449Y-98107185D01*
X146207044Y-98104968D01*
X146218759Y-98093252D01*
X146220894Y-98091310D01*
X146249799Y-98077249D01*
X146277987Y-98061856D01*
X146281003Y-98062071D01*
X146283725Y-98060748D01*
X146315626Y-98064545D01*
X146347679Y-98066835D01*
X146350591Y-98068706D01*
X146353105Y-98069006D01*
X146360329Y-98074964D01*
X146392034Y-98095339D01*
X146401267Y-98104572D01*
X146401271Y-98104575D01*
X146545507Y-98193542D01*
X146545518Y-98193547D01*
X146706393Y-98246855D01*
X146805683Y-98256999D01*
X147329000Y-98256999D01*
X147352308Y-98256999D01*
X147352322Y-98256998D01*
X147451608Y-98246855D01*
X147473238Y-98239688D01*
X147473242Y-98239686D01*
X147492536Y-98233293D01*
X147492537Y-98233292D01*
X147612481Y-98193547D01*
X147612492Y-98193542D01*
X147756728Y-98104575D01*
X147756732Y-98104572D01*
X147876572Y-97984732D01*
X147876575Y-97984728D01*
X147965542Y-97840492D01*
X147965547Y-97840481D01*
X148018855Y-97679606D01*
X148028999Y-97580322D01*
X148029000Y-97580309D01*
X148029000Y-97532000D01*
X147329000Y-97532000D01*
X147329000Y-98256999D01*
X146805683Y-98256999D01*
X146828998Y-98256998D01*
X146829000Y-98256997D01*
X146829000Y-97032000D01*
X147329000Y-97032000D01*
X148028999Y-97032000D01*
X148028999Y-96983692D01*
X148028998Y-96983677D01*
X148018855Y-96884392D01*
X147965547Y-96723518D01*
X147965542Y-96723507D01*
X147876575Y-96579271D01*
X147876572Y-96579267D01*
X147756732Y-96459427D01*
X147756728Y-96459424D01*
X147612492Y-96370457D01*
X147612481Y-96370452D01*
X147451606Y-96317144D01*
X147352322Y-96307000D01*
X147329000Y-96307000D01*
X147329000Y-97032000D01*
X146829000Y-97032000D01*
X146829000Y-96306999D01*
X146805693Y-96307000D01*
X146805674Y-96307001D01*
X146706392Y-96317144D01*
X146545518Y-96370452D01*
X146545507Y-96370457D01*
X146401271Y-96459424D01*
X146401265Y-96459428D01*
X146392031Y-96468663D01*
X146330707Y-96502146D01*
X146261015Y-96497159D01*
X146216672Y-96468660D01*
X146207044Y-96459032D01*
X146207040Y-96459029D01*
X146062705Y-96370001D01*
X146062699Y-96369998D01*
X146062697Y-96369997D01*
X146062694Y-96369996D01*
X145901709Y-96316651D01*
X145802346Y-96306500D01*
X145255662Y-96306500D01*
X145255644Y-96306501D01*
X145156292Y-96316650D01*
X145156289Y-96316651D01*
X144995305Y-96369996D01*
X144995294Y-96370001D01*
X144850959Y-96459029D01*
X144850955Y-96459032D01*
X144731032Y-96578955D01*
X144731029Y-96578959D01*
X144642001Y-96723294D01*
X144641996Y-96723305D01*
X144588651Y-96884290D01*
X144578500Y-96983647D01*
X144578500Y-97580337D01*
X144578501Y-97580355D01*
X144588650Y-97679707D01*
X144588651Y-97679710D01*
X144641996Y-97840694D01*
X144642001Y-97840705D01*
X144731029Y-97985040D01*
X144731032Y-97985044D01*
X144850956Y-98104968D01*
X144850963Y-98104972D01*
X144856404Y-98109274D01*
X144858074Y-98111632D01*
X144860703Y-98112833D01*
X144878140Y-98139966D01*
X144896785Y-98166293D01*
X144897389Y-98169919D01*
X144898477Y-98171611D01*
X144903500Y-98206546D01*
X144903500Y-98310500D01*
X144883815Y-98377539D01*
X144831011Y-98423294D01*
X144779500Y-98434500D01*
X143179602Y-98434500D01*
X143112563Y-98414815D01*
X143073486Y-98374651D01*
X143058950Y-98350606D01*
X143058472Y-98349815D01*
X143058471Y-98349814D01*
X143058468Y-98349810D01*
X142938188Y-98229530D01*
X142892173Y-98201713D01*
X142792606Y-98141522D01*
X142630196Y-98090914D01*
X142630194Y-98090913D01*
X142630192Y-98090913D01*
X142580778Y-98086423D01*
X142559616Y-98084500D01*
X142046384Y-98084500D01*
X142027145Y-98086248D01*
X141975807Y-98090913D01*
X141813393Y-98141522D01*
X141667811Y-98229530D01*
X141667810Y-98229531D01*
X141565681Y-98331661D01*
X141504358Y-98365146D01*
X141434666Y-98360162D01*
X141390319Y-98331661D01*
X141288188Y-98229530D01*
X141242173Y-98201713D01*
X141142606Y-98141522D01*
X140980196Y-98090914D01*
X140980194Y-98090913D01*
X140980192Y-98090913D01*
X140930778Y-98086423D01*
X140909616Y-98084500D01*
X140396384Y-98084500D01*
X140377145Y-98086248D01*
X140325807Y-98090913D01*
X140163393Y-98141522D01*
X140017811Y-98229530D01*
X139897531Y-98349810D01*
X139897528Y-98349814D01*
X139882514Y-98374651D01*
X139830986Y-98421838D01*
X139776398Y-98434500D01*
X139480350Y-98434500D01*
X139413311Y-98414815D01*
X139411459Y-98413602D01*
X139317184Y-98350609D01*
X139317172Y-98350602D01*
X139171501Y-98290264D01*
X139171489Y-98290261D01*
X139016845Y-98259500D01*
X139016842Y-98259500D01*
X138859158Y-98259500D01*
X138859155Y-98259500D01*
X138704510Y-98290261D01*
X138704498Y-98290264D01*
X138558827Y-98350602D01*
X138558814Y-98350609D01*
X138427711Y-98438210D01*
X138427707Y-98438213D01*
X138316213Y-98549707D01*
X138316210Y-98549711D01*
X138228609Y-98680814D01*
X138228602Y-98680827D01*
X138168264Y-98826498D01*
X138168261Y-98826510D01*
X138137500Y-98981153D01*
X136124744Y-98981153D01*
X135789819Y-98646228D01*
X135756334Y-98584905D01*
X135753500Y-98558547D01*
X135753500Y-94522350D01*
X135773185Y-94455311D01*
X135774398Y-94453459D01*
X135774809Y-94452843D01*
X135837394Y-94359179D01*
X135897737Y-94213497D01*
X135928500Y-94058842D01*
X135928500Y-93901158D01*
X135928500Y-93901155D01*
X135928499Y-93901153D01*
X135922720Y-93872099D01*
X135897737Y-93746503D01*
X135840733Y-93608882D01*
X135837397Y-93600827D01*
X135837390Y-93600814D01*
X135749789Y-93469711D01*
X135749786Y-93469707D01*
X135638292Y-93358213D01*
X135638288Y-93358210D01*
X135507185Y-93270609D01*
X135507175Y-93270604D01*
X135464651Y-93252990D01*
X135410248Y-93209149D01*
X135388183Y-93142855D01*
X135405462Y-93075155D01*
X135424419Y-93050752D01*
X140986857Y-87488316D01*
X140999455Y-87469463D01*
X141055311Y-87385868D01*
X141102463Y-87272034D01*
X141107088Y-87248778D01*
X141111756Y-87225315D01*
X141111756Y-87225312D01*
X141126500Y-87151189D01*
X141126500Y-87027976D01*
X141126500Y-76954084D01*
X141102463Y-76833238D01*
X141078947Y-76776465D01*
X141055312Y-76719404D01*
X141010640Y-76652549D01*
X140986858Y-76616957D01*
X140986856Y-76616954D01*
X140896637Y-76526735D01*
X140896606Y-76526706D01*
X140362787Y-75992887D01*
X140329302Y-75931564D01*
X140326468Y-75905206D01*
X140326468Y-75384297D01*
X140330054Y-75372082D01*
X140328994Y-75359397D01*
X140339710Y-75339197D01*
X140346153Y-75317258D01*
X140355773Y-75308921D01*
X140361740Y-75297676D01*
X140381676Y-75286476D01*
X140398957Y-75271503D01*
X140412995Y-75268883D01*
X140422656Y-75263456D01*
X140451799Y-75261641D01*
X140457827Y-75260516D01*
X140460457Y-75260672D01*
X140556655Y-75270500D01*
X140625741Y-75270499D01*
X140629418Y-75270718D01*
X140658968Y-75281336D01*
X140689097Y-75290183D01*
X140693532Y-75293757D01*
X140695171Y-75294346D01*
X140696643Y-75296263D01*
X140709740Y-75306818D01*
X141605211Y-76202289D01*
X141665183Y-76262261D01*
X141716712Y-76313790D01*
X141847816Y-76401391D01*
X141847817Y-76401391D01*
X141847821Y-76401394D01*
X141932013Y-76436267D01*
X141993502Y-76461737D01*
X142133075Y-76489500D01*
X142148152Y-76492499D01*
X142148155Y-76492500D01*
X142148157Y-76492500D01*
X142148158Y-76492500D01*
X145153106Y-76492500D01*
X145220145Y-76512185D01*
X145253422Y-76543612D01*
X145273896Y-76571792D01*
X145273898Y-76571794D01*
X145424213Y-76722109D01*
X145596182Y-76847050D01*
X145604946Y-76851516D01*
X145655742Y-76899491D01*
X145672536Y-76967312D01*
X145649998Y-77033447D01*
X145604946Y-77072484D01*
X145596182Y-77076949D01*
X145424213Y-77201890D01*
X145273890Y-77352213D01*
X145148951Y-77524179D01*
X145052444Y-77713585D01*
X145052443Y-77713587D01*
X145052443Y-77713588D01*
X145035053Y-77767110D01*
X144986753Y-77915760D01*
X144953500Y-78125713D01*
X144953500Y-78338286D01*
X144984280Y-78532627D01*
X144986754Y-78548243D01*
X145047435Y-78735000D01*
X145052444Y-78750414D01*
X145148951Y-78939820D01*
X145273890Y-79111786D01*
X145424213Y-79262109D01*
X145596182Y-79387050D01*
X145604946Y-79391516D01*
X145655742Y-79439491D01*
X145672536Y-79507312D01*
X145649998Y-79573447D01*
X145604946Y-79612484D01*
X145596182Y-79616949D01*
X145424213Y-79741890D01*
X145273890Y-79892213D01*
X145148951Y-80064179D01*
X145052444Y-80253585D01*
X144986753Y-80455760D01*
X144953500Y-80665713D01*
X144953500Y-80878286D01*
X144976263Y-81022010D01*
X144986754Y-81088243D01*
X145047435Y-81275000D01*
X145052444Y-81290414D01*
X145148951Y-81479820D01*
X145273890Y-81651786D01*
X145424213Y-81802109D01*
X145596182Y-81927050D01*
X145604946Y-81931516D01*
X145655742Y-81979491D01*
X145672536Y-82047312D01*
X145649998Y-82113447D01*
X145604946Y-82152484D01*
X145596182Y-82156949D01*
X145424213Y-82281890D01*
X145273890Y-82432213D01*
X145148951Y-82604179D01*
X145052444Y-82793585D01*
X144986753Y-82995760D01*
X144953500Y-83205713D01*
X144953500Y-83418286D01*
X144984657Y-83615008D01*
X144986754Y-83628243D01*
X145050336Y-83823928D01*
X145052444Y-83830414D01*
X145148951Y-84019820D01*
X145273890Y-84191786D01*
X145424213Y-84342109D01*
X145596182Y-84467050D01*
X145604946Y-84471516D01*
X145655742Y-84519491D01*
X145672536Y-84587312D01*
X145649998Y-84653447D01*
X145604946Y-84692484D01*
X145596182Y-84696949D01*
X145424213Y-84821890D01*
X145273890Y-84972213D01*
X145148951Y-85144179D01*
X145052444Y-85333585D01*
X144986753Y-85535760D01*
X144958873Y-85711789D01*
X144953500Y-85745713D01*
X144953500Y-85958287D01*
X144963534Y-86021644D01*
X144985227Y-86158606D01*
X144986754Y-86168243D01*
X145048316Y-86357711D01*
X145052444Y-86370414D01*
X145148951Y-86559820D01*
X145273890Y-86731786D01*
X145424213Y-86882109D01*
X145596182Y-87007050D01*
X145604946Y-87011516D01*
X145655742Y-87059491D01*
X145672536Y-87127312D01*
X145649998Y-87193447D01*
X145604946Y-87232484D01*
X145596182Y-87236949D01*
X145424213Y-87361890D01*
X145273890Y-87512213D01*
X145148951Y-87684179D01*
X145052444Y-87873585D01*
X144986753Y-88075760D01*
X144953500Y-88285713D01*
X144953500Y-88498286D01*
X144986753Y-88708239D01*
X145052444Y-88910414D01*
X145148951Y-89099820D01*
X145273890Y-89271786D01*
X145424213Y-89422109D01*
X145596182Y-89547050D01*
X145604946Y-89551516D01*
X145655742Y-89599491D01*
X145672536Y-89667312D01*
X145649998Y-89733447D01*
X145604946Y-89772484D01*
X145596182Y-89776949D01*
X145424213Y-89901890D01*
X145273890Y-90052213D01*
X145148951Y-90224179D01*
X145052444Y-90413585D01*
X144986753Y-90615760D01*
X144953500Y-90825713D01*
X144953500Y-91038286D01*
X144984260Y-91232501D01*
X144986754Y-91248243D01*
X145045860Y-91430153D01*
X145052444Y-91450414D01*
X145148951Y-91639820D01*
X145273890Y-91811786D01*
X145387818Y-91925714D01*
X145421303Y-91987037D01*
X145416319Y-92056729D01*
X145374447Y-92112662D01*
X145343471Y-92129577D01*
X145211912Y-92178646D01*
X145211906Y-92178649D01*
X145096812Y-92264809D01*
X145096809Y-92264812D01*
X145010649Y-92379906D01*
X145010645Y-92379913D01*
X144960403Y-92514620D01*
X144960401Y-92514627D01*
X144954000Y-92574155D01*
X144954000Y-93222000D01*
X145870988Y-93222000D01*
X145838075Y-93279007D01*
X145804000Y-93406174D01*
X145804000Y-93537826D01*
X145838075Y-93664993D01*
X145870988Y-93722000D01*
X144954000Y-93722000D01*
X144954000Y-94369844D01*
X144960401Y-94429372D01*
X144960403Y-94429379D01*
X145010645Y-94564086D01*
X145010649Y-94564093D01*
X145096809Y-94679187D01*
X145096812Y-94679190D01*
X145211906Y-94765350D01*
X145211913Y-94765354D01*
X145346620Y-94815596D01*
X145346627Y-94815598D01*
X145406155Y-94821999D01*
X145406172Y-94822000D01*
X146054000Y-94822000D01*
X146054000Y-93905012D01*
X146111007Y-93937925D01*
X146238174Y-93972000D01*
X146369826Y-93972000D01*
X146496993Y-93937925D01*
X146554000Y-93905012D01*
X146554000Y-94822000D01*
X147201828Y-94822000D01*
X147201844Y-94821999D01*
X147261372Y-94815598D01*
X147261379Y-94815596D01*
X147396086Y-94765354D01*
X147396093Y-94765350D01*
X147511187Y-94679190D01*
X147511190Y-94679187D01*
X147597350Y-94564093D01*
X147597354Y-94564086D01*
X147647596Y-94429379D01*
X147647598Y-94429372D01*
X147653999Y-94369844D01*
X147654000Y-94369827D01*
X147654000Y-93722000D01*
X146737012Y-93722000D01*
X146769925Y-93664993D01*
X146804000Y-93537826D01*
X146804000Y-93406174D01*
X146769925Y-93279007D01*
X146737012Y-93222000D01*
X147654000Y-93222000D01*
X147654000Y-92574172D01*
X147653999Y-92574155D01*
X147647598Y-92514627D01*
X147647596Y-92514620D01*
X147597354Y-92379913D01*
X147597350Y-92379906D01*
X147511190Y-92264812D01*
X147511187Y-92264809D01*
X147396093Y-92178649D01*
X147396088Y-92178646D01*
X147264528Y-92129577D01*
X147208595Y-92087705D01*
X147184178Y-92022241D01*
X147199030Y-91953968D01*
X147220175Y-91925720D01*
X147334104Y-91811792D01*
X147387468Y-91738343D01*
X147434586Y-91673489D01*
X147459051Y-91639816D01*
X147555557Y-91450412D01*
X147621246Y-91248243D01*
X147654500Y-91038287D01*
X147654500Y-90825713D01*
X147621246Y-90615757D01*
X147555557Y-90413588D01*
X147459051Y-90224184D01*
X147459049Y-90224181D01*
X147459048Y-90224179D01*
X147334109Y-90052213D01*
X147183786Y-89901890D01*
X147011820Y-89776951D01*
X147011115Y-89776591D01*
X147003054Y-89772485D01*
X146952259Y-89724512D01*
X146935463Y-89656692D01*
X146957999Y-89590556D01*
X147003054Y-89551515D01*
X147011816Y-89547051D01*
X147033789Y-89531086D01*
X147183786Y-89422109D01*
X147183788Y-89422106D01*
X147183792Y-89422104D01*
X147334104Y-89271792D01*
X147334106Y-89271788D01*
X147334109Y-89271786D01*
X147459048Y-89099820D01*
X147459047Y-89099820D01*
X147459051Y-89099816D01*
X147555557Y-88910412D01*
X147621246Y-88708243D01*
X147654500Y-88498287D01*
X147654500Y-88285713D01*
X147621246Y-88075757D01*
X147555557Y-87873588D01*
X147459051Y-87684184D01*
X147459049Y-87684181D01*
X147459048Y-87684179D01*
X147334109Y-87512213D01*
X147183786Y-87361890D01*
X147011820Y-87236951D01*
X147011115Y-87236591D01*
X147003054Y-87232485D01*
X146952259Y-87184512D01*
X146935463Y-87116692D01*
X146957999Y-87050556D01*
X147003054Y-87011515D01*
X147011816Y-87007051D01*
X147094682Y-86946846D01*
X147183786Y-86882109D01*
X147183788Y-86882106D01*
X147183792Y-86882104D01*
X147334104Y-86731792D01*
X147334106Y-86731788D01*
X147334109Y-86731786D01*
X147459048Y-86559820D01*
X147459047Y-86559820D01*
X147459051Y-86559816D01*
X147555557Y-86370412D01*
X147621246Y-86168243D01*
X147654500Y-85958287D01*
X147654500Y-85745713D01*
X147621246Y-85535757D01*
X147555557Y-85333588D01*
X147459051Y-85144184D01*
X147459049Y-85144181D01*
X147459048Y-85144179D01*
X147334109Y-84972213D01*
X147183786Y-84821890D01*
X147011820Y-84696951D01*
X147011115Y-84696591D01*
X147003054Y-84692485D01*
X146952259Y-84644512D01*
X146935463Y-84576692D01*
X146957999Y-84510556D01*
X147003054Y-84471515D01*
X147011816Y-84467051D01*
X147043860Y-84443770D01*
X147183786Y-84342109D01*
X147183788Y-84342106D01*
X147183792Y-84342104D01*
X147334104Y-84191792D01*
X147334106Y-84191788D01*
X147334109Y-84191786D01*
X147459048Y-84019820D01*
X147459047Y-84019820D01*
X147459051Y-84019816D01*
X147555557Y-83830412D01*
X147621246Y-83628243D01*
X147654500Y-83418287D01*
X147654500Y-83205713D01*
X147621246Y-82995757D01*
X147555557Y-82793588D01*
X147459051Y-82604184D01*
X147459049Y-82604181D01*
X147459048Y-82604179D01*
X147334109Y-82432213D01*
X147183786Y-82281890D01*
X147011820Y-82156951D01*
X147011115Y-82156591D01*
X147003054Y-82152485D01*
X146952259Y-82104512D01*
X146935463Y-82036692D01*
X146957999Y-81970556D01*
X147003054Y-81931515D01*
X147011816Y-81927051D01*
X147033789Y-81911086D01*
X147183786Y-81802109D01*
X147183788Y-81802106D01*
X147183792Y-81802104D01*
X147334104Y-81651792D01*
X147334106Y-81651788D01*
X147334109Y-81651786D01*
X147459048Y-81479820D01*
X147459047Y-81479820D01*
X147459051Y-81479816D01*
X147555557Y-81290412D01*
X147621246Y-81088243D01*
X147654500Y-80878287D01*
X147654500Y-80665713D01*
X147621246Y-80455757D01*
X147555557Y-80253588D01*
X147459051Y-80064184D01*
X147459049Y-80064181D01*
X147459048Y-80064179D01*
X147334109Y-79892213D01*
X147183786Y-79741890D01*
X147011820Y-79616951D01*
X147011115Y-79616591D01*
X147003054Y-79612485D01*
X146952259Y-79564512D01*
X146935463Y-79496692D01*
X146957999Y-79430556D01*
X147003054Y-79391515D01*
X147011816Y-79387051D01*
X147064682Y-79348642D01*
X147183786Y-79262109D01*
X147183788Y-79262106D01*
X147183792Y-79262104D01*
X147334104Y-79111792D01*
X147334106Y-79111788D01*
X147334109Y-79111786D01*
X147459048Y-78939820D01*
X147459047Y-78939820D01*
X147459051Y-78939816D01*
X147555557Y-78750412D01*
X147621246Y-78548243D01*
X147654500Y-78338287D01*
X147654500Y-78125713D01*
X147621246Y-77915757D01*
X147555557Y-77713588D01*
X147459051Y-77524184D01*
X147459049Y-77524181D01*
X147459048Y-77524179D01*
X147334109Y-77352213D01*
X147183786Y-77201890D01*
X147011820Y-77076951D01*
X147011115Y-77076591D01*
X147003054Y-77072485D01*
X146952259Y-77024512D01*
X146935463Y-76956692D01*
X146957999Y-76890556D01*
X147003054Y-76851515D01*
X147011816Y-76847051D01*
X147048768Y-76820204D01*
X147183786Y-76722109D01*
X147183788Y-76722106D01*
X147183792Y-76722104D01*
X147334104Y-76571792D01*
X147334106Y-76571788D01*
X147334109Y-76571786D01*
X147457596Y-76401819D01*
X147459051Y-76399816D01*
X147555557Y-76210412D01*
X147621246Y-76008243D01*
X147654500Y-75798287D01*
X147654500Y-75585713D01*
X147621246Y-75375757D01*
X147555557Y-75173588D01*
X147459051Y-74984184D01*
X147459049Y-74984181D01*
X147459048Y-74984179D01*
X147334109Y-74812213D01*
X147183786Y-74661890D01*
X147011820Y-74536951D01*
X146822414Y-74440444D01*
X146822413Y-74440443D01*
X146822412Y-74440443D01*
X146620243Y-74374754D01*
X146620241Y-74374753D01*
X146620240Y-74374753D01*
X146458957Y-74349208D01*
X146410287Y-74341500D01*
X146292388Y-74341500D01*
X146225349Y-74321815D01*
X146179594Y-74269011D01*
X146169650Y-74199853D01*
X146198675Y-74136297D01*
X146204707Y-74129819D01*
X146351386Y-73983140D01*
X146786825Y-73547702D01*
X146787822Y-73546211D01*
X146855279Y-73445254D01*
X146902431Y-73331420D01*
X146906161Y-73312669D01*
X146926468Y-73210575D01*
X146926468Y-73087362D01*
X146926468Y-72818889D01*
X146946153Y-72751850D01*
X146976153Y-72719625D01*
X147008514Y-72695401D01*
X147094764Y-72580186D01*
X147145059Y-72445338D01*
X147151468Y-72385728D01*
X147151468Y-72361855D01*
X147171153Y-72294816D01*
X147223957Y-72249061D01*
X147244156Y-72244666D01*
X147250968Y-72237855D01*
X147250968Y-69837855D01*
X146969169Y-69837855D01*
X146902130Y-69818170D01*
X146856375Y-69765366D01*
X146846431Y-69696208D01*
X146847552Y-69689661D01*
X146850500Y-69674841D01*
X146850500Y-69517155D01*
X146850499Y-69517153D01*
X146846588Y-69497490D01*
X146819737Y-69362503D01*
X146787498Y-69284671D01*
X146759397Y-69216827D01*
X146759390Y-69216814D01*
X146671789Y-69085711D01*
X146671786Y-69085707D01*
X146560292Y-68974213D01*
X146560288Y-68974210D01*
X146429185Y-68886609D01*
X146429172Y-68886602D01*
X146283501Y-68826264D01*
X146283489Y-68826261D01*
X146172285Y-68804141D01*
X146110374Y-68771756D01*
X146108795Y-68770205D01*
X145606005Y-68267415D01*
X145598715Y-68260125D01*
X145598713Y-68260122D01*
X145511588Y-68172997D01*
X145460364Y-68138770D01*
X145409141Y-68104543D01*
X145409138Y-68104541D01*
X145409135Y-68104540D01*
X145335458Y-68074023D01*
X145335456Y-68074022D01*
X145328647Y-68071202D01*
X145295307Y-68057392D01*
X145234884Y-68045373D01*
X145230161Y-68044433D01*
X145230159Y-68044433D01*
X145174465Y-68033355D01*
X145174462Y-68033355D01*
X145174461Y-68033355D01*
X128659308Y-68033355D01*
X128592269Y-68013670D01*
X128571627Y-67997036D01*
X127959772Y-67385181D01*
X127926287Y-67323858D01*
X127931271Y-67254166D01*
X127973143Y-67198233D01*
X128038607Y-67173816D01*
X128047453Y-67173500D01*
X128346398Y-67173500D01*
X128413437Y-67193185D01*
X128452514Y-67233349D01*
X128467528Y-67258185D01*
X128467531Y-67258189D01*
X128587811Y-67378469D01*
X128587813Y-67378470D01*
X128587815Y-67378472D01*
X128733394Y-67466478D01*
X128895804Y-67517086D01*
X128966384Y-67523500D01*
X128966387Y-67523500D01*
X129479613Y-67523500D01*
X129479616Y-67523500D01*
X129550196Y-67517086D01*
X129712606Y-67466478D01*
X129858185Y-67378472D01*
X129907658Y-67328999D01*
X129960319Y-67276339D01*
X130021642Y-67242854D01*
X130091334Y-67247838D01*
X130135681Y-67276339D01*
X130237811Y-67378469D01*
X130237813Y-67378470D01*
X130237815Y-67378472D01*
X130383394Y-67466478D01*
X130545804Y-67517086D01*
X130616384Y-67523500D01*
X130616387Y-67523500D01*
X131129613Y-67523500D01*
X131129616Y-67523500D01*
X131200196Y-67517086D01*
X131362606Y-67466478D01*
X131508185Y-67378472D01*
X131628472Y-67258185D01*
X131716478Y-67112606D01*
X131767086Y-66950196D01*
X131773500Y-66879616D01*
X131773500Y-66216384D01*
X131767086Y-66145804D01*
X131716478Y-65983394D01*
X131628472Y-65837815D01*
X131628470Y-65837813D01*
X131628469Y-65837811D01*
X131587398Y-65796740D01*
X131553913Y-65735417D01*
X131558897Y-65665725D01*
X131600769Y-65609792D01*
X131609985Y-65603519D01*
X131627730Y-65592573D01*
X131627732Y-65592572D01*
X131747572Y-65472732D01*
X131747575Y-65472728D01*
X131836542Y-65328492D01*
X131836547Y-65328481D01*
X131889855Y-65167606D01*
X131899999Y-65068322D01*
X131900000Y-65068309D01*
X131900000Y-65020000D01*
X131074000Y-65020000D01*
X131006961Y-65000315D01*
X130961206Y-64947511D01*
X130950000Y-64896000D01*
X130950000Y-64644000D01*
X130969685Y-64576961D01*
X131022489Y-64531206D01*
X131074000Y-64520000D01*
X131899999Y-64520000D01*
X131899999Y-64471692D01*
X131899998Y-64471677D01*
X131889855Y-64372392D01*
X131836547Y-64211518D01*
X131836542Y-64211507D01*
X131773066Y-64108597D01*
X131754625Y-64041205D01*
X131775547Y-63974541D01*
X131829189Y-63929772D01*
X131878604Y-63919500D01*
X134698844Y-63919500D01*
X134698845Y-63919499D01*
X134853497Y-63888737D01*
X134999179Y-63828394D01*
X135130289Y-63740789D01*
X135241789Y-63629289D01*
X135329394Y-63498179D01*
X135389737Y-63352497D01*
X135420500Y-63197842D01*
X135420500Y-63040158D01*
X135420500Y-63040155D01*
X135420499Y-63040153D01*
X135408773Y-62981205D01*
X135389737Y-62885503D01*
X135389114Y-62883999D01*
X135329397Y-62739827D01*
X135329390Y-62739814D01*
X135241789Y-62608711D01*
X135241786Y-62608707D01*
X135218778Y-62585699D01*
X146400968Y-62585699D01*
X146407369Y-62645227D01*
X146407371Y-62645234D01*
X146457613Y-62779941D01*
X146457617Y-62779948D01*
X146543777Y-62895042D01*
X146543780Y-62895045D01*
X146658874Y-62981205D01*
X146658881Y-62981209D01*
X146793588Y-63031451D01*
X146793595Y-63031453D01*
X146853123Y-63037854D01*
X146853140Y-63037855D01*
X147250968Y-63037855D01*
X147250968Y-61687855D01*
X146400968Y-61687855D01*
X146400968Y-62585699D01*
X135218778Y-62585699D01*
X135130292Y-62497213D01*
X135130288Y-62497210D01*
X134999185Y-62409609D01*
X134999172Y-62409602D01*
X134853501Y-62349264D01*
X134853489Y-62349261D01*
X134698845Y-62318500D01*
X134698842Y-62318500D01*
X133224968Y-62318500D01*
X133157929Y-62298815D01*
X133112174Y-62246011D01*
X133100968Y-62194500D01*
X133100968Y-61687855D01*
X132124968Y-61687855D01*
X132057929Y-61668170D01*
X132012174Y-61615366D01*
X132000968Y-61563855D01*
X132000968Y-61311855D01*
X132020653Y-61244816D01*
X132073457Y-61199061D01*
X132124968Y-61187855D01*
X133100968Y-61187855D01*
X133100968Y-61106850D01*
X136000467Y-61106850D01*
X136027386Y-61242177D01*
X136027389Y-61242187D01*
X136080189Y-61369659D01*
X136080196Y-61369672D01*
X136156853Y-61484396D01*
X136156856Y-61484400D01*
X136254422Y-61581966D01*
X136254426Y-61581969D01*
X136369150Y-61658626D01*
X136369163Y-61658633D01*
X136496635Y-61711433D01*
X136496640Y-61711435D01*
X136496644Y-61711435D01*
X136496645Y-61711436D01*
X136631972Y-61738355D01*
X136631975Y-61738355D01*
X136769963Y-61738355D01*
X136861009Y-61720244D01*
X136905296Y-61711435D01*
X137032779Y-61658630D01*
X137147510Y-61581969D01*
X137245082Y-61484397D01*
X137321743Y-61369666D01*
X137374548Y-61242183D01*
X137396691Y-61130865D01*
X137401468Y-61106850D01*
X144000467Y-61106850D01*
X144027386Y-61242177D01*
X144027389Y-61242187D01*
X144080189Y-61369659D01*
X144080196Y-61369672D01*
X144156853Y-61484396D01*
X144156856Y-61484400D01*
X144254422Y-61581966D01*
X144254426Y-61581969D01*
X144369150Y-61658626D01*
X144369163Y-61658633D01*
X144496635Y-61711433D01*
X144496640Y-61711435D01*
X144496644Y-61711435D01*
X144496645Y-61711436D01*
X144631972Y-61738355D01*
X144631975Y-61738355D01*
X144769963Y-61738355D01*
X144861009Y-61720244D01*
X144905296Y-61711435D01*
X145032779Y-61658630D01*
X145147510Y-61581969D01*
X145153481Y-61575998D01*
X145180668Y-61548812D01*
X145245079Y-61484400D01*
X145245082Y-61484397D01*
X145321743Y-61369666D01*
X145374548Y-61242183D01*
X145396691Y-61130865D01*
X145401468Y-61106850D01*
X145401468Y-60968859D01*
X145374549Y-60833532D01*
X145374548Y-60833531D01*
X145374548Y-60833527D01*
X145358463Y-60794694D01*
X145321746Y-60706050D01*
X145321739Y-60706037D01*
X145245082Y-60591313D01*
X145245079Y-60591309D01*
X145147513Y-60493743D01*
X145147509Y-60493740D01*
X145032785Y-60417083D01*
X145032772Y-60417076D01*
X144994604Y-60401267D01*
X144905300Y-60364276D01*
X144905290Y-60364273D01*
X144769963Y-60337355D01*
X144769961Y-60337355D01*
X144631975Y-60337355D01*
X144631973Y-60337355D01*
X144496645Y-60364273D01*
X144496635Y-60364276D01*
X144369163Y-60417076D01*
X144369150Y-60417083D01*
X144254426Y-60493740D01*
X144254422Y-60493743D01*
X144156856Y-60591309D01*
X144156853Y-60591313D01*
X144080196Y-60706037D01*
X144080189Y-60706050D01*
X144027389Y-60833522D01*
X144027386Y-60833532D01*
X144000468Y-60968859D01*
X144000468Y-60968862D01*
X144000468Y-61106848D01*
X144000468Y-61106850D01*
X144000467Y-61106850D01*
X137401468Y-61106850D01*
X137401468Y-60968859D01*
X137374549Y-60833532D01*
X137374548Y-60833531D01*
X137374548Y-60833527D01*
X137358463Y-60794694D01*
X137321746Y-60706050D01*
X137321739Y-60706037D01*
X137245082Y-60591313D01*
X137245079Y-60591309D01*
X137147513Y-60493743D01*
X137147509Y-60493740D01*
X137032785Y-60417083D01*
X137032772Y-60417076D01*
X136905300Y-60364276D01*
X136905290Y-60364273D01*
X136769963Y-60337355D01*
X136769961Y-60337355D01*
X136631975Y-60337355D01*
X136631973Y-60337355D01*
X136496645Y-60364273D01*
X136496635Y-60364276D01*
X136369163Y-60417076D01*
X136369150Y-60417083D01*
X136254426Y-60493740D01*
X136254422Y-60493743D01*
X136156856Y-60591309D01*
X136156853Y-60591313D01*
X136080196Y-60706037D01*
X136080189Y-60706050D01*
X136027389Y-60833522D01*
X136027386Y-60833532D01*
X136000468Y-60968859D01*
X136000468Y-60968862D01*
X136000468Y-61106848D01*
X136000468Y-61106850D01*
X136000467Y-61106850D01*
X133100968Y-61106850D01*
X133100968Y-60290027D01*
X133100967Y-60290010D01*
X146400968Y-60290010D01*
X146400968Y-61187855D01*
X147250968Y-61187855D01*
X147250968Y-59837855D01*
X146853123Y-59837855D01*
X146793595Y-59844256D01*
X146793588Y-59844258D01*
X146658881Y-59894500D01*
X146658874Y-59894504D01*
X146543780Y-59980664D01*
X146543777Y-59980667D01*
X146457617Y-60095761D01*
X146457613Y-60095768D01*
X146407371Y-60230475D01*
X146407369Y-60230482D01*
X146400968Y-60290010D01*
X133100967Y-60290010D01*
X133094566Y-60230482D01*
X133094564Y-60230475D01*
X133044322Y-60095768D01*
X133044318Y-60095761D01*
X132958158Y-59980667D01*
X132958155Y-59980664D01*
X132843061Y-59894504D01*
X132843054Y-59894500D01*
X132708347Y-59844258D01*
X132708340Y-59844256D01*
X132648812Y-59837855D01*
X132457580Y-59837855D01*
X132390541Y-59818170D01*
X132344786Y-59765366D01*
X132334842Y-59696208D01*
X132340524Y-59675492D01*
X132339969Y-59675324D01*
X132341731Y-59669509D01*
X132341737Y-59669497D01*
X132372500Y-59514842D01*
X132372500Y-59357158D01*
X132372500Y-59357155D01*
X132372499Y-59357153D01*
X132341738Y-59202510D01*
X132341737Y-59202503D01*
X132300210Y-59102246D01*
X132281397Y-59056827D01*
X132281390Y-59056814D01*
X132193789Y-58925711D01*
X132193786Y-58925707D01*
X132082291Y-58814212D01*
X132082288Y-58814210D01*
X131951185Y-58726609D01*
X131951172Y-58726602D01*
X131836163Y-58678965D01*
X131781759Y-58635125D01*
X131759694Y-58568831D01*
X131776973Y-58501131D01*
X131795930Y-58476726D01*
X131895472Y-58377185D01*
X131983478Y-58231606D01*
X132034086Y-58069196D01*
X132040500Y-57998616D01*
X132040500Y-57485384D01*
X132034086Y-57414804D01*
X131983478Y-57252394D01*
X131983473Y-57252386D01*
X131980398Y-57245551D01*
X131982533Y-57244590D01*
X131967620Y-57188116D01*
X131981993Y-57139163D01*
X131979940Y-57138239D01*
X131983019Y-57131397D01*
X132033590Y-56969106D01*
X132040000Y-56898572D01*
X132040000Y-56892000D01*
X131627549Y-56892000D01*
X131590660Y-56886386D01*
X131563464Y-56877912D01*
X131467196Y-56847914D01*
X131396616Y-56841500D01*
X131164000Y-56841500D01*
X131155314Y-56838949D01*
X131146353Y-56840238D01*
X131122312Y-56829259D01*
X131096961Y-56821815D01*
X131091033Y-56814974D01*
X131082797Y-56811213D01*
X131068507Y-56788978D01*
X131051206Y-56769011D01*
X131048918Y-56758496D01*
X131045023Y-56752435D01*
X131040000Y-56717500D01*
X131040000Y-56516000D01*
X131059685Y-56448961D01*
X131112489Y-56403206D01*
X131164000Y-56392000D01*
X132039999Y-56392000D01*
X132039999Y-56385417D01*
X132033591Y-56314897D01*
X132033591Y-56314894D01*
X132026267Y-56291389D01*
X132025117Y-56221529D01*
X132061918Y-56162137D01*
X132124988Y-56132069D01*
X132144653Y-56130500D01*
X134661963Y-56130500D01*
X134729002Y-56150185D01*
G37*
G04 #@! TD.AperFunction*
G04 #@! TA.AperFunction,Conductor*
G36*
X124217539Y-130964185D02*
G01*
X124263294Y-131016989D01*
X124274500Y-131068500D01*
X124274500Y-132045001D01*
X124274501Y-132045019D01*
X124285000Y-132147796D01*
X124285001Y-132147799D01*
X124285489Y-132149271D01*
X124340186Y-132314334D01*
X124432288Y-132463656D01*
X124556344Y-132587712D01*
X124705666Y-132679814D01*
X124872203Y-132734999D01*
X124974991Y-132745500D01*
X128075008Y-132745499D01*
X128177797Y-132734999D01*
X128278003Y-132701794D01*
X128280795Y-132701343D01*
X128282072Y-132700523D01*
X128317007Y-132695500D01*
X128335664Y-132695500D01*
X128402703Y-132715185D01*
X128423345Y-132731819D01*
X130158181Y-134466655D01*
X130191666Y-134527978D01*
X130194500Y-134554336D01*
X130194500Y-135397877D01*
X130174815Y-135464916D01*
X130170826Y-135470750D01*
X130161995Y-135482906D01*
X130053503Y-135632231D01*
X129998172Y-135674896D01*
X129928559Y-135680875D01*
X129866764Y-135648269D01*
X129865504Y-135647026D01*
X129751895Y-135533417D01*
X129586349Y-135413140D01*
X129404029Y-135320244D01*
X129209413Y-135257009D01*
X129155000Y-135248390D01*
X129155000Y-136209314D01*
X129150606Y-136204920D01*
X129059394Y-136152259D01*
X128957661Y-136125000D01*
X128852339Y-136125000D01*
X128750606Y-136152259D01*
X128659394Y-136204920D01*
X128655000Y-136209314D01*
X128655000Y-135248390D01*
X128600586Y-135257009D01*
X128405970Y-135320244D01*
X128223650Y-135413140D01*
X128058105Y-135533417D01*
X128058104Y-135533417D01*
X127913417Y-135678104D01*
X127913417Y-135678105D01*
X127793140Y-135843650D01*
X127745765Y-135936629D01*
X127697790Y-135987425D01*
X127629969Y-136004220D01*
X127563834Y-135981682D01*
X127524795Y-135936629D01*
X127513990Y-135915424D01*
X127477287Y-135843390D01*
X127469556Y-135832749D01*
X127356971Y-135677786D01*
X127212213Y-135533028D01*
X127046613Y-135412715D01*
X127046612Y-135412714D01*
X127046610Y-135412713D01*
X126958487Y-135367812D01*
X126864223Y-135319781D01*
X126669534Y-135256522D01*
X126494995Y-135228878D01*
X126467352Y-135224500D01*
X126262648Y-135224500D01*
X126238329Y-135228351D01*
X126060465Y-135256522D01*
X125865776Y-135319781D01*
X125683386Y-135412715D01*
X125517786Y-135533028D01*
X125373028Y-135677786D01*
X125252715Y-135843386D01*
X125205485Y-135936080D01*
X125157510Y-135986876D01*
X125089689Y-136003671D01*
X125023554Y-135981134D01*
X124984515Y-135936080D01*
X124983883Y-135934840D01*
X124937287Y-135843390D01*
X124929556Y-135832749D01*
X124816971Y-135677786D01*
X124672213Y-135533028D01*
X124506613Y-135412715D01*
X124506612Y-135412714D01*
X124506610Y-135412713D01*
X124418487Y-135367812D01*
X124324223Y-135319781D01*
X124129534Y-135256522D01*
X123954995Y-135228878D01*
X123927352Y-135224500D01*
X123722648Y-135224500D01*
X123698329Y-135228351D01*
X123520465Y-135256522D01*
X123325776Y-135319781D01*
X123143386Y-135412715D01*
X122977786Y-135533028D01*
X122833028Y-135677786D01*
X122712715Y-135843386D01*
X122665485Y-135936080D01*
X122617510Y-135986876D01*
X122549689Y-136003671D01*
X122483554Y-135981134D01*
X122444515Y-135936080D01*
X122443883Y-135934840D01*
X122397287Y-135843390D01*
X122389556Y-135832749D01*
X122276971Y-135677786D01*
X122132213Y-135533028D01*
X121966613Y-135412715D01*
X121966612Y-135412714D01*
X121966610Y-135412713D01*
X121878487Y-135367812D01*
X121784223Y-135319781D01*
X121589534Y-135256522D01*
X121414995Y-135228878D01*
X121387352Y-135224500D01*
X121182648Y-135224500D01*
X121158329Y-135228351D01*
X120980465Y-135256522D01*
X120785776Y-135319781D01*
X120603386Y-135412715D01*
X120437786Y-135533028D01*
X120293028Y-135677786D01*
X120172715Y-135843386D01*
X120125485Y-135936080D01*
X120077510Y-135986876D01*
X120009689Y-136003671D01*
X119943554Y-135981134D01*
X119904515Y-135936080D01*
X119903883Y-135934840D01*
X119857287Y-135843390D01*
X119849556Y-135832749D01*
X119736971Y-135677786D01*
X119592213Y-135533028D01*
X119426613Y-135412715D01*
X119426612Y-135412714D01*
X119426610Y-135412713D01*
X119338487Y-135367812D01*
X119244223Y-135319781D01*
X119049534Y-135256522D01*
X118874995Y-135228878D01*
X118847352Y-135224500D01*
X118642648Y-135224500D01*
X118618329Y-135228351D01*
X118440465Y-135256522D01*
X118245776Y-135319781D01*
X118063386Y-135412715D01*
X117897786Y-135533028D01*
X117753028Y-135677786D01*
X117632715Y-135843386D01*
X117585485Y-135936080D01*
X117537510Y-135986876D01*
X117469689Y-136003671D01*
X117403554Y-135981134D01*
X117364515Y-135936080D01*
X117363883Y-135934840D01*
X117317287Y-135843390D01*
X117309556Y-135832749D01*
X117196971Y-135677786D01*
X117052213Y-135533028D01*
X116886614Y-135412715D01*
X116857493Y-135397877D01*
X116705203Y-135320281D01*
X116654409Y-135272309D01*
X116637500Y-135209798D01*
X116637500Y-133586104D01*
X116655961Y-133521009D01*
X116724003Y-133410697D01*
X116777349Y-133249708D01*
X116787500Y-133150345D01*
X116787499Y-133084939D01*
X116807183Y-133017901D01*
X116823813Y-132997263D01*
X117776090Y-132044986D01*
X118875001Y-132044986D01*
X118885494Y-132147697D01*
X118940641Y-132314119D01*
X118940643Y-132314124D01*
X119032684Y-132463345D01*
X119156654Y-132587315D01*
X119305875Y-132679356D01*
X119305880Y-132679358D01*
X119472302Y-132734505D01*
X119472309Y-132734506D01*
X119575019Y-132744999D01*
X120874999Y-132744999D01*
X121375000Y-132744999D01*
X122674972Y-132744999D01*
X122674986Y-132744998D01*
X122777697Y-132734505D01*
X122944119Y-132679358D01*
X122944124Y-132679356D01*
X123093345Y-132587315D01*
X123217315Y-132463345D01*
X123309356Y-132314124D01*
X123309358Y-132314119D01*
X123364505Y-132147697D01*
X123364506Y-132147690D01*
X123374999Y-132044986D01*
X123375000Y-132044973D01*
X123375000Y-131695000D01*
X121375000Y-131695000D01*
X121375000Y-132744999D01*
X120874999Y-132744999D01*
X120875000Y-132744998D01*
X120875000Y-131695000D01*
X118875001Y-131695000D01*
X118875001Y-132044986D01*
X117776090Y-132044986D01*
X118663321Y-131157755D01*
X118724642Y-131124272D01*
X118794334Y-131129256D01*
X118836522Y-131160839D01*
X118838681Y-131158681D01*
X118875000Y-131195000D01*
X123374999Y-131195000D01*
X123374999Y-131068500D01*
X123394684Y-131001461D01*
X123447488Y-130955706D01*
X123498999Y-130944500D01*
X124150500Y-130944500D01*
X124217539Y-130964185D01*
G37*
G04 #@! TD.AperFunction*
G04 #@! TA.AperFunction,Conductor*
G36*
X134319049Y-94247155D02*
G01*
X134329763Y-94247922D01*
X134349617Y-94262785D01*
X134371698Y-94274075D01*
X134381886Y-94286942D01*
X134385696Y-94289794D01*
X134389668Y-94296769D01*
X134393608Y-94301745D01*
X134397802Y-94308953D01*
X134418606Y-94359179D01*
X134483741Y-94456661D01*
X134485679Y-94459991D01*
X134498313Y-94506829D01*
X134502480Y-94520136D01*
X134502188Y-94521196D01*
X134502500Y-94522350D01*
X134502500Y-98930610D01*
X134524259Y-99040000D01*
X134526537Y-99051452D01*
X134529878Y-99059518D01*
X134529878Y-99059519D01*
X134573685Y-99165281D01*
X134573690Y-99165290D01*
X134602506Y-99208415D01*
X134602510Y-99208420D01*
X134606972Y-99215097D01*
X134642142Y-99267733D01*
X134729267Y-99354858D01*
X134729269Y-99354859D01*
X134739281Y-99364871D01*
X140478181Y-105103771D01*
X140511666Y-105165094D01*
X140514500Y-105191452D01*
X140514500Y-105487613D01*
X140520913Y-105558192D01*
X140520913Y-105558194D01*
X140520914Y-105558196D01*
X140571522Y-105720606D01*
X140655022Y-105858732D01*
X140659530Y-105866188D01*
X140779811Y-105986469D01*
X140779813Y-105986470D01*
X140779815Y-105986472D01*
X140925394Y-106074478D01*
X141087804Y-106125086D01*
X141158384Y-106131500D01*
X141158387Y-106131500D01*
X141671613Y-106131500D01*
X141671616Y-106131500D01*
X141742196Y-106125086D01*
X141904606Y-106074478D01*
X142050185Y-105986472D01*
X142100801Y-105935856D01*
X142152319Y-105884339D01*
X142213642Y-105850854D01*
X142283334Y-105855838D01*
X142327681Y-105884339D01*
X142429811Y-105986469D01*
X142429813Y-105986470D01*
X142429815Y-105986472D01*
X142575394Y-106074478D01*
X142737804Y-106125086D01*
X142808384Y-106131500D01*
X142808387Y-106131500D01*
X143321613Y-106131500D01*
X143321616Y-106131500D01*
X143392196Y-106125086D01*
X143554606Y-106074478D01*
X143583826Y-106056813D01*
X143651378Y-106038976D01*
X143717852Y-106060492D01*
X143735658Y-106075248D01*
X144880181Y-107219771D01*
X144913666Y-107281094D01*
X144916500Y-107307452D01*
X144916500Y-108442687D01*
X144896815Y-108509726D01*
X144844011Y-108555481D01*
X144774853Y-108565425D01*
X144711297Y-108536400D01*
X144682015Y-108498982D01*
X144658629Y-108453085D01*
X144625051Y-108387184D01*
X144617023Y-108376134D01*
X144500109Y-108215213D01*
X144349786Y-108064890D01*
X144177820Y-107939951D01*
X143988414Y-107843444D01*
X143988413Y-107843443D01*
X143988412Y-107843443D01*
X143786243Y-107777754D01*
X143786241Y-107777753D01*
X143786240Y-107777753D01*
X143624957Y-107752208D01*
X143576287Y-107744500D01*
X143363713Y-107744500D01*
X143315042Y-107752208D01*
X143153760Y-107777753D01*
X142951585Y-107843444D01*
X142762179Y-107939951D01*
X142590213Y-108064890D01*
X142439894Y-108215209D01*
X142439890Y-108215214D01*
X142320008Y-108380218D01*
X142264678Y-108422884D01*
X142195065Y-108428863D01*
X142133270Y-108396257D01*
X142119372Y-108380218D01*
X141999727Y-108215540D01*
X141999723Y-108215535D01*
X141849464Y-108065276D01*
X141849459Y-108065272D01*
X141677557Y-107940379D01*
X141488215Y-107843903D01*
X141286124Y-107778241D01*
X141220000Y-107767768D01*
X141220000Y-108815854D01*
X141153343Y-108777370D01*
X141032535Y-108745000D01*
X140907465Y-108745000D01*
X140786657Y-108777370D01*
X140720000Y-108815854D01*
X140720000Y-107767768D01*
X140719999Y-107767768D01*
X140653875Y-107778241D01*
X140451784Y-107843903D01*
X140262442Y-107940379D01*
X140090541Y-108065271D01*
X139951668Y-108204144D01*
X139890345Y-108237628D01*
X139820653Y-108232644D01*
X139764720Y-108190772D01*
X139758448Y-108181558D01*
X139719950Y-108119143D01*
X139662712Y-108026344D01*
X139538656Y-107902288D01*
X139389334Y-107810186D01*
X139222797Y-107755001D01*
X139222795Y-107755000D01*
X139120010Y-107744500D01*
X137819998Y-107744500D01*
X137819981Y-107744501D01*
X137717203Y-107755000D01*
X137717200Y-107755001D01*
X137550668Y-107810185D01*
X137550663Y-107810187D01*
X137401342Y-107902289D01*
X137277289Y-108026342D01*
X137185187Y-108175663D01*
X137185185Y-108175668D01*
X137180180Y-108190772D01*
X137130001Y-108342203D01*
X137130001Y-108342204D01*
X137130000Y-108342204D01*
X137119500Y-108444983D01*
X137119500Y-109995001D01*
X137119501Y-109995018D01*
X137130000Y-110097796D01*
X137130001Y-110097799D01*
X137164031Y-110200493D01*
X137185186Y-110264334D01*
X137277288Y-110413656D01*
X137401344Y-110537712D01*
X137550666Y-110629814D01*
X137717203Y-110684999D01*
X137819991Y-110695500D01*
X139120008Y-110695499D01*
X139222797Y-110684999D01*
X139389334Y-110629814D01*
X139538656Y-110537712D01*
X139662712Y-110413656D01*
X139754814Y-110264334D01*
X139754814Y-110264331D01*
X139758448Y-110258441D01*
X139810395Y-110211716D01*
X139879358Y-110200493D01*
X139943440Y-110228336D01*
X139951668Y-110235856D01*
X140090535Y-110374723D01*
X140090540Y-110374727D01*
X140262442Y-110499620D01*
X140451782Y-110596095D01*
X140653871Y-110661757D01*
X140720000Y-110672231D01*
X140720000Y-109624145D01*
X140786657Y-109662630D01*
X140907465Y-109695000D01*
X141032535Y-109695000D01*
X141153343Y-109662630D01*
X141220000Y-109624145D01*
X141220000Y-110672230D01*
X141286126Y-110661757D01*
X141286129Y-110661757D01*
X141488217Y-110596095D01*
X141677557Y-110499620D01*
X141849459Y-110374727D01*
X141849464Y-110374723D01*
X141999721Y-110224466D01*
X142119371Y-110059781D01*
X142174701Y-110017115D01*
X142244314Y-110011136D01*
X142306110Y-110043741D01*
X142320008Y-110059781D01*
X142439890Y-110224785D01*
X142439894Y-110224790D01*
X142590213Y-110375109D01*
X142762179Y-110500048D01*
X142762181Y-110500049D01*
X142762184Y-110500051D01*
X142951588Y-110596557D01*
X143153757Y-110662246D01*
X143363713Y-110695500D01*
X143363714Y-110695500D01*
X143576286Y-110695500D01*
X143576287Y-110695500D01*
X143786243Y-110662246D01*
X143988412Y-110596557D01*
X144177816Y-110500051D01*
X144199789Y-110484086D01*
X144349786Y-110375109D01*
X144349788Y-110375106D01*
X144349792Y-110375104D01*
X144500104Y-110224792D01*
X144500106Y-110224788D01*
X144500109Y-110224786D01*
X144625048Y-110052820D01*
X144625047Y-110052820D01*
X144625051Y-110052816D01*
X144682015Y-109941016D01*
X144729989Y-109890221D01*
X144797810Y-109873426D01*
X144863945Y-109895963D01*
X144907397Y-109950678D01*
X144916500Y-109997312D01*
X144916500Y-112692500D01*
X144896815Y-112759539D01*
X144844011Y-112805294D01*
X144792500Y-112816500D01*
X144460384Y-112816500D01*
X144441145Y-112818248D01*
X144389807Y-112822913D01*
X144227393Y-112873522D01*
X144081811Y-112961530D01*
X143961530Y-113081811D01*
X143873522Y-113227393D01*
X143822913Y-113389807D01*
X143816500Y-113460386D01*
X143816500Y-113852547D01*
X143796815Y-113919586D01*
X143780181Y-113940228D01*
X142217227Y-115503181D01*
X142155904Y-115536666D01*
X142129546Y-115539500D01*
X140214998Y-115539500D01*
X140214981Y-115539501D01*
X140112203Y-115550000D01*
X140112200Y-115550001D01*
X139945668Y-115605185D01*
X139945663Y-115605187D01*
X139796342Y-115697289D01*
X139672289Y-115821342D01*
X139580187Y-115970663D01*
X139580185Y-115970668D01*
X139563875Y-116019890D01*
X139525001Y-116137203D01*
X139525001Y-116137204D01*
X139525000Y-116137204D01*
X139514500Y-116239983D01*
X139514500Y-117440001D01*
X139514501Y-117440018D01*
X139525000Y-117542796D01*
X139525001Y-117542799D01*
X139580115Y-117709119D01*
X139580186Y-117709334D01*
X139672288Y-117858656D01*
X139796344Y-117982712D01*
X139945666Y-118074814D01*
X140112203Y-118129999D01*
X140214991Y-118140500D01*
X140840500Y-118140499D01*
X140907539Y-118160183D01*
X140953294Y-118212987D01*
X140964500Y-118264499D01*
X140964500Y-122353053D01*
X140944815Y-122420092D01*
X140936602Y-122431413D01*
X140875305Y-122506587D01*
X140781089Y-122686954D01*
X140739293Y-122833028D01*
X140728614Y-122870352D01*
X140725114Y-122882583D01*
X140725113Y-122882586D01*
X140714500Y-123001966D01*
X140714500Y-123085500D01*
X140694815Y-123152539D01*
X140642011Y-123198294D01*
X140590500Y-123209500D01*
X137379229Y-123209500D01*
X137312190Y-123189815D01*
X137266435Y-123137011D01*
X137256491Y-123067853D01*
X137279246Y-123015489D01*
X137277989Y-123014686D01*
X137281609Y-123009022D01*
X137366168Y-122838523D01*
X137412102Y-122653824D01*
X137415000Y-122611096D01*
X137415000Y-122410000D01*
X134415000Y-122410000D01*
X134415000Y-122611096D01*
X134417897Y-122653824D01*
X134463831Y-122838523D01*
X134548390Y-123009022D01*
X134548392Y-123009025D01*
X134667630Y-123157364D01*
X134736884Y-123213031D01*
X134776803Y-123270375D01*
X134779383Y-123340197D01*
X134743805Y-123400329D01*
X134736885Y-123406326D01*
X134669400Y-123460573D01*
X134667276Y-123462280D01*
X134547969Y-123610704D01*
X134547967Y-123610707D01*
X134463360Y-123781302D01*
X134417400Y-123966107D01*
X134414500Y-124008879D01*
X134414500Y-124777059D01*
X134394815Y-124844098D01*
X134378181Y-124864740D01*
X132949683Y-126293237D01*
X132888360Y-126326722D01*
X132818668Y-126321738D01*
X132762735Y-126279866D01*
X132739530Y-126224956D01*
X132713477Y-126060466D01*
X132650220Y-125865781D01*
X132650218Y-125865778D01*
X132650218Y-125865776D01*
X132605931Y-125778860D01*
X132557287Y-125683390D01*
X132538234Y-125657166D01*
X132436971Y-125517786D01*
X132420770Y-125501585D01*
X132387285Y-125440262D01*
X132392269Y-125370570D01*
X132420768Y-125326225D01*
X133437729Y-124309265D01*
X133437733Y-124309263D01*
X133524858Y-124222138D01*
X133563020Y-124165025D01*
X133593312Y-124119691D01*
X133626652Y-124039197D01*
X133640463Y-124005857D01*
X133664500Y-123885011D01*
X133664500Y-121708903D01*
X134415000Y-121708903D01*
X134415000Y-121910000D01*
X135665000Y-121910000D01*
X136165000Y-121910000D01*
X137415000Y-121910000D01*
X137415000Y-121708903D01*
X137412102Y-121666175D01*
X137366168Y-121481476D01*
X137281609Y-121310977D01*
X137281607Y-121310974D01*
X137162367Y-121162633D01*
X137162366Y-121162632D01*
X137014025Y-121043392D01*
X137014022Y-121043390D01*
X136843523Y-120958831D01*
X136658824Y-120912897D01*
X136616097Y-120910000D01*
X136165000Y-120910000D01*
X136165000Y-121910000D01*
X135665000Y-121910000D01*
X135665000Y-120910000D01*
X135213903Y-120910000D01*
X135171175Y-120912897D01*
X134986476Y-120958831D01*
X134815977Y-121043390D01*
X134815974Y-121043392D01*
X134667633Y-121162632D01*
X134667632Y-121162633D01*
X134548392Y-121310974D01*
X134548390Y-121310977D01*
X134463831Y-121481476D01*
X134417897Y-121666175D01*
X134415000Y-121708903D01*
X133664500Y-121708903D01*
X133664500Y-117439986D01*
X134115001Y-117439986D01*
X134125494Y-117542697D01*
X134180641Y-117709119D01*
X134180643Y-117709124D01*
X134272684Y-117858345D01*
X134396654Y-117982315D01*
X134545875Y-118074356D01*
X134545880Y-118074358D01*
X134712302Y-118129505D01*
X134712309Y-118129506D01*
X134815019Y-118139999D01*
X136114999Y-118139999D01*
X136615000Y-118139999D01*
X137914972Y-118139999D01*
X137914986Y-118139998D01*
X138017697Y-118129505D01*
X138184119Y-118074358D01*
X138184124Y-118074356D01*
X138333345Y-117982315D01*
X138457315Y-117858345D01*
X138549356Y-117709124D01*
X138549358Y-117709119D01*
X138604505Y-117542697D01*
X138604506Y-117542690D01*
X138614999Y-117439986D01*
X138615000Y-117439973D01*
X138615000Y-117090000D01*
X136615000Y-117090000D01*
X136615000Y-118139999D01*
X136114999Y-118139999D01*
X136115000Y-118139998D01*
X136115000Y-117090000D01*
X134115001Y-117090000D01*
X134115001Y-117439986D01*
X133664500Y-117439986D01*
X133664500Y-116240013D01*
X134115000Y-116240013D01*
X134115000Y-116590000D01*
X136115000Y-116590000D01*
X136615000Y-116590000D01*
X138614999Y-116590000D01*
X138614999Y-116240028D01*
X138614998Y-116240013D01*
X138604505Y-116137302D01*
X138549358Y-115970880D01*
X138549356Y-115970875D01*
X138457315Y-115821654D01*
X138333345Y-115697684D01*
X138184124Y-115605643D01*
X138184119Y-115605641D01*
X138017697Y-115550494D01*
X138017690Y-115550493D01*
X137914986Y-115540000D01*
X136615000Y-115540000D01*
X136615000Y-116590000D01*
X136115000Y-116590000D01*
X136115000Y-115540000D01*
X134815028Y-115540000D01*
X134815012Y-115540001D01*
X134712302Y-115550494D01*
X134545880Y-115605641D01*
X134545875Y-115605643D01*
X134396654Y-115697684D01*
X134272684Y-115821654D01*
X134180643Y-115970875D01*
X134180641Y-115970880D01*
X134125494Y-116137302D01*
X134125493Y-116137309D01*
X134115000Y-116240013D01*
X133664500Y-116240013D01*
X133664500Y-99253989D01*
X133664500Y-99253984D01*
X133661697Y-99239896D01*
X133661696Y-99239895D01*
X133661695Y-99239890D01*
X133656436Y-99213452D01*
X133645904Y-99160500D01*
X133640463Y-99133143D01*
X133626652Y-99099802D01*
X133593312Y-99019309D01*
X133551725Y-98957071D01*
X133524858Y-98916862D01*
X133524856Y-98916859D01*
X133434637Y-98826640D01*
X133434606Y-98826611D01*
X132404555Y-97796560D01*
X132397265Y-97789270D01*
X132397263Y-97789267D01*
X132310138Y-97702142D01*
X132258914Y-97667915D01*
X132207691Y-97633688D01*
X132207688Y-97633686D01*
X132207685Y-97633685D01*
X132134008Y-97603168D01*
X132134006Y-97603167D01*
X132127197Y-97600347D01*
X132093857Y-97586537D01*
X132033434Y-97574518D01*
X132028711Y-97573578D01*
X132028709Y-97573578D01*
X131973015Y-97562500D01*
X131973012Y-97562500D01*
X131973011Y-97562500D01*
X131212034Y-97562500D01*
X131144995Y-97542815D01*
X131099240Y-97490011D01*
X131089296Y-97420853D01*
X131118321Y-97357297D01*
X131124353Y-97350819D01*
X132168672Y-96306500D01*
X134198750Y-94276421D01*
X134220511Y-94264538D01*
X134239958Y-94249141D01*
X134250646Y-94248084D01*
X134260071Y-94242938D01*
X134284807Y-94244707D01*
X134309488Y-94242267D01*
X134319049Y-94247155D01*
G37*
G04 #@! TD.AperFunction*
G04 #@! TA.AperFunction,Conductor*
G36*
X129155000Y-113290606D02*
G01*
X129209421Y-113281988D01*
X129404031Y-113218754D01*
X129586349Y-113125859D01*
X129751894Y-113005582D01*
X129751895Y-113005582D01*
X129896582Y-112860895D01*
X129896582Y-112860894D01*
X130016861Y-112695347D01*
X130064234Y-112602371D01*
X130112208Y-112551575D01*
X130180028Y-112534779D01*
X130246164Y-112557316D01*
X130285203Y-112602369D01*
X130332713Y-112695611D01*
X130453028Y-112861213D01*
X130597786Y-113005971D01*
X130726500Y-113099485D01*
X130763390Y-113126287D01*
X130863053Y-113177068D01*
X130945776Y-113219218D01*
X130945778Y-113219218D01*
X130945781Y-113219220D01*
X131023739Y-113244550D01*
X131140465Y-113282477D01*
X131225088Y-113295880D01*
X131342648Y-113314500D01*
X131342649Y-113314500D01*
X131547351Y-113314500D01*
X131547352Y-113314500D01*
X131749534Y-113282477D01*
X131749539Y-113282475D01*
X131749541Y-113282475D01*
X131788427Y-113269840D01*
X131800180Y-113266020D01*
X131870021Y-113264024D01*
X131929854Y-113300104D01*
X131960683Y-113362804D01*
X131962500Y-113383951D01*
X131962500Y-122371546D01*
X131953855Y-122400983D01*
X131947332Y-122430974D01*
X131943576Y-122435990D01*
X131942815Y-122438585D01*
X131926181Y-122459228D01*
X131862626Y-122522782D01*
X131801302Y-122556266D01*
X131754585Y-122555771D01*
X131754346Y-122557285D01*
X131650898Y-122540900D01*
X131547352Y-122524500D01*
X131342648Y-122524500D01*
X131332439Y-122526117D01*
X131140465Y-122556522D01*
X130945776Y-122619781D01*
X130763386Y-122712715D01*
X130597786Y-122833028D01*
X130453028Y-122977786D01*
X130332715Y-123143386D01*
X130285485Y-123236080D01*
X130237510Y-123286876D01*
X130169689Y-123303671D01*
X130103554Y-123281134D01*
X130064515Y-123236080D01*
X130048666Y-123204975D01*
X130017287Y-123143390D01*
X129962407Y-123067853D01*
X129896971Y-122977786D01*
X129752213Y-122833028D01*
X129586613Y-122712715D01*
X129586612Y-122712714D01*
X129586610Y-122712713D01*
X129529653Y-122683691D01*
X129404223Y-122619781D01*
X129209534Y-122556522D01*
X129017561Y-122526117D01*
X129007352Y-122524500D01*
X128802648Y-122524500D01*
X128792439Y-122526117D01*
X128600465Y-122556522D01*
X128405776Y-122619781D01*
X128223386Y-122712715D01*
X128057786Y-122833028D01*
X127913028Y-122977786D01*
X127792715Y-123143386D01*
X127745485Y-123236080D01*
X127697510Y-123286876D01*
X127629689Y-123303671D01*
X127563554Y-123281134D01*
X127524515Y-123236080D01*
X127508666Y-123204975D01*
X127477287Y-123143390D01*
X127422407Y-123067853D01*
X127356971Y-122977786D01*
X127212213Y-122833028D01*
X127046613Y-122712715D01*
X127046612Y-122712714D01*
X127046610Y-122712713D01*
X126989653Y-122683691D01*
X126864223Y-122619781D01*
X126669534Y-122556522D01*
X126477561Y-122526117D01*
X126467352Y-122524500D01*
X126262648Y-122524500D01*
X126159101Y-122540900D01*
X126055654Y-122557285D01*
X126055333Y-122555262D01*
X125994120Y-122552149D01*
X125947371Y-122522781D01*
X125798732Y-122374142D01*
X125642819Y-122218228D01*
X125609334Y-122156905D01*
X125606500Y-122130547D01*
X125606500Y-118662147D01*
X125626185Y-118595108D01*
X125678989Y-118549353D01*
X125748147Y-118539409D01*
X125781903Y-118550113D01*
X125782079Y-118549690D01*
X125786580Y-118551554D01*
X125786585Y-118551555D01*
X125786588Y-118551557D01*
X125988757Y-118617246D01*
X126198713Y-118650500D01*
X126198714Y-118650500D01*
X126411286Y-118650500D01*
X126411287Y-118650500D01*
X126621243Y-118617246D01*
X126823412Y-118551557D01*
X127012816Y-118455051D01*
X127100082Y-118391649D01*
X127184786Y-118330109D01*
X127184788Y-118330106D01*
X127184792Y-118330104D01*
X127335104Y-118179792D01*
X127335106Y-118179788D01*
X127335109Y-118179786D01*
X127460048Y-118007820D01*
X127460047Y-118007820D01*
X127460051Y-118007816D01*
X127556557Y-117818412D01*
X127622246Y-117616243D01*
X127655500Y-117406287D01*
X127655500Y-116943713D01*
X127622246Y-116733757D01*
X127556557Y-116531588D01*
X127460051Y-116342184D01*
X127460049Y-116342181D01*
X127460048Y-116342179D01*
X127335109Y-116170213D01*
X127184786Y-116019890D01*
X127012820Y-115894951D01*
X126823414Y-115798444D01*
X126823413Y-115798443D01*
X126823412Y-115798443D01*
X126621243Y-115732754D01*
X126621241Y-115732753D01*
X126621240Y-115732753D01*
X126447502Y-115705236D01*
X126411287Y-115699500D01*
X126198713Y-115699500D01*
X126162498Y-115705236D01*
X125988760Y-115732753D01*
X125786580Y-115798445D01*
X125782079Y-115800310D01*
X125781662Y-115799303D01*
X125718117Y-115811232D01*
X125653378Y-115784951D01*
X125613125Y-115727842D01*
X125606500Y-115687852D01*
X125606500Y-113289459D01*
X125626185Y-113222420D01*
X125678989Y-113176665D01*
X125748147Y-113166721D01*
X125786796Y-113178975D01*
X125865774Y-113219217D01*
X125865777Y-113219217D01*
X125865781Y-113219220D01*
X125992957Y-113260542D01*
X126060465Y-113282477D01*
X126145088Y-113295880D01*
X126262648Y-113314500D01*
X126262649Y-113314500D01*
X126467351Y-113314500D01*
X126467352Y-113314500D01*
X126669534Y-113282477D01*
X126864219Y-113219220D01*
X127046610Y-113126287D01*
X127153501Y-113048627D01*
X127212213Y-113005971D01*
X127212215Y-113005968D01*
X127212219Y-113005966D01*
X127356966Y-112861219D01*
X127356968Y-112861215D01*
X127356971Y-112861213D01*
X127477284Y-112695614D01*
X127477286Y-112695611D01*
X127477287Y-112695610D01*
X127524795Y-112602369D01*
X127572770Y-112551574D01*
X127640591Y-112534779D01*
X127706725Y-112557316D01*
X127745765Y-112602370D01*
X127793140Y-112695349D01*
X127913417Y-112860894D01*
X127913417Y-112860895D01*
X128058104Y-113005582D01*
X128223650Y-113125859D01*
X128405968Y-113218754D01*
X128600578Y-113281988D01*
X128655000Y-113290607D01*
X128655000Y-112329686D01*
X128659394Y-112334080D01*
X128750606Y-112386741D01*
X128852339Y-112414000D01*
X128957661Y-112414000D01*
X129059394Y-112386741D01*
X129150606Y-112334080D01*
X129155000Y-112329686D01*
X129155000Y-113290606D01*
G37*
G04 #@! TD.AperFunction*
G04 #@! TA.AperFunction,Conductor*
G36*
X113915000Y-113314000D02*
G01*
X114185500Y-113314000D01*
X114252539Y-113333685D01*
X114298294Y-113386489D01*
X114309500Y-113438000D01*
X114309500Y-122496312D01*
X114289815Y-122563351D01*
X114237011Y-122609106D01*
X114167853Y-122619050D01*
X114147182Y-122614243D01*
X113969537Y-122556523D01*
X113817897Y-122532505D01*
X113767352Y-122524500D01*
X113562648Y-122524500D01*
X113506652Y-122533369D01*
X113360464Y-122556523D01*
X113360457Y-122556524D01*
X113326817Y-122567455D01*
X113256976Y-122569450D01*
X113197144Y-122533369D01*
X113166316Y-122470668D01*
X113164500Y-122449524D01*
X113164500Y-113438000D01*
X113184185Y-113370961D01*
X113236989Y-113325206D01*
X113288500Y-113314000D01*
X113415000Y-113314000D01*
X113415000Y-112329686D01*
X113419394Y-112334080D01*
X113510606Y-112386741D01*
X113612339Y-112414000D01*
X113717661Y-112414000D01*
X113819394Y-112386741D01*
X113910606Y-112334080D01*
X113915000Y-112329686D01*
X113915000Y-113314000D01*
G37*
G04 #@! TD.AperFunction*
G04 #@! TA.AperFunction,Conductor*
G36*
X117837238Y-100261269D02*
G01*
X117881585Y-100289770D01*
X117897786Y-100305971D01*
X118063385Y-100426284D01*
X118063387Y-100426285D01*
X118063390Y-100426287D01*
X118094912Y-100442348D01*
X118145708Y-100490322D01*
X118162503Y-100558143D01*
X118139966Y-100624278D01*
X118126298Y-100640514D01*
X115364786Y-103402028D01*
X114536269Y-104230545D01*
X114536267Y-104230547D01*
X114492704Y-104274110D01*
X114449141Y-104317672D01*
X114449139Y-104317675D01*
X114438878Y-104333030D01*
X114438879Y-104333031D01*
X114380689Y-104420117D01*
X114380685Y-104420124D01*
X114349112Y-104496351D01*
X114349112Y-104496352D01*
X114333538Y-104533950D01*
X114333535Y-104533960D01*
X114309500Y-104654794D01*
X114309500Y-110590000D01*
X114289815Y-110657039D01*
X114237011Y-110702794D01*
X114185500Y-110714000D01*
X113915000Y-110714000D01*
X113915000Y-111698314D01*
X113910606Y-111693920D01*
X113819394Y-111641259D01*
X113717661Y-111614000D01*
X113612339Y-111614000D01*
X113510606Y-111641259D01*
X113419394Y-111693920D01*
X113415000Y-111698314D01*
X113415000Y-110714000D01*
X113288500Y-110714000D01*
X113221461Y-110694315D01*
X113175706Y-110641511D01*
X113164500Y-110590000D01*
X113164500Y-109653167D01*
X113184185Y-109586128D01*
X113236989Y-109540373D01*
X113306147Y-109530429D01*
X113369703Y-109559454D01*
X113376181Y-109565486D01*
X113482267Y-109671572D01*
X113482271Y-109671575D01*
X113626507Y-109760542D01*
X113626518Y-109760547D01*
X113787393Y-109813855D01*
X113886683Y-109823999D01*
X113910000Y-109823998D01*
X113910000Y-107873999D01*
X113886693Y-107874000D01*
X113886674Y-107874001D01*
X113787392Y-107884144D01*
X113626518Y-107937452D01*
X113626507Y-107937457D01*
X113482271Y-108026424D01*
X113482267Y-108026427D01*
X113376181Y-108132514D01*
X113314858Y-108165999D01*
X113245166Y-108161015D01*
X113189233Y-108119143D01*
X113164816Y-108053679D01*
X113164500Y-108044833D01*
X113164500Y-100689475D01*
X113184185Y-100622436D01*
X113236989Y-100576681D01*
X113306147Y-100566737D01*
X113326820Y-100571545D01*
X113360458Y-100582475D01*
X113360461Y-100582475D01*
X113360466Y-100582477D01*
X113562648Y-100614500D01*
X113562649Y-100614500D01*
X113767351Y-100614500D01*
X113767352Y-100614500D01*
X113836371Y-100603568D01*
X113974347Y-100581715D01*
X113974672Y-100583767D01*
X114035743Y-100586802D01*
X114082627Y-100616217D01*
X114305141Y-100838732D01*
X114305142Y-100838733D01*
X114392267Y-100925858D01*
X114417708Y-100942857D01*
X114494714Y-100994311D01*
X114494715Y-100994311D01*
X114494716Y-100994312D01*
X114520502Y-101004993D01*
X114608548Y-101041463D01*
X114729388Y-101065499D01*
X114729392Y-101065500D01*
X114729393Y-101065500D01*
X116733012Y-101065500D01*
X116793434Y-101053481D01*
X116853857Y-101041463D01*
X116887197Y-101027652D01*
X116967691Y-100994312D01*
X117028769Y-100953500D01*
X117028770Y-100953500D01*
X117056159Y-100935198D01*
X117070138Y-100925858D01*
X117157263Y-100838733D01*
X117157263Y-100838731D01*
X117167471Y-100828524D01*
X117167472Y-100828521D01*
X117706227Y-100289767D01*
X117767546Y-100256285D01*
X117837238Y-100261269D01*
G37*
G04 #@! TD.AperFunction*
G04 #@! TA.AperFunction,Conductor*
G36*
X128071702Y-108254184D02*
G01*
X128092344Y-108270818D01*
X130158181Y-110336655D01*
X130191666Y-110397978D01*
X130194500Y-110424336D01*
X130194500Y-111195518D01*
X130174815Y-111262557D01*
X130122011Y-111308312D01*
X130052853Y-111318256D01*
X129989297Y-111289231D01*
X129970182Y-111268404D01*
X129896583Y-111167105D01*
X129751895Y-111022417D01*
X129586349Y-110902140D01*
X129404029Y-110809244D01*
X129209413Y-110746009D01*
X129155000Y-110737390D01*
X129155000Y-111698314D01*
X129150606Y-111693920D01*
X129059394Y-111641259D01*
X128957661Y-111614000D01*
X128852339Y-111614000D01*
X128750606Y-111641259D01*
X128659394Y-111693920D01*
X128655000Y-111698314D01*
X128655000Y-110737390D01*
X128600586Y-110746009D01*
X128405970Y-110809244D01*
X128223650Y-110902140D01*
X128058105Y-111022417D01*
X128058104Y-111022417D01*
X127913417Y-111167104D01*
X127913417Y-111167105D01*
X127793140Y-111332650D01*
X127745765Y-111425629D01*
X127697790Y-111476425D01*
X127629969Y-111493220D01*
X127563834Y-111470682D01*
X127524795Y-111425629D01*
X127477419Y-111332650D01*
X127477287Y-111332390D01*
X127467018Y-111318256D01*
X127356971Y-111166786D01*
X127212213Y-111022028D01*
X127046613Y-110901715D01*
X127046612Y-110901714D01*
X127046610Y-110901713D01*
X126973205Y-110864311D01*
X126864223Y-110808781D01*
X126669534Y-110745522D01*
X126494995Y-110717878D01*
X126467352Y-110713500D01*
X126262648Y-110713500D01*
X126238329Y-110717351D01*
X126060465Y-110745522D01*
X125865776Y-110808781D01*
X125683386Y-110901715D01*
X125517781Y-111022033D01*
X125517780Y-111022034D01*
X125501581Y-111038232D01*
X125440256Y-111071714D01*
X125370565Y-111066726D01*
X125326223Y-111038227D01*
X125110819Y-110822823D01*
X125077334Y-110761500D01*
X125074500Y-110735142D01*
X125074500Y-108358499D01*
X125094185Y-108291460D01*
X125146989Y-108245705D01*
X125198500Y-108234499D01*
X128004663Y-108234499D01*
X128071702Y-108254184D01*
G37*
G04 #@! TD.AperFunction*
G04 #@! TA.AperFunction,Conductor*
G36*
X122890879Y-100259384D02*
G01*
X122917239Y-100261270D01*
X122926292Y-100267088D01*
X122933332Y-100268620D01*
X122961586Y-100289771D01*
X122977786Y-100305971D01*
X123132749Y-100418556D01*
X123143390Y-100426287D01*
X123325781Y-100519220D01*
X123352076Y-100527763D01*
X123409750Y-100567200D01*
X123436949Y-100631559D01*
X123425035Y-100700405D01*
X123401438Y-100733375D01*
X122961582Y-101173231D01*
X122961569Y-101173244D01*
X122959864Y-101174950D01*
X122959862Y-101174952D01*
X122872737Y-101262077D01*
X122860785Y-101279965D01*
X122855358Y-101288085D01*
X122855353Y-101288092D01*
X122804285Y-101364520D01*
X122804280Y-101364529D01*
X122778218Y-101427451D01*
X122757133Y-101478353D01*
X122757133Y-101478355D01*
X122757132Y-101478358D01*
X122733095Y-101599204D01*
X122733095Y-101599206D01*
X122733095Y-105510000D01*
X122713410Y-105577039D01*
X122660606Y-105622794D01*
X122609095Y-105634000D01*
X121375000Y-105634000D01*
X121375000Y-108233999D01*
X122609095Y-108233999D01*
X122676134Y-108253684D01*
X122721889Y-108306488D01*
X122733095Y-108357999D01*
X122733095Y-110577548D01*
X122713410Y-110644587D01*
X122696776Y-110665229D01*
X122323776Y-111038229D01*
X122262453Y-111071714D01*
X122192761Y-111066730D01*
X122148414Y-111038229D01*
X122132213Y-111022028D01*
X121966613Y-110901715D01*
X121966612Y-110901714D01*
X121966610Y-110901713D01*
X121893205Y-110864311D01*
X121784223Y-110808781D01*
X121589534Y-110745522D01*
X121414995Y-110717878D01*
X121387352Y-110713500D01*
X121182648Y-110713500D01*
X121158329Y-110717351D01*
X120980465Y-110745522D01*
X120854339Y-110786504D01*
X120785781Y-110808780D01*
X120785778Y-110808781D01*
X120785770Y-110808784D01*
X120781272Y-110810647D01*
X120780754Y-110809398D01*
X120718120Y-110821158D01*
X120653381Y-110794879D01*
X120613126Y-110737771D01*
X120606500Y-110697778D01*
X120606500Y-108599984D01*
X120606500Y-108599908D01*
X120606151Y-108598155D01*
X120582463Y-108479063D01*
X120575511Y-108462280D01*
X120551971Y-108405450D01*
X120544503Y-108335981D01*
X120575779Y-108273502D01*
X120635868Y-108237851D01*
X120666533Y-108233999D01*
X120875000Y-108233999D01*
X120875000Y-105634000D01*
X119621500Y-105634000D01*
X119554461Y-105614315D01*
X119508706Y-105561511D01*
X119497500Y-105510000D01*
X119497500Y-103629857D01*
X119517185Y-103562818D01*
X119533819Y-103542176D01*
X122786224Y-100289771D01*
X122794169Y-100285432D01*
X122799595Y-100278185D01*
X122824354Y-100268950D01*
X122847547Y-100256286D01*
X122856576Y-100256931D01*
X122865059Y-100253768D01*
X122890879Y-100259384D01*
G37*
G04 #@! TD.AperFunction*
G04 #@! TA.AperFunction,Conductor*
G36*
X127359429Y-100261270D02*
G01*
X127403776Y-100289771D01*
X127949611Y-100835606D01*
X127949640Y-100835637D01*
X128039858Y-100925855D01*
X128039862Y-100925858D01*
X128142302Y-100994307D01*
X128142311Y-100994312D01*
X128163334Y-101003020D01*
X128256143Y-101041463D01*
X128316566Y-101053481D01*
X128376988Y-101065500D01*
X130184826Y-101065500D01*
X130251865Y-101085185D01*
X130297620Y-101137989D01*
X130307564Y-101207147D01*
X130295311Y-101245795D01*
X130239781Y-101354776D01*
X130176522Y-101549465D01*
X130144500Y-101751648D01*
X130144500Y-101956351D01*
X130176522Y-102158534D01*
X130239781Y-102353223D01*
X130287825Y-102447513D01*
X130318214Y-102507155D01*
X130332715Y-102535613D01*
X130453028Y-102701213D01*
X130597786Y-102845971D01*
X130752749Y-102958556D01*
X130763390Y-102966287D01*
X130854840Y-103012883D01*
X130856080Y-103013515D01*
X130906876Y-103061490D01*
X130923671Y-103129311D01*
X130901134Y-103195446D01*
X130856080Y-103234485D01*
X130763386Y-103281715D01*
X130597786Y-103402028D01*
X130453028Y-103546786D01*
X130332715Y-103712386D01*
X130239781Y-103894776D01*
X130176522Y-104089465D01*
X130144500Y-104291648D01*
X130144500Y-104496351D01*
X130176522Y-104698534D01*
X130239781Y-104893223D01*
X130332715Y-105075613D01*
X130453028Y-105241213D01*
X130597786Y-105385971D01*
X130691897Y-105454345D01*
X130763390Y-105506287D01*
X130856259Y-105553606D01*
X130945776Y-105599218D01*
X130945778Y-105599218D01*
X130945781Y-105599220D01*
X131050137Y-105633127D01*
X131140465Y-105662477D01*
X131233460Y-105677206D01*
X131342648Y-105694500D01*
X131342649Y-105694500D01*
X131547351Y-105694500D01*
X131547352Y-105694500D01*
X131749534Y-105662477D01*
X131749539Y-105662475D01*
X131749541Y-105662475D01*
X131800180Y-105646021D01*
X131870021Y-105644024D01*
X131929854Y-105680104D01*
X131960683Y-105742804D01*
X131962500Y-105763951D01*
X131962500Y-108304664D01*
X131942815Y-108371703D01*
X131890011Y-108417458D01*
X131820853Y-108427402D01*
X131757297Y-108398377D01*
X131750819Y-108392345D01*
X129338648Y-105980174D01*
X129338646Y-105980172D01*
X129179405Y-105864476D01*
X129162452Y-105855838D01*
X129004030Y-105775117D01*
X128816826Y-105714290D01*
X128622422Y-105683500D01*
X128622417Y-105683500D01*
X128317007Y-105683500D01*
X128278003Y-105677206D01*
X128276028Y-105676551D01*
X128177797Y-105644001D01*
X128177795Y-105644000D01*
X128075016Y-105633500D01*
X128075009Y-105633500D01*
X125198500Y-105633500D01*
X125131461Y-105613815D01*
X125085706Y-105561011D01*
X125074500Y-105509500D01*
X125074500Y-101540451D01*
X125094185Y-101473412D01*
X125110815Y-101452774D01*
X125947373Y-100616215D01*
X126008694Y-100582732D01*
X126055410Y-100583249D01*
X126055654Y-100581715D01*
X126159101Y-100598099D01*
X126262648Y-100614500D01*
X126262649Y-100614500D01*
X126467351Y-100614500D01*
X126467352Y-100614500D01*
X126669534Y-100582477D01*
X126864219Y-100519220D01*
X127046610Y-100426287D01*
X127139590Y-100358732D01*
X127212213Y-100305971D01*
X127212215Y-100305968D01*
X127212219Y-100305966D01*
X127228414Y-100289771D01*
X127289737Y-100256286D01*
X127359429Y-100261270D01*
G37*
G04 #@! TD.AperFunction*
G04 #@! TA.AperFunction,Conductor*
G36*
X120265000Y-94059114D02*
G01*
X120268270Y-94061908D01*
X120326051Y-94069377D01*
X120379502Y-94114374D01*
X120400140Y-94181126D01*
X120381414Y-94248439D01*
X120363834Y-94270575D01*
X116622627Y-98011781D01*
X116561304Y-98045266D01*
X116514584Y-98044776D01*
X116514346Y-98046285D01*
X116410898Y-98029900D01*
X116307352Y-98013500D01*
X116102648Y-98013500D01*
X116078329Y-98017351D01*
X115900465Y-98045522D01*
X115705776Y-98108781D01*
X115523386Y-98201715D01*
X115357786Y-98322028D01*
X115213028Y-98466786D01*
X115092715Y-98632386D01*
X115045485Y-98725080D01*
X114997510Y-98775876D01*
X114929689Y-98792671D01*
X114863554Y-98770134D01*
X114824515Y-98725080D01*
X114823883Y-98723840D01*
X114777287Y-98632390D01*
X114760954Y-98609909D01*
X114656971Y-98466786D01*
X114512213Y-98322028D01*
X114346613Y-98201714D01*
X114315084Y-98185649D01*
X114264289Y-98137673D01*
X114247495Y-98069852D01*
X114270034Y-98003718D01*
X114283694Y-97987490D01*
X117698367Y-94572819D01*
X117759690Y-94539334D01*
X117786048Y-94536500D01*
X118672121Y-94536500D01*
X118732543Y-94524481D01*
X118792966Y-94512463D01*
X118830941Y-94496733D01*
X118837492Y-94494019D01*
X118837497Y-94494018D01*
X118906795Y-94465314D01*
X118906794Y-94465314D01*
X118906800Y-94465312D01*
X118958023Y-94431084D01*
X118960586Y-94429372D01*
X118970785Y-94422556D01*
X119009247Y-94396858D01*
X119096372Y-94309733D01*
X119096373Y-94309731D01*
X119103439Y-94302665D01*
X119103442Y-94302661D01*
X119339729Y-94066374D01*
X119339733Y-94066372D01*
X119402482Y-94003622D01*
X119463801Y-93970140D01*
X119463802Y-93970140D01*
X119463804Y-93970139D01*
X119504664Y-93973062D01*
X119533493Y-93975124D01*
X119546457Y-93980822D01*
X119592750Y-94004410D01*
X119757415Y-94057914D01*
X119757414Y-94057914D01*
X119764999Y-94059115D01*
X119765000Y-94059114D01*
X119765000Y-92990330D01*
X119784745Y-93010075D01*
X119870255Y-93059444D01*
X119965630Y-93085000D01*
X120064370Y-93085000D01*
X120159745Y-93059444D01*
X120245255Y-93010075D01*
X120265000Y-92990330D01*
X120265000Y-94059114D01*
G37*
G04 #@! TD.AperFunction*
G04 #@! TA.AperFunction,Conductor*
G36*
X125088834Y-93078269D02*
G01*
X125144767Y-93120141D01*
X125169184Y-93185605D01*
X125169500Y-93194450D01*
X125169500Y-93385000D01*
X125169501Y-93385019D01*
X125180000Y-93487796D01*
X125180001Y-93487799D01*
X125231139Y-93642121D01*
X125235186Y-93654334D01*
X125327288Y-93803656D01*
X125451344Y-93927712D01*
X125600666Y-94019814D01*
X125767203Y-94074999D01*
X125869991Y-94085500D01*
X126670008Y-94085499D01*
X126670016Y-94085498D01*
X126670019Y-94085498D01*
X126726302Y-94079748D01*
X126772797Y-94074999D01*
X126939334Y-94019814D01*
X127088656Y-93927712D01*
X127212712Y-93803656D01*
X127252581Y-93739016D01*
X127304525Y-93692294D01*
X127373488Y-93681071D01*
X127437570Y-93708914D01*
X127445799Y-93716434D01*
X127553397Y-93824032D01*
X127693477Y-93925805D01*
X127747516Y-93953339D01*
X127798312Y-94001313D01*
X127815108Y-94069133D01*
X127792571Y-94135269D01*
X127778903Y-94151505D01*
X125306229Y-96624181D01*
X125279301Y-96638884D01*
X125253483Y-96655477D01*
X125247282Y-96656368D01*
X125244906Y-96657666D01*
X125218548Y-96660500D01*
X125175741Y-96660500D01*
X125175721Y-96660499D01*
X125169607Y-96660499D01*
X125046394Y-96660499D01*
X125046391Y-96660499D01*
X124945660Y-96680535D01*
X124945661Y-96680536D01*
X124925551Y-96684536D01*
X124925541Y-96684539D01*
X124893262Y-96697909D01*
X124878397Y-96704067D01*
X124811719Y-96731685D01*
X124811717Y-96731686D01*
X124709266Y-96800141D01*
X124709263Y-96800144D01*
X123983229Y-97526181D01*
X123921906Y-97559666D01*
X123895548Y-97562500D01*
X123238389Y-97562500D01*
X123182697Y-97573578D01*
X123177971Y-97574518D01*
X123134743Y-97583116D01*
X123117546Y-97586537D01*
X123003716Y-97633687D01*
X122927322Y-97684733D01*
X122927321Y-97684734D01*
X122901263Y-97702144D01*
X122901262Y-97702145D01*
X122437116Y-98166293D01*
X122300269Y-98303140D01*
X122300267Y-98303142D01*
X122295086Y-98308323D01*
X122293490Y-98309919D01*
X122232164Y-98343399D01*
X122162473Y-98338410D01*
X122132930Y-98322550D01*
X121966609Y-98201712D01*
X121784223Y-98108781D01*
X121589534Y-98045522D01*
X121414995Y-98017878D01*
X121387352Y-98013500D01*
X121182648Y-98013500D01*
X121126652Y-98022369D01*
X120980464Y-98045523D01*
X120980457Y-98045524D01*
X120946817Y-98056455D01*
X120876976Y-98058450D01*
X120817144Y-98022369D01*
X120786316Y-97959668D01*
X120784500Y-97938524D01*
X120784500Y-97331452D01*
X120804185Y-97264413D01*
X120820819Y-97243771D01*
X121758090Y-96306500D01*
X124957821Y-93106768D01*
X125019142Y-93073285D01*
X125088834Y-93078269D01*
G37*
G04 #@! TD.AperFunction*
G04 #@! TA.AperFunction,Conductor*
G36*
X116742585Y-56150185D02*
G01*
X116788340Y-56202989D01*
X116798284Y-56272147D01*
X116769259Y-56335703D01*
X116763234Y-56342173D01*
X116702202Y-56403206D01*
X116662837Y-56442571D01*
X116601513Y-56476055D01*
X116536842Y-56472821D01*
X116521246Y-56467754D01*
X116362245Y-56442571D01*
X116311287Y-56434500D01*
X116098713Y-56434500D01*
X116050042Y-56442208D01*
X115888760Y-56467753D01*
X115686585Y-56533444D01*
X115497179Y-56629951D01*
X115325215Y-56754889D01*
X115211285Y-56868819D01*
X115149962Y-56902303D01*
X115080270Y-56897319D01*
X115024337Y-56855447D01*
X115007422Y-56824470D01*
X114958354Y-56692913D01*
X114958350Y-56692906D01*
X114872190Y-56577812D01*
X114872187Y-56577809D01*
X114757093Y-56491649D01*
X114757086Y-56491645D01*
X114622379Y-56441403D01*
X114622372Y-56441401D01*
X114562844Y-56435000D01*
X113915000Y-56435000D01*
X113915000Y-57351988D01*
X113857993Y-57319075D01*
X113730826Y-57285000D01*
X113599174Y-57285000D01*
X113472007Y-57319075D01*
X113415000Y-57351988D01*
X113415000Y-56435000D01*
X112767155Y-56435000D01*
X112707627Y-56441401D01*
X112707620Y-56441403D01*
X112572913Y-56491645D01*
X112572906Y-56491649D01*
X112457812Y-56577809D01*
X112457809Y-56577812D01*
X112371649Y-56692906D01*
X112371645Y-56692913D01*
X112321403Y-56827620D01*
X112321401Y-56827627D01*
X112315000Y-56887155D01*
X112315000Y-57535000D01*
X113231988Y-57535000D01*
X113199075Y-57592007D01*
X113165000Y-57719174D01*
X113165000Y-57850826D01*
X113199075Y-57977993D01*
X113231988Y-58035000D01*
X112315000Y-58035000D01*
X112315000Y-58682844D01*
X112321401Y-58742372D01*
X112321403Y-58742379D01*
X112371645Y-58877086D01*
X112371649Y-58877093D01*
X112457809Y-58992187D01*
X112457812Y-58992190D01*
X112572906Y-59078350D01*
X112572913Y-59078354D01*
X112707620Y-59128596D01*
X112707627Y-59128598D01*
X112767155Y-59134999D01*
X112767172Y-59135000D01*
X113415000Y-59135000D01*
X113415000Y-58218012D01*
X113472007Y-58250925D01*
X113599174Y-58285000D01*
X113730826Y-58285000D01*
X113857993Y-58250925D01*
X113915000Y-58218012D01*
X113915000Y-59135000D01*
X114562828Y-59135000D01*
X114562844Y-59134999D01*
X114622372Y-59128598D01*
X114622379Y-59128596D01*
X114757086Y-59078354D01*
X114757093Y-59078350D01*
X114872187Y-58992190D01*
X114872190Y-58992187D01*
X114958350Y-58877093D01*
X114958354Y-58877086D01*
X115007422Y-58745529D01*
X115049293Y-58689595D01*
X115114757Y-58665178D01*
X115183030Y-58680030D01*
X115211285Y-58701181D01*
X115325213Y-58815109D01*
X115497179Y-58940048D01*
X115497181Y-58940049D01*
X115497184Y-58940051D01*
X115686588Y-59036557D01*
X115888757Y-59102246D01*
X116098713Y-59135500D01*
X116098714Y-59135500D01*
X116311286Y-59135500D01*
X116311287Y-59135500D01*
X116521243Y-59102246D01*
X116723412Y-59036557D01*
X116912816Y-58940051D01*
X116969866Y-58898602D01*
X117084786Y-58815109D01*
X117084788Y-58815106D01*
X117084792Y-58815104D01*
X117235104Y-58664792D01*
X117235106Y-58664788D01*
X117235109Y-58664786D01*
X117358902Y-58494397D01*
X117360051Y-58492816D01*
X117364514Y-58484054D01*
X117412488Y-58433259D01*
X117480308Y-58416463D01*
X117546444Y-58438999D01*
X117585486Y-58484056D01*
X117589951Y-58492820D01*
X117714890Y-58664786D01*
X117714896Y-58664792D01*
X117865208Y-58815104D01*
X117893384Y-58835575D01*
X117936050Y-58890902D01*
X117944500Y-58935893D01*
X117944500Y-59768846D01*
X117975261Y-59923489D01*
X117975264Y-59923501D01*
X118035602Y-60069172D01*
X118035609Y-60069185D01*
X118123210Y-60200288D01*
X118123213Y-60200292D01*
X118607954Y-60685032D01*
X118641439Y-60746355D01*
X118636455Y-60816046D01*
X118594584Y-60871980D01*
X118539672Y-60895186D01*
X118428759Y-60912753D01*
X118226585Y-60978444D01*
X118037179Y-61074951D01*
X117865213Y-61199890D01*
X117714890Y-61350213D01*
X117589949Y-61522182D01*
X117585484Y-61530946D01*
X117537509Y-61581742D01*
X117469688Y-61598536D01*
X117403553Y-61575998D01*
X117364516Y-61530946D01*
X117360050Y-61522182D01*
X117235109Y-61350213D01*
X117084786Y-61199890D01*
X116912820Y-61074951D01*
X116723414Y-60978444D01*
X116723413Y-60978443D01*
X116723412Y-60978443D01*
X116521243Y-60912754D01*
X116521241Y-60912753D01*
X116521240Y-60912753D01*
X116359957Y-60887208D01*
X116311287Y-60879500D01*
X116098713Y-60879500D01*
X116050042Y-60887208D01*
X115888760Y-60912753D01*
X115686585Y-60978444D01*
X115497179Y-61074951D01*
X115325215Y-61199889D01*
X115211285Y-61313819D01*
X115149962Y-61347303D01*
X115080270Y-61342319D01*
X115024337Y-61300447D01*
X115007422Y-61269470D01*
X114958354Y-61137913D01*
X114958350Y-61137906D01*
X114872190Y-61022812D01*
X114872187Y-61022809D01*
X114757093Y-60936649D01*
X114757086Y-60936645D01*
X114622379Y-60886403D01*
X114622372Y-60886401D01*
X114562844Y-60880000D01*
X113915000Y-60880000D01*
X113915000Y-61796988D01*
X113857993Y-61764075D01*
X113730826Y-61730000D01*
X113599174Y-61730000D01*
X113472007Y-61764075D01*
X113415000Y-61796988D01*
X113415000Y-60880000D01*
X112767155Y-60880000D01*
X112707627Y-60886401D01*
X112707620Y-60886403D01*
X112572913Y-60936645D01*
X112572906Y-60936649D01*
X112457812Y-61022809D01*
X112457809Y-61022812D01*
X112371649Y-61137906D01*
X112371645Y-61137913D01*
X112321403Y-61272620D01*
X112321401Y-61272627D01*
X112315000Y-61332155D01*
X112315000Y-61980000D01*
X113231988Y-61980000D01*
X113199075Y-62037007D01*
X113165000Y-62164174D01*
X113165000Y-62295826D01*
X113199075Y-62422993D01*
X113231988Y-62480000D01*
X112315000Y-62480000D01*
X112315000Y-63127844D01*
X112321401Y-63187372D01*
X112321403Y-63187379D01*
X112371645Y-63322086D01*
X112371649Y-63322093D01*
X112457809Y-63437187D01*
X112457812Y-63437190D01*
X112572906Y-63523350D01*
X112572913Y-63523354D01*
X112707620Y-63573596D01*
X112707627Y-63573598D01*
X112767155Y-63579999D01*
X112767172Y-63580000D01*
X113415000Y-63580000D01*
X113415000Y-62663012D01*
X113472007Y-62695925D01*
X113599174Y-62730000D01*
X113730826Y-62730000D01*
X113857993Y-62695925D01*
X113915000Y-62663012D01*
X113915000Y-63580000D01*
X114562828Y-63580000D01*
X114562844Y-63579999D01*
X114622372Y-63573598D01*
X114622379Y-63573596D01*
X114757086Y-63523354D01*
X114757093Y-63523350D01*
X114872187Y-63437190D01*
X114872190Y-63437187D01*
X114958350Y-63322093D01*
X114958354Y-63322086D01*
X115007422Y-63190529D01*
X115049293Y-63134595D01*
X115114757Y-63110178D01*
X115183030Y-63125030D01*
X115211285Y-63146181D01*
X115325213Y-63260109D01*
X115497179Y-63385048D01*
X115497181Y-63385049D01*
X115497184Y-63385051D01*
X115686588Y-63481557D01*
X115888757Y-63547246D01*
X116098713Y-63580500D01*
X116098714Y-63580500D01*
X116311286Y-63580500D01*
X116311287Y-63580500D01*
X116521243Y-63547246D01*
X116723412Y-63481557D01*
X116912816Y-63385051D01*
X116957634Y-63352489D01*
X117084786Y-63260109D01*
X117084788Y-63260106D01*
X117084792Y-63260104D01*
X117235104Y-63109792D01*
X117235106Y-63109788D01*
X117235109Y-63109786D01*
X117360048Y-62937820D01*
X117360047Y-62937820D01*
X117360051Y-62937816D01*
X117364514Y-62929054D01*
X117412488Y-62878259D01*
X117480308Y-62861463D01*
X117546444Y-62883999D01*
X117585486Y-62929056D01*
X117589951Y-62937820D01*
X117714890Y-63109786D01*
X117865213Y-63260109D01*
X118037179Y-63385048D01*
X118037181Y-63385049D01*
X118037184Y-63385051D01*
X118226588Y-63481557D01*
X118428757Y-63547246D01*
X118638713Y-63580500D01*
X118638714Y-63580500D01*
X118851286Y-63580500D01*
X118851287Y-63580500D01*
X119061243Y-63547246D01*
X119076837Y-63542178D01*
X119146676Y-63540182D01*
X119202837Y-63572428D01*
X120438818Y-64808409D01*
X120472303Y-64869732D01*
X120467319Y-64939424D01*
X120435032Y-64987400D01*
X120427980Y-64993878D01*
X120399151Y-65013142D01*
X120312026Y-65100267D01*
X120312023Y-65100270D01*
X120310185Y-65102107D01*
X120310173Y-65102119D01*
X119782275Y-65630018D01*
X119720952Y-65663503D01*
X119651260Y-65658519D01*
X119621709Y-65642655D01*
X119452820Y-65519951D01*
X119263414Y-65423444D01*
X119263413Y-65423443D01*
X119263412Y-65423443D01*
X119061243Y-65357754D01*
X119061241Y-65357753D01*
X119061240Y-65357753D01*
X118899957Y-65332208D01*
X118851287Y-65324500D01*
X118638713Y-65324500D01*
X118590042Y-65332208D01*
X118428760Y-65357753D01*
X118226585Y-65423444D01*
X118037179Y-65519951D01*
X117865213Y-65644890D01*
X117714890Y-65795213D01*
X117589949Y-65967182D01*
X117585484Y-65975946D01*
X117537509Y-66026742D01*
X117469688Y-66043536D01*
X117403553Y-66020998D01*
X117364516Y-65975946D01*
X117360050Y-65967182D01*
X117235109Y-65795213D01*
X117084786Y-65644890D01*
X116912820Y-65519951D01*
X116723414Y-65423444D01*
X116723413Y-65423443D01*
X116723412Y-65423443D01*
X116521243Y-65357754D01*
X116521241Y-65357753D01*
X116521240Y-65357753D01*
X116359957Y-65332208D01*
X116311287Y-65324500D01*
X116098713Y-65324500D01*
X116050042Y-65332208D01*
X115888760Y-65357753D01*
X115686585Y-65423444D01*
X115497179Y-65519951D01*
X115325215Y-65644889D01*
X115211285Y-65758819D01*
X115149962Y-65792303D01*
X115080270Y-65787319D01*
X115024337Y-65745447D01*
X115007422Y-65714470D01*
X114958354Y-65582913D01*
X114958350Y-65582906D01*
X114872190Y-65467812D01*
X114872187Y-65467809D01*
X114757093Y-65381649D01*
X114757086Y-65381645D01*
X114622379Y-65331403D01*
X114622372Y-65331401D01*
X114562844Y-65325000D01*
X113915000Y-65325000D01*
X113915000Y-66241988D01*
X113857993Y-66209075D01*
X113730826Y-66175000D01*
X113599174Y-66175000D01*
X113472007Y-66209075D01*
X113415000Y-66241988D01*
X113415000Y-65325000D01*
X112767155Y-65325000D01*
X112707627Y-65331401D01*
X112707620Y-65331403D01*
X112572913Y-65381645D01*
X112572906Y-65381649D01*
X112457812Y-65467809D01*
X112457809Y-65467812D01*
X112371649Y-65582906D01*
X112371645Y-65582913D01*
X112321403Y-65717620D01*
X112321401Y-65717627D01*
X112315000Y-65777155D01*
X112315000Y-66425000D01*
X113231988Y-66425000D01*
X113199075Y-66482007D01*
X113165000Y-66609174D01*
X113165000Y-66740826D01*
X113199075Y-66867993D01*
X113231988Y-66925000D01*
X112315000Y-66925000D01*
X112315000Y-67572844D01*
X112321401Y-67632372D01*
X112321403Y-67632379D01*
X112371645Y-67767086D01*
X112371649Y-67767093D01*
X112457809Y-67882187D01*
X112457812Y-67882190D01*
X112572906Y-67968350D01*
X112572913Y-67968354D01*
X112707620Y-68018596D01*
X112707627Y-68018598D01*
X112767155Y-68024999D01*
X112767172Y-68025000D01*
X113415000Y-68025000D01*
X113415000Y-67108012D01*
X113472007Y-67140925D01*
X113599174Y-67175000D01*
X113730826Y-67175000D01*
X113857993Y-67140925D01*
X113915000Y-67108012D01*
X113915000Y-68025000D01*
X114562828Y-68025000D01*
X114562844Y-68024999D01*
X114622372Y-68018598D01*
X114622379Y-68018596D01*
X114757086Y-67968354D01*
X114757093Y-67968350D01*
X114872187Y-67882190D01*
X114872190Y-67882187D01*
X114958350Y-67767093D01*
X114958354Y-67767086D01*
X115007422Y-67635529D01*
X115049293Y-67579595D01*
X115114757Y-67555178D01*
X115183030Y-67570030D01*
X115211285Y-67591181D01*
X115325213Y-67705109D01*
X115497181Y-67830050D01*
X115511792Y-67837494D01*
X115562589Y-67885467D01*
X115579500Y-67947980D01*
X115579500Y-68250321D01*
X115559815Y-68317360D01*
X115507011Y-68363115D01*
X115437853Y-68373059D01*
X115408048Y-68364882D01*
X115295501Y-68318264D01*
X115295489Y-68318261D01*
X115140845Y-68287500D01*
X115140842Y-68287500D01*
X114983158Y-68287500D01*
X114983155Y-68287500D01*
X114828510Y-68318261D01*
X114828498Y-68318264D01*
X114682827Y-68378602D01*
X114682814Y-68378609D01*
X114551711Y-68466210D01*
X114551707Y-68466213D01*
X114440213Y-68577707D01*
X114440210Y-68577711D01*
X114352609Y-68708814D01*
X114352602Y-68708827D01*
X114292264Y-68854498D01*
X114292261Y-68854508D01*
X114270141Y-68965714D01*
X114237756Y-69027625D01*
X114236205Y-69029203D01*
X113906269Y-69359140D01*
X113819144Y-69446264D01*
X113819138Y-69446272D01*
X113750690Y-69548708D01*
X113750688Y-69548713D01*
X113733684Y-69589763D01*
X113733680Y-69589775D01*
X113731221Y-69595713D01*
X113703537Y-69662548D01*
X113693836Y-69711318D01*
X113687474Y-69743307D01*
X113686353Y-69748938D01*
X113686351Y-69748948D01*
X113679500Y-69783392D01*
X113679500Y-69887722D01*
X113659815Y-69954761D01*
X113607011Y-70000516D01*
X113542249Y-70011012D01*
X113532838Y-70010000D01*
X113285000Y-70010000D01*
X113285000Y-72510000D01*
X113532828Y-72510000D01*
X113532844Y-72509999D01*
X113592372Y-72503598D01*
X113592375Y-72503597D01*
X113625949Y-72491075D01*
X113695640Y-72486089D01*
X113712619Y-72491075D01*
X113747511Y-72504089D01*
X113747512Y-72504089D01*
X113747517Y-72504091D01*
X113807127Y-72510500D01*
X114802872Y-72510499D01*
X114807233Y-72510030D01*
X114875994Y-72522429D01*
X114927136Y-72570034D01*
X114944500Y-72633318D01*
X114944500Y-73117650D01*
X114924815Y-73184689D01*
X114923602Y-73186541D01*
X114860609Y-73280815D01*
X114860602Y-73280828D01*
X114800264Y-73426498D01*
X114800261Y-73426510D01*
X114769500Y-73581153D01*
X114769500Y-73738846D01*
X114800261Y-73893489D01*
X114800264Y-73893501D01*
X114860602Y-74039172D01*
X114860609Y-74039185D01*
X114948210Y-74170288D01*
X114948213Y-74170292D01*
X115059707Y-74281786D01*
X115059711Y-74281789D01*
X115190814Y-74369390D01*
X115190827Y-74369397D01*
X115315410Y-74421000D01*
X115336503Y-74429737D01*
X115491153Y-74460499D01*
X115491156Y-74460500D01*
X115491158Y-74460500D01*
X115648844Y-74460500D01*
X115648845Y-74460499D01*
X115803497Y-74429737D01*
X115949179Y-74369394D01*
X116080289Y-74281789D01*
X116191789Y-74170289D01*
X116279394Y-74039179D01*
X116288392Y-74017457D01*
X116319966Y-73941229D01*
X116339737Y-73893497D01*
X116370500Y-73738842D01*
X116370500Y-73581158D01*
X116370500Y-73581155D01*
X116370499Y-73581153D01*
X116339737Y-73426503D01*
X116320182Y-73379292D01*
X116279397Y-73280828D01*
X116279396Y-73280827D01*
X116279394Y-73280821D01*
X116216397Y-73186539D01*
X116195520Y-73119863D01*
X116195500Y-73117650D01*
X116195500Y-72632243D01*
X116215185Y-72565204D01*
X116267989Y-72519449D01*
X116332756Y-72508954D01*
X116347127Y-72510500D01*
X117342872Y-72510499D01*
X117402483Y-72504091D01*
X117436667Y-72491340D01*
X117506358Y-72486357D01*
X117523327Y-72491338D01*
X117557517Y-72504091D01*
X117617127Y-72510500D01*
X118489801Y-72510499D01*
X118556840Y-72530183D01*
X118602595Y-72582987D01*
X118612539Y-72652146D01*
X118611418Y-72658690D01*
X118579500Y-72819153D01*
X118579500Y-72976846D01*
X118610261Y-73131489D01*
X118610264Y-73131501D01*
X118670602Y-73277172D01*
X118670609Y-73277185D01*
X118758210Y-73408288D01*
X118758213Y-73408292D01*
X118869707Y-73519786D01*
X118869711Y-73519789D01*
X119000814Y-73607390D01*
X119000827Y-73607397D01*
X119122288Y-73657707D01*
X119146503Y-73667737D01*
X119301153Y-73698499D01*
X119301156Y-73698500D01*
X119301158Y-73698500D01*
X119458844Y-73698500D01*
X119458845Y-73698499D01*
X119613497Y-73667737D01*
X119759179Y-73607394D01*
X119890289Y-73519789D01*
X120001789Y-73408289D01*
X120089394Y-73277179D01*
X120149737Y-73131497D01*
X120180500Y-72976842D01*
X120180500Y-72819158D01*
X120180500Y-72819155D01*
X120148581Y-72658691D01*
X120154808Y-72589099D01*
X120197671Y-72533922D01*
X120263561Y-72510677D01*
X120270164Y-72510499D01*
X121152872Y-72510499D01*
X121152875Y-72510498D01*
X121152885Y-72510498D01*
X121162243Y-72509492D01*
X121231003Y-72521896D01*
X121282141Y-72569506D01*
X121299500Y-72632781D01*
X121299500Y-77326393D01*
X121299500Y-77449607D01*
X121299500Y-77449609D01*
X121299499Y-77449609D01*
X121309776Y-77501269D01*
X121309776Y-77501273D01*
X121309777Y-77501273D01*
X121323426Y-77569899D01*
X121323535Y-77570446D01*
X121370688Y-77684287D01*
X121382981Y-77702683D01*
X121390268Y-77713588D01*
X121439142Y-77786733D01*
X121526267Y-77873858D01*
X121526270Y-77873860D01*
X121534176Y-77881766D01*
X121580729Y-77928319D01*
X121614214Y-77989642D01*
X121609230Y-78059334D01*
X121567358Y-78115267D01*
X121501894Y-78139684D01*
X121493048Y-78140000D01*
X121327155Y-78140000D01*
X121267627Y-78146401D01*
X121267616Y-78146403D01*
X121180832Y-78178772D01*
X121111141Y-78183756D01*
X121094168Y-78178772D01*
X121007383Y-78146403D01*
X121007372Y-78146401D01*
X120947844Y-78140000D01*
X120625000Y-78140000D01*
X120625000Y-78915000D01*
X121776000Y-78915000D01*
X121843039Y-78934685D01*
X121888794Y-78987489D01*
X121900000Y-79039000D01*
X121900000Y-79165000D01*
X122026000Y-79165000D01*
X122093039Y-79184685D01*
X122138794Y-79237489D01*
X122150000Y-79289000D01*
X122150000Y-82091000D01*
X122130315Y-82158039D01*
X122077511Y-82203794D01*
X122026000Y-82215000D01*
X121900000Y-82215000D01*
X121900000Y-82341000D01*
X121880315Y-82408039D01*
X121827511Y-82453794D01*
X121776000Y-82465000D01*
X120625000Y-82465000D01*
X120625000Y-83240000D01*
X120947828Y-83240000D01*
X120947844Y-83239999D01*
X121007377Y-83233597D01*
X121007379Y-83233597D01*
X121094165Y-83201227D01*
X121163857Y-83196241D01*
X121180835Y-83201227D01*
X121267621Y-83233597D01*
X121327155Y-83239999D01*
X121327172Y-83240000D01*
X121493048Y-83240000D01*
X121560087Y-83259685D01*
X121605842Y-83312489D01*
X121615786Y-83381647D01*
X121586761Y-83445203D01*
X121580729Y-83451681D01*
X118826229Y-86206181D01*
X118764906Y-86239666D01*
X118738548Y-86242500D01*
X118144350Y-86242500D01*
X118077311Y-86222815D01*
X118075459Y-86221602D01*
X117981184Y-86158609D01*
X117981172Y-86158602D01*
X117835501Y-86098264D01*
X117835489Y-86098261D01*
X117680845Y-86067500D01*
X117680842Y-86067500D01*
X117523158Y-86067500D01*
X117523155Y-86067500D01*
X117368510Y-86098261D01*
X117368498Y-86098264D01*
X117222827Y-86158602D01*
X117222814Y-86158609D01*
X117091711Y-86246210D01*
X117091707Y-86246213D01*
X116980213Y-86357707D01*
X116980210Y-86357711D01*
X116892609Y-86488814D01*
X116892602Y-86488827D01*
X116832264Y-86634498D01*
X116832261Y-86634510D01*
X116801500Y-86789153D01*
X116801500Y-86946846D01*
X116832261Y-87101489D01*
X116832264Y-87101501D01*
X116892602Y-87247172D01*
X116892609Y-87247185D01*
X116938997Y-87316609D01*
X116959875Y-87383287D01*
X116941390Y-87450667D01*
X116889412Y-87497357D01*
X116835895Y-87509500D01*
X116463977Y-87509500D01*
X116396938Y-87489815D01*
X116351183Y-87437011D01*
X116342360Y-87409692D01*
X116339737Y-87396503D01*
X116303222Y-87308347D01*
X116279397Y-87250827D01*
X116279390Y-87250814D01*
X116191789Y-87119711D01*
X116191786Y-87119707D01*
X116080292Y-87008213D01*
X116080288Y-87008210D01*
X115949185Y-86920609D01*
X115949172Y-86920602D01*
X115803501Y-86860264D01*
X115803489Y-86860261D01*
X115648845Y-86829500D01*
X115648842Y-86829500D01*
X115491158Y-86829500D01*
X115491155Y-86829500D01*
X115336510Y-86860261D01*
X115336507Y-86860262D01*
X115336506Y-86860262D01*
X115336503Y-86860263D01*
X115283774Y-86882104D01*
X115191952Y-86920137D01*
X115122482Y-86927605D01*
X115060003Y-86896329D01*
X115024351Y-86836240D01*
X115020500Y-86805575D01*
X115020500Y-86351155D01*
X115020499Y-86351153D01*
X114999625Y-86246213D01*
X114989737Y-86196503D01*
X114985031Y-86185142D01*
X114929397Y-86050827D01*
X114929390Y-86050814D01*
X114841789Y-85919711D01*
X114841786Y-85919707D01*
X114730292Y-85808213D01*
X114730288Y-85808210D01*
X114599185Y-85720609D01*
X114599172Y-85720602D01*
X114453501Y-85660264D01*
X114453489Y-85660261D01*
X114298845Y-85629500D01*
X114298842Y-85629500D01*
X114141158Y-85629500D01*
X114141155Y-85629500D01*
X113986510Y-85660261D01*
X113986498Y-85660264D01*
X113840827Y-85720602D01*
X113840814Y-85720609D01*
X113709711Y-85808210D01*
X113709707Y-85808213D01*
X113598213Y-85919707D01*
X113598210Y-85919711D01*
X113510609Y-86050814D01*
X113510602Y-86050827D01*
X113450264Y-86196498D01*
X113450261Y-86196510D01*
X113419500Y-86351153D01*
X113419500Y-87386000D01*
X113399815Y-87453039D01*
X113347011Y-87498794D01*
X113295500Y-87510000D01*
X113285000Y-87510000D01*
X113285000Y-90010000D01*
X113532828Y-90010000D01*
X113532834Y-90009999D01*
X113542240Y-90008988D01*
X113611000Y-90021391D01*
X113662139Y-90068999D01*
X113679500Y-90132277D01*
X113679500Y-90464190D01*
X113659815Y-90531229D01*
X113607011Y-90576984D01*
X113537853Y-90586928D01*
X113490404Y-90569729D01*
X113423490Y-90528456D01*
X113423481Y-90528452D01*
X113262606Y-90475144D01*
X113163322Y-90465000D01*
X113140000Y-90465000D01*
X113140000Y-92414999D01*
X113163308Y-92414999D01*
X113163322Y-92414998D01*
X113262607Y-92404855D01*
X113423481Y-92351547D01*
X113423492Y-92351542D01*
X113567731Y-92262573D01*
X113576959Y-92253345D01*
X113638279Y-92219856D01*
X113707971Y-92224835D01*
X113752327Y-92253339D01*
X113761955Y-92262967D01*
X113761959Y-92262970D01*
X113906294Y-92351998D01*
X113906297Y-92351999D01*
X113906303Y-92352003D01*
X114067292Y-92405349D01*
X114166655Y-92415500D01*
X114713344Y-92415499D01*
X114713352Y-92415498D01*
X114713355Y-92415498D01*
X114767911Y-92409925D01*
X114812708Y-92405349D01*
X114973697Y-92352003D01*
X115118044Y-92262968D01*
X115237968Y-92143044D01*
X115327003Y-91998697D01*
X115380349Y-91837708D01*
X115390500Y-91738345D01*
X115390499Y-91141656D01*
X115383980Y-91077842D01*
X115380349Y-91042292D01*
X115380348Y-91042289D01*
X115354634Y-90964689D01*
X115327003Y-90881303D01*
X115326999Y-90881297D01*
X115326998Y-90881294D01*
X115237970Y-90736959D01*
X115237967Y-90736955D01*
X115118044Y-90617032D01*
X115118040Y-90617029D01*
X114989403Y-90537684D01*
X114942678Y-90485736D01*
X114930500Y-90432146D01*
X114930500Y-90132781D01*
X114950185Y-90065742D01*
X115002989Y-90019987D01*
X115067756Y-90009492D01*
X115077127Y-90010500D01*
X116072872Y-90010499D01*
X116072875Y-90010498D01*
X116072885Y-90010498D01*
X116082243Y-90009492D01*
X116151003Y-90021896D01*
X116202141Y-90069506D01*
X116219500Y-90132781D01*
X116219500Y-91478393D01*
X116219500Y-91601607D01*
X116223646Y-91622451D01*
X116243537Y-91722452D01*
X116250120Y-91738344D01*
X116253835Y-91747313D01*
X116253836Y-91747317D01*
X116290685Y-91836280D01*
X116290687Y-91836283D01*
X116290688Y-91836286D01*
X116322630Y-91884090D01*
X116324914Y-91887507D01*
X116324915Y-91887509D01*
X116359141Y-91938733D01*
X116450586Y-92030178D01*
X116450608Y-92030198D01*
X116878181Y-92457771D01*
X116911666Y-92519094D01*
X116914500Y-92545452D01*
X116914500Y-93385001D01*
X116914501Y-93385019D01*
X116925001Y-93487800D01*
X116926418Y-93494419D01*
X116923595Y-93495023D01*
X116925534Y-93552074D01*
X116893120Y-93608882D01*
X112222181Y-98279822D01*
X112160858Y-98313307D01*
X112091166Y-98308323D01*
X112035233Y-98266451D01*
X112010816Y-98200987D01*
X112010500Y-98192141D01*
X112010500Y-92359161D01*
X112030185Y-92292122D01*
X112082989Y-92246367D01*
X112152147Y-92236423D01*
X112205711Y-92259445D01*
X112206121Y-92258782D01*
X112210612Y-92261552D01*
X112211414Y-92261897D01*
X112212275Y-92262577D01*
X112356507Y-92351542D01*
X112356518Y-92351547D01*
X112517393Y-92404855D01*
X112616683Y-92414999D01*
X112640000Y-92414998D01*
X112640000Y-90464999D01*
X112616693Y-90465000D01*
X112616674Y-90465001D01*
X112517392Y-90475144D01*
X112356518Y-90528452D01*
X112356507Y-90528457D01*
X112212269Y-90617425D01*
X112211405Y-90618109D01*
X112210701Y-90618392D01*
X112206121Y-90621218D01*
X112205638Y-90620435D01*
X112146607Y-90644245D01*
X112077966Y-90631201D01*
X112027274Y-90583117D01*
X112010500Y-90520838D01*
X112010500Y-89949240D01*
X112030185Y-89882201D01*
X112082989Y-89836446D01*
X112152147Y-89826502D01*
X112215703Y-89855527D01*
X112222181Y-89861559D01*
X112227812Y-89867190D01*
X112342906Y-89953350D01*
X112342913Y-89953354D01*
X112477620Y-90003596D01*
X112477627Y-90003598D01*
X112537155Y-90009999D01*
X112537172Y-90010000D01*
X112785000Y-90010000D01*
X112785000Y-87510000D01*
X112537155Y-87510000D01*
X112477627Y-87516401D01*
X112477620Y-87516403D01*
X112342913Y-87566645D01*
X112342906Y-87566649D01*
X112227812Y-87652809D01*
X112222181Y-87658441D01*
X112160858Y-87691926D01*
X112091166Y-87686942D01*
X112035233Y-87645070D01*
X112010816Y-87579606D01*
X112010500Y-87570760D01*
X112010500Y-82787844D01*
X117825000Y-82787844D01*
X117831401Y-82847372D01*
X117831403Y-82847379D01*
X117881645Y-82982086D01*
X117881649Y-82982093D01*
X117967809Y-83097187D01*
X117967812Y-83097190D01*
X118082906Y-83183350D01*
X118082913Y-83183354D01*
X118217620Y-83233596D01*
X118217627Y-83233598D01*
X118277155Y-83239999D01*
X118277172Y-83240000D01*
X118600000Y-83240000D01*
X119100000Y-83240000D01*
X119422828Y-83240000D01*
X119422844Y-83239999D01*
X119482377Y-83233597D01*
X119482379Y-83233597D01*
X119569165Y-83201227D01*
X119638857Y-83196241D01*
X119655835Y-83201227D01*
X119742621Y-83233597D01*
X119802155Y-83239999D01*
X119802172Y-83240000D01*
X120125000Y-83240000D01*
X120125000Y-82465000D01*
X119100000Y-82465000D01*
X119100000Y-83240000D01*
X118600000Y-83240000D01*
X118600000Y-82465000D01*
X117825000Y-82465000D01*
X117825000Y-82787844D01*
X112010500Y-82787844D01*
X112010500Y-81262844D01*
X117825000Y-81262844D01*
X117831401Y-81322372D01*
X117831403Y-81322383D01*
X117863772Y-81409168D01*
X117868756Y-81478859D01*
X117863772Y-81495832D01*
X117831403Y-81582616D01*
X117831401Y-81582627D01*
X117825000Y-81642155D01*
X117825000Y-81965000D01*
X118600000Y-81965000D01*
X119100000Y-81965000D01*
X120125000Y-81965000D01*
X120625000Y-81965000D01*
X121650000Y-81965000D01*
X121650000Y-80940000D01*
X120625000Y-80940000D01*
X120625000Y-81965000D01*
X120125000Y-81965000D01*
X120125000Y-80940000D01*
X119100000Y-80940000D01*
X119100000Y-81965000D01*
X118600000Y-81965000D01*
X118600000Y-80940000D01*
X117825000Y-80940000D01*
X117825000Y-81262844D01*
X112010500Y-81262844D01*
X112010500Y-79737844D01*
X117825000Y-79737844D01*
X117831401Y-79797372D01*
X117831403Y-79797383D01*
X117863772Y-79884168D01*
X117868756Y-79953859D01*
X117863772Y-79970832D01*
X117831403Y-80057616D01*
X117831401Y-80057627D01*
X117825000Y-80117155D01*
X117825000Y-80440000D01*
X118600000Y-80440000D01*
X119100000Y-80440000D01*
X120125000Y-80440000D01*
X120625000Y-80440000D01*
X121650000Y-80440000D01*
X121650000Y-79415000D01*
X120625000Y-79415000D01*
X120625000Y-80440000D01*
X120125000Y-80440000D01*
X120125000Y-79415000D01*
X119100000Y-79415000D01*
X119100000Y-80440000D01*
X118600000Y-80440000D01*
X118600000Y-79415000D01*
X117825000Y-79415000D01*
X117825000Y-79737844D01*
X112010500Y-79737844D01*
X112010500Y-78592155D01*
X117825000Y-78592155D01*
X117825000Y-78915000D01*
X118600000Y-78915000D01*
X119100000Y-78915000D01*
X120125000Y-78915000D01*
X120125000Y-78140000D01*
X119802155Y-78140000D01*
X119742627Y-78146401D01*
X119742616Y-78146403D01*
X119655832Y-78178772D01*
X119586141Y-78183756D01*
X119569168Y-78178772D01*
X119482383Y-78146403D01*
X119482372Y-78146401D01*
X119422844Y-78140000D01*
X119100000Y-78140000D01*
X119100000Y-78915000D01*
X118600000Y-78915000D01*
X118600000Y-78140000D01*
X118277155Y-78140000D01*
X118217627Y-78146401D01*
X118217620Y-78146403D01*
X118082913Y-78196645D01*
X118082906Y-78196649D01*
X117967812Y-78282809D01*
X117967809Y-78282812D01*
X117881649Y-78397906D01*
X117881645Y-78397913D01*
X117831403Y-78532620D01*
X117831401Y-78532627D01*
X117825000Y-78592155D01*
X112010500Y-78592155D01*
X112010500Y-72449240D01*
X112030185Y-72382201D01*
X112082989Y-72336446D01*
X112152147Y-72326502D01*
X112215703Y-72355527D01*
X112222181Y-72361559D01*
X112227812Y-72367190D01*
X112342906Y-72453350D01*
X112342913Y-72453354D01*
X112477620Y-72503596D01*
X112477627Y-72503598D01*
X112537155Y-72509999D01*
X112537172Y-72510000D01*
X112785000Y-72510000D01*
X112785000Y-70010000D01*
X112537155Y-70010000D01*
X112477627Y-70016401D01*
X112477620Y-70016403D01*
X112342913Y-70066645D01*
X112342906Y-70066649D01*
X112227812Y-70152809D01*
X112222181Y-70158441D01*
X112160858Y-70191926D01*
X112091166Y-70186942D01*
X112035233Y-70145070D01*
X112010816Y-70079606D01*
X112010500Y-70070760D01*
X112010500Y-56254500D01*
X112030185Y-56187461D01*
X112082989Y-56141706D01*
X112134500Y-56130500D01*
X116675546Y-56130500D01*
X116742585Y-56150185D01*
G37*
G04 #@! TD.AperFunction*
G04 #@! TA.AperFunction,Conductor*
G36*
X121427127Y-90010500D02*
G01*
X121586546Y-90010499D01*
X121653586Y-90030183D01*
X121674228Y-90046818D01*
X122364205Y-90736795D01*
X122397690Y-90798118D01*
X122398141Y-90800285D01*
X122420261Y-90911489D01*
X122420264Y-90911501D01*
X122480602Y-91057172D01*
X122480609Y-91057185D01*
X122568210Y-91188288D01*
X122568213Y-91188292D01*
X122679707Y-91299786D01*
X122679711Y-91299789D01*
X122810814Y-91387390D01*
X122810827Y-91387397D01*
X122947804Y-91444134D01*
X123002208Y-91487974D01*
X123024273Y-91554269D01*
X123006994Y-91621968D01*
X122988033Y-91646376D01*
X121300575Y-93333834D01*
X121239252Y-93367319D01*
X121169560Y-93362335D01*
X121113627Y-93320463D01*
X121089210Y-93254999D01*
X121090421Y-93226755D01*
X121115000Y-93071571D01*
X121115000Y-92960000D01*
X120295330Y-92960000D01*
X120315075Y-92940255D01*
X120364444Y-92854745D01*
X120390000Y-92759370D01*
X120390000Y-92660630D01*
X120364444Y-92565255D01*
X120315075Y-92479745D01*
X120295330Y-92460000D01*
X121115000Y-92460000D01*
X121115000Y-92348428D01*
X121087914Y-92177415D01*
X121034408Y-92012742D01*
X120967218Y-91880876D01*
X120954322Y-91812207D01*
X120980598Y-91747466D01*
X121030259Y-91710017D01*
X121034179Y-91708394D01*
X121165289Y-91620789D01*
X121276789Y-91509289D01*
X121364394Y-91378179D01*
X121371060Y-91362087D01*
X121406320Y-91276959D01*
X121424737Y-91232497D01*
X121455500Y-91077842D01*
X121455500Y-90920158D01*
X121455500Y-90920155D01*
X121455499Y-90920153D01*
X121447769Y-90881294D01*
X121424737Y-90765503D01*
X121423863Y-90763393D01*
X121364397Y-90619828D01*
X121364396Y-90619827D01*
X121364394Y-90619821D01*
X121301397Y-90525539D01*
X121280520Y-90458863D01*
X121280500Y-90456650D01*
X121280500Y-90132781D01*
X121284911Y-90117758D01*
X121284353Y-90102111D01*
X121294553Y-90084919D01*
X121300185Y-90065742D01*
X121312015Y-90055490D01*
X121320007Y-90042023D01*
X121337884Y-90033075D01*
X121352989Y-90019987D01*
X121369321Y-90017340D01*
X121382487Y-90010751D01*
X121417753Y-90009492D01*
X121427127Y-90010500D01*
G37*
G04 #@! TD.AperFunction*
G04 #@! TA.AperFunction,Conductor*
G36*
X128947227Y-89994388D02*
G01*
X128949772Y-89994285D01*
X128965570Y-89995905D01*
X128987517Y-90004091D01*
X129047127Y-90010500D01*
X129107851Y-90010499D01*
X129114153Y-90011146D01*
X129140856Y-90022054D01*
X129168538Y-90030182D01*
X129172804Y-90035105D01*
X129178834Y-90037569D01*
X129195402Y-90061185D01*
X129214293Y-90082986D01*
X129215219Y-90089432D01*
X129218962Y-90094766D01*
X129225500Y-90134499D01*
X129225500Y-91535503D01*
X129205815Y-91602542D01*
X129153011Y-91648297D01*
X129083853Y-91658241D01*
X129020297Y-91629216D01*
X129013819Y-91623184D01*
X128986602Y-91595967D01*
X128846524Y-91494195D01*
X128692257Y-91415591D01*
X128527589Y-91362087D01*
X128527581Y-91362085D01*
X128520000Y-91360884D01*
X128520000Y-92429670D01*
X128500255Y-92409925D01*
X128414745Y-92360556D01*
X128319370Y-92335000D01*
X128220630Y-92335000D01*
X128125255Y-92360556D01*
X128039745Y-92409925D01*
X128020000Y-92429670D01*
X128020000Y-91360884D01*
X128019999Y-91360884D01*
X128012418Y-91362085D01*
X128012410Y-91362087D01*
X127847740Y-91415592D01*
X127844466Y-91417261D01*
X127775796Y-91430153D01*
X127711057Y-91403873D01*
X127670803Y-91346765D01*
X127667815Y-91276959D01*
X127700494Y-91219094D01*
X128673729Y-90245860D01*
X128673733Y-90245858D01*
X128760858Y-90158733D01*
X128829311Y-90056286D01*
X128829311Y-90056285D01*
X128832696Y-90051220D01*
X128834445Y-90052389D01*
X128841932Y-90044763D01*
X128852181Y-90027297D01*
X128865910Y-90020340D01*
X128876694Y-90009357D01*
X128896441Y-90004870D01*
X128914507Y-89995717D01*
X128941570Y-89994618D01*
X128944828Y-89993878D01*
X128947227Y-89994388D01*
G37*
G04 #@! TD.AperFunction*
G04 #@! TA.AperFunction,Conductor*
G36*
X128953327Y-72491338D02*
G01*
X128976908Y-72500134D01*
X128987511Y-72504089D01*
X128987517Y-72504091D01*
X129047127Y-72510500D01*
X129740547Y-72510499D01*
X129807586Y-72530183D01*
X129828228Y-72546818D01*
X130409229Y-73127819D01*
X130442714Y-73189142D01*
X130437730Y-73258834D01*
X130395858Y-73314767D01*
X130330394Y-73339184D01*
X130321548Y-73339500D01*
X129997130Y-73339500D01*
X129997123Y-73339501D01*
X129937516Y-73345908D01*
X129802671Y-73396202D01*
X129802664Y-73396206D01*
X129687455Y-73482452D01*
X129687452Y-73482455D01*
X129601206Y-73597664D01*
X129601202Y-73597671D01*
X129550908Y-73732517D01*
X129544501Y-73792116D01*
X129544500Y-73792135D01*
X129544500Y-74787870D01*
X129544501Y-74787876D01*
X129550908Y-74847481D01*
X129563659Y-74881669D01*
X129568642Y-74951361D01*
X129563659Y-74968331D01*
X129550908Y-75002518D01*
X129544501Y-75062116D01*
X129544500Y-75062135D01*
X129544500Y-76057870D01*
X129544501Y-76057876D01*
X129550908Y-76117481D01*
X129563659Y-76151669D01*
X129568642Y-76221361D01*
X129563659Y-76238331D01*
X129550908Y-76272518D01*
X129544501Y-76332116D01*
X129544500Y-76332135D01*
X129544500Y-77327870D01*
X129544501Y-77327876D01*
X129550908Y-77387481D01*
X129563659Y-77421669D01*
X129568642Y-77491361D01*
X129563659Y-77508331D01*
X129550908Y-77542518D01*
X129546158Y-77586707D01*
X129544501Y-77602123D01*
X129544500Y-77602135D01*
X129544500Y-78597870D01*
X129544501Y-78597876D01*
X129550908Y-78657481D01*
X129563659Y-78691669D01*
X129568642Y-78761361D01*
X129563659Y-78778331D01*
X129550908Y-78812518D01*
X129544501Y-78872116D01*
X129544501Y-78872123D01*
X129544500Y-78872135D01*
X129544500Y-79867870D01*
X129544501Y-79867876D01*
X129550908Y-79927481D01*
X129563659Y-79961669D01*
X129568642Y-80031361D01*
X129563659Y-80048331D01*
X129550908Y-80082518D01*
X129544501Y-80142116D01*
X129544501Y-80142123D01*
X129544500Y-80142135D01*
X129544500Y-81137870D01*
X129544501Y-81137876D01*
X129550908Y-81197481D01*
X129563659Y-81231669D01*
X129568642Y-81301361D01*
X129563659Y-81318331D01*
X129550908Y-81352518D01*
X129544818Y-81409168D01*
X129544501Y-81412123D01*
X129544500Y-81412135D01*
X129544500Y-82407870D01*
X129544501Y-82407876D01*
X129550908Y-82467481D01*
X129563659Y-82501669D01*
X129568642Y-82571361D01*
X129563659Y-82588331D01*
X129550908Y-82622518D01*
X129544501Y-82682116D01*
X129544501Y-82682123D01*
X129544500Y-82682135D01*
X129544500Y-83677870D01*
X129544501Y-83677876D01*
X129550908Y-83737481D01*
X129563659Y-83771669D01*
X129568642Y-83841361D01*
X129563659Y-83858331D01*
X129550908Y-83892518D01*
X129544501Y-83952116D01*
X129544500Y-83952135D01*
X129544500Y-84947870D01*
X129544501Y-84947876D01*
X129550908Y-85007483D01*
X129563925Y-85042381D01*
X129565277Y-85061289D01*
X129571570Y-85079170D01*
X129568151Y-85101475D01*
X129568909Y-85112072D01*
X129568398Y-85114321D01*
X129545001Y-85213001D01*
X129531400Y-85236843D01*
X129520895Y-85262203D01*
X129514336Y-85266756D01*
X129510381Y-85273691D01*
X129486050Y-85286395D01*
X129463502Y-85302050D01*
X129455523Y-85302334D01*
X129448446Y-85306030D01*
X129421104Y-85303562D01*
X129393676Y-85304541D01*
X129386468Y-85300436D01*
X129378859Y-85299750D01*
X129361374Y-85286146D01*
X129336665Y-85272075D01*
X126645819Y-82581229D01*
X126612334Y-82519906D01*
X126609500Y-82493548D01*
X126609500Y-74532452D01*
X126629185Y-74465413D01*
X126645819Y-74444771D01*
X128543774Y-72546818D01*
X128605097Y-72513333D01*
X128631455Y-72510499D01*
X128772871Y-72510499D01*
X128772872Y-72510499D01*
X128832483Y-72504091D01*
X128866667Y-72491340D01*
X128936358Y-72486357D01*
X128953327Y-72491338D01*
G37*
G04 #@! TD.AperFunction*
G04 #@! TA.AperFunction,Conductor*
G36*
X131544007Y-70657040D02*
G01*
X131589762Y-70709844D01*
X131600968Y-70761355D01*
X131600968Y-70787855D01*
X134200968Y-70787855D01*
X134200968Y-70761355D01*
X134220653Y-70694316D01*
X134273457Y-70648561D01*
X134324968Y-70637355D01*
X136526468Y-70637355D01*
X136593507Y-70657040D01*
X136639262Y-70709844D01*
X136650468Y-70761355D01*
X136650468Y-72385725D01*
X136650469Y-72385731D01*
X136656876Y-72445338D01*
X136707170Y-72580183D01*
X136707174Y-72580190D01*
X136793420Y-72695399D01*
X136793423Y-72695402D01*
X136908632Y-72781648D01*
X136908639Y-72781652D01*
X137043485Y-72831946D01*
X137043484Y-72831946D01*
X137050412Y-72832690D01*
X137103095Y-72838355D01*
X137898840Y-72838354D01*
X137958451Y-72831946D01*
X138007633Y-72813601D01*
X138077323Y-72808616D01*
X138094301Y-72813602D01*
X138143476Y-72831943D01*
X138143479Y-72831943D01*
X138143485Y-72831946D01*
X138203095Y-72838355D01*
X138951468Y-72838354D01*
X139018507Y-72858038D01*
X139064262Y-72910842D01*
X139075468Y-72962354D01*
X139075468Y-75044016D01*
X139055783Y-75111055D01*
X139002979Y-75156810D01*
X138933821Y-75166754D01*
X138870265Y-75137729D01*
X138863787Y-75131697D01*
X138727404Y-74995314D01*
X138693919Y-74933991D01*
X138696011Y-74873030D01*
X138697598Y-74867568D01*
X138700500Y-74830694D01*
X138700500Y-74399306D01*
X138697598Y-74362431D01*
X138675549Y-74286540D01*
X138651745Y-74204606D01*
X138651744Y-74204603D01*
X138651744Y-74204602D01*
X138568081Y-74063135D01*
X138568079Y-74063133D01*
X138568076Y-74063129D01*
X138451870Y-73946923D01*
X138451862Y-73946917D01*
X138310396Y-73863255D01*
X138310393Y-73863254D01*
X138152573Y-73817402D01*
X138152567Y-73817401D01*
X138115701Y-73814500D01*
X138115694Y-73814500D01*
X137597953Y-73814500D01*
X137530914Y-73794815D01*
X137510272Y-73778181D01*
X136495322Y-72763232D01*
X136485359Y-72753269D01*
X136485358Y-72753267D01*
X136398233Y-72666142D01*
X136347009Y-72631915D01*
X136295786Y-72597688D01*
X136295783Y-72597686D01*
X136295780Y-72597685D01*
X136215292Y-72564347D01*
X136204253Y-72559774D01*
X136176944Y-72548462D01*
X136176941Y-72548459D01*
X136151579Y-72533258D01*
X136151354Y-72533595D01*
X136015185Y-72442609D01*
X136015172Y-72442602D01*
X135869501Y-72382264D01*
X135869489Y-72382261D01*
X135714845Y-72351500D01*
X135714842Y-72351500D01*
X135557158Y-72351500D01*
X135557155Y-72351500D01*
X135402510Y-72382261D01*
X135402498Y-72382264D01*
X135256827Y-72442602D01*
X135256814Y-72442609D01*
X135125711Y-72530210D01*
X135125707Y-72530213D01*
X135014213Y-72641707D01*
X135014210Y-72641711D01*
X134926609Y-72772814D01*
X134926602Y-72772827D01*
X134866264Y-72918498D01*
X134866261Y-72918510D01*
X134835500Y-73073153D01*
X134835500Y-73230846D01*
X134835921Y-73232962D01*
X134835819Y-73234092D01*
X134836097Y-73236907D01*
X134835563Y-73236959D01*
X134829694Y-73302553D01*
X134786831Y-73357731D01*
X134738496Y-73378770D01*
X134640508Y-73398261D01*
X134640498Y-73398264D01*
X134494827Y-73458602D01*
X134494814Y-73458609D01*
X134363711Y-73546210D01*
X134363707Y-73546213D01*
X134252213Y-73657707D01*
X134252210Y-73657711D01*
X134164609Y-73788814D01*
X134164602Y-73788827D01*
X134104264Y-73934498D01*
X134104261Y-73934510D01*
X134073500Y-74089153D01*
X134073500Y-74246846D01*
X134104261Y-74401489D01*
X134104264Y-74401501D01*
X134164602Y-74547172D01*
X134164609Y-74547184D01*
X134227602Y-74641459D01*
X134233252Y-74659505D01*
X134243477Y-74675415D01*
X134247928Y-74706374D01*
X134248480Y-74708136D01*
X134248500Y-74710350D01*
X134248500Y-74815500D01*
X134228815Y-74882539D01*
X134176011Y-74928294D01*
X134124500Y-74939500D01*
X134041452Y-74939500D01*
X133974413Y-74919815D01*
X133953771Y-74903181D01*
X130836289Y-71785699D01*
X131600968Y-71785699D01*
X131607369Y-71845227D01*
X131607371Y-71845234D01*
X131657613Y-71979941D01*
X131657617Y-71979948D01*
X131743777Y-72095042D01*
X131743780Y-72095045D01*
X131858874Y-72181205D01*
X131858881Y-72181209D01*
X131993588Y-72231451D01*
X131993595Y-72231453D01*
X132053123Y-72237854D01*
X132053140Y-72237855D01*
X132650968Y-72237855D01*
X133150968Y-72237855D01*
X133748796Y-72237855D01*
X133748812Y-72237854D01*
X133808340Y-72231453D01*
X133808347Y-72231451D01*
X133943054Y-72181209D01*
X133943061Y-72181205D01*
X134058155Y-72095045D01*
X134058158Y-72095042D01*
X134144318Y-71979948D01*
X134144322Y-71979941D01*
X134194564Y-71845234D01*
X134194566Y-71845227D01*
X134200967Y-71785699D01*
X134200968Y-71785682D01*
X134200968Y-71287855D01*
X133150968Y-71287855D01*
X133150968Y-72237855D01*
X132650968Y-72237855D01*
X132650968Y-71287855D01*
X131600968Y-71287855D01*
X131600968Y-71785699D01*
X130836289Y-71785699D01*
X130531818Y-71481228D01*
X130498333Y-71419905D01*
X130495499Y-71393547D01*
X130495499Y-70761355D01*
X130515184Y-70694316D01*
X130567988Y-70648561D01*
X130619499Y-70637355D01*
X131476968Y-70637355D01*
X131544007Y-70657040D01*
G37*
G04 #@! TD.AperFunction*
G04 #@! TA.AperFunction,Conductor*
G36*
X143193508Y-71557540D02*
G01*
X143239263Y-71610344D01*
X143250468Y-71661853D01*
X143250469Y-72385727D01*
X143250469Y-72385735D01*
X143250647Y-72389035D01*
X143250540Y-72389040D01*
X143250968Y-72397011D01*
X143250968Y-72837855D01*
X143398796Y-72837855D01*
X143398812Y-72837854D01*
X143458340Y-72831453D01*
X143458343Y-72831452D01*
X143506917Y-72813335D01*
X143576608Y-72808349D01*
X143593578Y-72813332D01*
X143643485Y-72831946D01*
X143703095Y-72838355D01*
X144498840Y-72838354D01*
X144558451Y-72831946D01*
X144607633Y-72813601D01*
X144677323Y-72808616D01*
X144694301Y-72813602D01*
X144743476Y-72831943D01*
X144743479Y-72831943D01*
X144743485Y-72831946D01*
X144803095Y-72838355D01*
X145427628Y-72838354D01*
X145494667Y-72858038D01*
X145540422Y-72910842D01*
X145550366Y-72980001D01*
X145521341Y-73043557D01*
X145515309Y-73050035D01*
X144500304Y-74065040D01*
X144438981Y-74098525D01*
X144388433Y-74098977D01*
X144350842Y-74091500D01*
X144193158Y-74091500D01*
X144193155Y-74091500D01*
X144038510Y-74122261D01*
X144038498Y-74122264D01*
X143892827Y-74182602D01*
X143892814Y-74182609D01*
X143761711Y-74270210D01*
X143761707Y-74270213D01*
X143650213Y-74381707D01*
X143650210Y-74381711D01*
X143562609Y-74512814D01*
X143562602Y-74512827D01*
X143556070Y-74528599D01*
X143512229Y-74583003D01*
X143445935Y-74605068D01*
X143378236Y-74587789D01*
X143353828Y-74568828D01*
X143330000Y-74545000D01*
X142504000Y-74545000D01*
X142436961Y-74525315D01*
X142391206Y-74472511D01*
X142380000Y-74421000D01*
X142380000Y-74295000D01*
X142254000Y-74295000D01*
X142186961Y-74275315D01*
X142141206Y-74222511D01*
X142130000Y-74171000D01*
X142130000Y-74045000D01*
X142630000Y-74045000D01*
X143329999Y-74045000D01*
X143329999Y-73996692D01*
X143329998Y-73996677D01*
X143319855Y-73897392D01*
X143266547Y-73736518D01*
X143266542Y-73736507D01*
X143177575Y-73592271D01*
X143177572Y-73592267D01*
X143057732Y-73472427D01*
X143057728Y-73472424D01*
X142913492Y-73383457D01*
X142913481Y-73383452D01*
X142752606Y-73330144D01*
X142653322Y-73320000D01*
X142630000Y-73320000D01*
X142630000Y-74045000D01*
X142130000Y-74045000D01*
X142130000Y-73319999D01*
X142106693Y-73320000D01*
X142106674Y-73320001D01*
X142007392Y-73330144D01*
X141859073Y-73379292D01*
X141789244Y-73381694D01*
X141729202Y-73345962D01*
X141698010Y-73283441D01*
X141705508Y-73214133D01*
X141706980Y-73210579D01*
X141739737Y-73131497D01*
X141770500Y-72976842D01*
X141770500Y-72962354D01*
X141790185Y-72895315D01*
X141842989Y-72849560D01*
X141894500Y-72838354D01*
X142298839Y-72838354D01*
X142298840Y-72838354D01*
X142358451Y-72831946D01*
X142408350Y-72813334D01*
X142478037Y-72808349D01*
X142495016Y-72813334D01*
X142543596Y-72831453D01*
X142543595Y-72831453D01*
X142603123Y-72837854D01*
X142603140Y-72837855D01*
X142750968Y-72837855D01*
X142750968Y-72397022D01*
X142751395Y-72389043D01*
X142751290Y-72389038D01*
X142751465Y-72385753D01*
X142751468Y-72385728D01*
X142751467Y-71661853D01*
X142771151Y-71594816D01*
X142823955Y-71549061D01*
X142875467Y-71537855D01*
X143126469Y-71537855D01*
X143193508Y-71557540D01*
G37*
G04 #@! TD.AperFunction*
G04 #@! TA.AperFunction,Conductor*
G36*
X127884185Y-63171050D02*
G01*
X127893147Y-63169762D01*
X127917187Y-63180740D01*
X127942539Y-63188185D01*
X127948466Y-63195025D01*
X127956703Y-63198787D01*
X127970992Y-63221021D01*
X127988294Y-63240989D01*
X127990581Y-63251503D01*
X127994477Y-63257565D01*
X127999500Y-63292500D01*
X127999500Y-63334701D01*
X128002401Y-63371567D01*
X128002402Y-63371573D01*
X128048254Y-63529393D01*
X128048255Y-63529396D01*
X128048256Y-63529398D01*
X128073704Y-63572428D01*
X128131917Y-63670862D01*
X128131923Y-63670870D01*
X128248129Y-63787076D01*
X128248133Y-63787079D01*
X128248135Y-63787081D01*
X128389602Y-63870744D01*
X128415497Y-63878267D01*
X128515883Y-63907433D01*
X128574769Y-63945039D01*
X128603975Y-64008512D01*
X128594229Y-64077698D01*
X128586827Y-64091606D01*
X128512998Y-64211300D01*
X128512995Y-64211308D01*
X128486105Y-64292454D01*
X128446332Y-64349898D01*
X128381816Y-64376720D01*
X128313040Y-64364404D01*
X128280719Y-64341129D01*
X127947509Y-64007919D01*
X127939860Y-64000270D01*
X127939858Y-64000267D01*
X127852733Y-63913142D01*
X127789280Y-63870744D01*
X127783044Y-63866577D01*
X127783037Y-63866571D01*
X127750290Y-63844690D01*
X127750286Y-63844688D01*
X127710955Y-63828397D01*
X127669792Y-63811347D01*
X127636452Y-63797537D01*
X127576029Y-63785518D01*
X127571306Y-63784578D01*
X127571304Y-63784578D01*
X127515610Y-63773500D01*
X127515607Y-63773500D01*
X127515606Y-63773500D01*
X126024197Y-63773500D01*
X125957158Y-63753815D01*
X125911403Y-63701011D01*
X125901459Y-63631853D01*
X125917465Y-63586379D01*
X125951282Y-63529196D01*
X125951283Y-63529193D01*
X125997099Y-63371495D01*
X125997100Y-63371489D01*
X125999999Y-63334649D01*
X126000000Y-63334634D01*
X126000000Y-63292500D01*
X126019685Y-63225461D01*
X126072489Y-63179706D01*
X126124000Y-63168500D01*
X127875500Y-63168500D01*
X127884185Y-63171050D01*
G37*
G04 #@! TD.AperFunction*
G04 #@! TA.AperFunction,Conductor*
G36*
X128461743Y-57236221D02*
G01*
X128488810Y-57240569D01*
X128494788Y-57245924D01*
X128502487Y-57248185D01*
X128520434Y-57268897D01*
X128540853Y-57287188D01*
X128542986Y-57294924D01*
X128548242Y-57300989D01*
X128552143Y-57328119D01*
X128559431Y-57354542D01*
X128557590Y-57366003D01*
X128558186Y-57370147D01*
X128553835Y-57389382D01*
X128545914Y-57414804D01*
X128545914Y-57414805D01*
X128541196Y-57466723D01*
X128515525Y-57531705D01*
X128458797Y-57572494D01*
X128417705Y-57579500D01*
X127429000Y-57579500D01*
X127361961Y-57559815D01*
X127316206Y-57507011D01*
X127305000Y-57455500D01*
X127305000Y-57352500D01*
X127324685Y-57285461D01*
X127377489Y-57239706D01*
X127429000Y-57228500D01*
X128435448Y-57228500D01*
X128461743Y-57236221D01*
G37*
G04 #@! TD.AperFunction*
M02*
