M48
; DRILL file {KiCad 9.0.5} date 2025-10-27T18:10:10+0100
; FORMAT={-:-/ absolute / metric / decimal}
; #@! TF.CreationDate,2025-10-27T18:10:10+01:00
; #@! TF.GenerationSoftware,Kicad,Pcbnew,9.0.5
; #@! TF.FileFunction,Plated,1,2,PTH
FMAT,2
METRIC
; #@! TA.AperFunction,Plated,PTH,ViaDrill
T1C0.300
; #@! TA.AperFunction,Plated,PTH,ComponentDrill
T2C0.300
; #@! TA.AperFunction,Plated,PTH,ComponentDrill
T3C0.750
; #@! TA.AperFunction,Plated,PTH,ComponentDrill
T4C0.800
; #@! TA.AperFunction,Plated,PTH,ComponentDrill
T5C0.950
; #@! TA.AperFunction,Plated,PTH,ComponentDrill
T6C1.000
; #@! TA.AperFunction,Plated,PTH,ComponentDrill
T7C1.100
; #@! TA.AperFunction,Plated,PTH,ComponentDrill
T8C3.200
%
G90
G05
T1
X113.665Y-60.325
X113.665Y-64.77
X113.665Y-106.68
X113.665Y-128.27
X113.665Y-130.81
X113.665Y-140.335
X113.665Y-144.145
X114.22Y-86.43
X114.3Y-102.235
X114.935Y-77.47
X114.935Y-80.645
X114.935Y-83.82
X115.062Y-69.088
X115.062Y-94.488
X115.57Y-73.66
X115.57Y-87.63
X116.078Y-97.282
X116.332Y-69.088
X116.332Y-93.218
X116.84Y-59.69
X116.84Y-79.375
X116.84Y-81.915
X117.475Y-73.66
X117.475Y-100.965
X117.602Y-86.868
X117.602Y-128.778
X118.11Y-90.424
X118.11Y-95.25
X118.745Y-133.985
X119.38Y-72.898
X119.888Y-64.77
X120.015Y-104.775
X120.65Y-73.66
X120.65Y-75.565
X120.655Y-90.999
X121.158Y-97.028
X121.412Y-92.71
X121.412Y-109.474
X121.92Y-102.235
X122.55Y-75.184
X122.682Y-60.96
X122.682Y-64.399
X123.19Y-90.678
X123.825Y-133.985
X123.952Y-126.746
X124.206Y-85.09
X125.73Y-105.156
X125.73Y-108.712
X126.492Y-63.246
X126.991Y-90.161
X127.0Y-121.285
X127.508Y-74.168
X127.508Y-79.756
X127.508Y-82.042
X128.016Y-76.454
X128.016Y-102.616
X128.524Y-57.404
X128.905Y-114.3
X128.905Y-133.985
X129.032Y-74.168
X129.286Y-79.756
X129.286Y-81.788
X129.54Y-72.898
X129.54Y-128.778
X130.81Y-117.475
X130.81Y-121.285
X131.064Y-71.12
X131.318Y-93.98
X131.445Y-107.315
X131.445Y-140.335
X131.445Y-144.145
X131.572Y-59.436
X131.963Y-90.424
X131.963Y-92.202
X132.08Y-65.786
X132.588Y-96.52
X133.096Y-61.976
X133.223Y-76.835
X133.35Y-57.658
X133.35Y-83.185
X133.35Y-90.17
X133.604Y-72.898
X133.858Y-65.278
X133.858Y-67.056
X133.858Y-76.2
X134.366Y-96.774
X134.62Y-63.119
X134.62Y-90.17
X134.62Y-102.87
X134.62Y-107.315
X134.62Y-109.728
X135.382Y-60.198
X135.636Y-73.152
X136.144Y-92.71
X136.144Y-94.996
X136.288Y-74.339
X136.398Y-67.056
X137.795Y-106.045
X137.922Y-64.008
X137.922Y-100.076
X138.932Y-81.782
X138.938Y-99.06
X139.065Y-114.3
X139.065Y-118.745
X139.065Y-121.285
X139.065Y-130.175
X139.065Y-133.985
X139.7Y-70.186
X140.208Y-103.886
X140.716Y-60.198
X140.97Y-72.898
X141.478Y-87.122
X141.986Y-64.008
X142.24Y-103.886
X142.748Y-90.424
X142.875Y-101.6
X143.256Y-67.31
X143.51Y-112.395
X143.523Y-73.152
X144.272Y-74.892
X144.272Y-98.044
X144.526Y-87.122
X144.78Y-73.152
X146.05Y-61.468
X146.05Y-69.596
X146.685Y-121.285
X146.685Y-133.985
X146.685Y-140.335
X146.685Y-144.145
X147.066Y-73.66
X147.32Y-109.22
X147.32Y-117.475
X147.574Y-57.912
X147.574Y-64.008
X147.574Y-68.834
T2
X118.85Y-79.927
X118.85Y-81.453
X119.612Y-79.165
X119.612Y-80.69
X119.612Y-82.215
X120.375Y-79.927
X120.375Y-81.453
X121.137Y-79.165
X121.137Y-80.69
X121.137Y-82.215
X121.9Y-79.927
X121.9Y-81.453
T3
X118.015Y-92.71
X120.015Y-92.71
X126.27Y-92.71
X128.27Y-92.71
T4
X113.665Y-99.314
X113.665Y-112.014
X113.665Y-123.825
X113.665Y-136.525
X116.205Y-99.314
X116.205Y-112.014
X116.205Y-123.825
X116.205Y-136.525
X118.745Y-99.314
X118.745Y-112.014
X118.745Y-123.825
X118.745Y-136.525
X121.285Y-99.314
X121.285Y-112.014
X121.285Y-123.825
X121.285Y-136.525
X123.825Y-99.314
X123.825Y-112.014
X123.825Y-123.825
X123.825Y-136.525
X126.365Y-99.314
X126.365Y-112.014
X126.365Y-123.825
X126.365Y-136.525
X128.905Y-99.314
X128.905Y-112.014
X128.905Y-123.825
X128.905Y-136.525
X131.445Y-99.314
X131.445Y-101.854
X131.445Y-104.394
X131.445Y-112.014
X131.445Y-123.825
X131.445Y-126.365
X131.445Y-128.905
X131.445Y-136.525
T5
X118.805Y-117.175
X118.805Y-141.94
X121.305Y-117.175
X121.305Y-141.94
X123.805Y-117.175
X123.805Y-141.94
X126.305Y-117.175
X126.305Y-141.94
X138.47Y-109.22
X140.97Y-109.22
X143.47Y-109.22
T6
X113.665Y-57.785
X113.665Y-62.23
X113.665Y-66.675
X116.205Y-57.785
X116.205Y-62.23
X116.205Y-66.675
X118.745Y-57.785
X118.745Y-62.23
X118.745Y-66.675
X121.285Y-62.23
X121.285Y-66.675
X123.825Y-66.675
X126.365Y-66.675
X146.304Y-75.692
X146.304Y-78.232
X146.304Y-80.772
X146.304Y-83.312
X146.304Y-85.852
X146.304Y-88.392
X146.304Y-90.932
X146.304Y-93.472
T7
X137.2Y-140.468
X142.2Y-140.468
T8
X139.7Y-93.98
M30
