G04 #@! TF.GenerationSoftware,KiCad,Pcbnew,9.0.5*
G04 #@! TF.CreationDate,2025-10-27T12:23:45+01:00*
G04 #@! TF.ProjectId,Laser_Electronics,4c617365-725f-4456-9c65-6374726f6e69,rev?*
G04 #@! TF.SameCoordinates,Original*
G04 #@! TF.FileFunction,Paste,Top*
G04 #@! TF.FilePolarity,Positive*
%FSLAX46Y46*%
G04 Gerber Fmt 4.6, Leading zero omitted, Abs format (unit mm)*
G04 Created by KiCad (PCBNEW 9.0.5) date 2025-10-27 12:23:45*
%MOMM*%
%LPD*%
G01*
G04 APERTURE LIST*
G04 Aperture macros list*
%AMRoundRect*
0 Rectangle with rounded corners*
0 $1 Rounding radius*
0 $2 $3 $4 $5 $6 $7 $8 $9 X,Y pos of 4 corners*
0 Add a 4 corners polygon primitive as box body*
4,1,4,$2,$3,$4,$5,$6,$7,$8,$9,$2,$3,0*
0 Add four circle primitives for the rounded corners*
1,1,$1+$1,$2,$3*
1,1,$1+$1,$4,$5*
1,1,$1+$1,$6,$7*
1,1,$1+$1,$8,$9*
0 Add four rect primitives between the rounded corners*
20,1,$1+$1,$2,$3,$4,$5,0*
20,1,$1+$1,$4,$5,$6,$7,0*
20,1,$1+$1,$6,$7,$8,$9,0*
20,1,$1+$1,$8,$9,$2,$3,0*%
G04 Aperture macros list end*
%ADD10RoundRect,0.200000X-0.300000X-0.200000X0.300000X-0.200000X0.300000X0.200000X-0.300000X0.200000X0*%
%ADD11RoundRect,0.200000X-0.200000X-0.275000X0.200000X-0.275000X0.200000X0.275000X-0.200000X0.275000X0*%
%ADD12RoundRect,0.150000X0.587500X0.150000X-0.587500X0.150000X-0.587500X-0.150000X0.587500X-0.150000X0*%
%ADD13RoundRect,0.375000X-0.625000X-0.375000X0.625000X-0.375000X0.625000X0.375000X-0.625000X0.375000X0*%
%ADD14RoundRect,0.500000X-0.500000X-1.400000X0.500000X-1.400000X0.500000X1.400000X-0.500000X1.400000X0*%
%ADD15RoundRect,0.225000X-0.225000X-0.250000X0.225000X-0.250000X0.225000X0.250000X-0.225000X0.250000X0*%
%ADD16RoundRect,0.200000X0.275000X-0.200000X0.275000X0.200000X-0.275000X0.200000X-0.275000X-0.200000X0*%
%ADD17R,0.700000X1.600000*%
%ADD18R,1.200000X2.200000*%
%ADD19R,1.600000X1.400000*%
%ADD20R,1.200000X1.400000*%
%ADD21RoundRect,0.250000X1.500000X0.550000X-1.500000X0.550000X-1.500000X-0.550000X1.500000X-0.550000X0*%
%ADD22R,0.900000X1.500000*%
%ADD23R,1.500000X0.900000*%
%ADD24R,1.050000X1.050000*%
%ADD25RoundRect,0.225000X-0.250000X0.225000X-0.250000X-0.225000X0.250000X-0.225000X0.250000X0.225000X0*%
%ADD26RoundRect,0.150000X0.825000X0.150000X-0.825000X0.150000X-0.825000X-0.150000X0.825000X-0.150000X0*%
%ADD27R,0.502500X0.630000*%
%ADD28R,0.505000X0.630000*%
%ADD29RoundRect,0.200000X0.200000X0.275000X-0.200000X0.275000X-0.200000X-0.275000X0.200000X-0.275000X0*%
%ADD30RoundRect,0.225000X0.225000X0.250000X-0.225000X0.250000X-0.225000X-0.250000X0.225000X-0.250000X0*%
%ADD31RoundRect,0.200000X-0.275000X0.200000X-0.275000X-0.200000X0.275000X-0.200000X0.275000X0.200000X0*%
%ADD32RoundRect,0.250000X-1.500000X-0.550000X1.500000X-0.550000X1.500000X0.550000X-1.500000X0.550000X0*%
%ADD33RoundRect,0.218750X0.218750X0.256250X-0.218750X0.256250X-0.218750X-0.256250X0.218750X-0.256250X0*%
G04 APERTURE END LIST*
D10*
X129540000Y-56642000D03*
X131040000Y-56642000D03*
X131040000Y-57742000D03*
X129540000Y-57742000D03*
D11*
X144717000Y-113792000D03*
X146367000Y-113792000D03*
D12*
X137462500Y-84135000D03*
X137462500Y-82235000D03*
X135587500Y-83185000D03*
D13*
X135915000Y-122160000D03*
X135915000Y-124460000D03*
D14*
X142215000Y-124460000D03*
D13*
X135915000Y-126760000D03*
D15*
X112890000Y-91440000D03*
X114440000Y-91440000D03*
D16*
X137160000Y-80200000D03*
X137160000Y-78550000D03*
D17*
X137500968Y-71537855D03*
X138600968Y-71537855D03*
X139700968Y-71537855D03*
X140800968Y-71537855D03*
X141900968Y-71537855D03*
X143000968Y-71537855D03*
X144100968Y-71537855D03*
X145200968Y-71537855D03*
X146300968Y-71537855D03*
D18*
X132000968Y-61437855D03*
D19*
X132900968Y-71037855D03*
D18*
X147500968Y-61437855D03*
D20*
X147500968Y-71037855D03*
D15*
X114160000Y-108849000D03*
X115710000Y-108849000D03*
D21*
X126525000Y-106934000D03*
X121125000Y-106934000D03*
D22*
X113035000Y-88760000D03*
X114305000Y-88760000D03*
X115575000Y-88760000D03*
X116845000Y-88760000D03*
X118115000Y-88760000D03*
X119385000Y-88760000D03*
X120655000Y-88760000D03*
X121925000Y-88760000D03*
X123195000Y-88760000D03*
X124465000Y-88760000D03*
X125735000Y-88760000D03*
X127005000Y-88760000D03*
X128275000Y-88760000D03*
X129545000Y-88760000D03*
D23*
X130795000Y-85720000D03*
X130795000Y-84450000D03*
X130795000Y-83180000D03*
X130795000Y-81910000D03*
X130795000Y-80640000D03*
X130795000Y-79370000D03*
X130795000Y-78100000D03*
X130795000Y-76830000D03*
X130795000Y-75560000D03*
X130795000Y-74290000D03*
D22*
X129545000Y-71260000D03*
X128275000Y-71260000D03*
X127005000Y-71260000D03*
X125735000Y-71260000D03*
X124465000Y-71260000D03*
X123195000Y-71260000D03*
X121925000Y-71260000D03*
X120655000Y-71260000D03*
X119385000Y-71260000D03*
X118115000Y-71260000D03*
X116845000Y-71260000D03*
X115575000Y-71260000D03*
X114305000Y-71260000D03*
X113035000Y-71260000D03*
D24*
X118850000Y-82215000D03*
X120375000Y-82215000D03*
X121900000Y-82215000D03*
X118850000Y-80690000D03*
X120375000Y-80690000D03*
X121900000Y-80690000D03*
X118850000Y-79165000D03*
X120375000Y-79165000D03*
X121900000Y-79165000D03*
D25*
X144780000Y-127495000D03*
X144780000Y-129045000D03*
D12*
X137462500Y-76515000D03*
X137462500Y-74615000D03*
X135587500Y-75565000D03*
D11*
X122263500Y-57404000D03*
X123913500Y-57404000D03*
X129223000Y-66548000D03*
X130873000Y-66548000D03*
D15*
X145529000Y-97282000D03*
X147079000Y-97282000D03*
D26*
X129475000Y-63119000D03*
X129475000Y-61849000D03*
X129475000Y-60579000D03*
X129475000Y-59309000D03*
X124525000Y-59309000D03*
X124525000Y-60579000D03*
X124525000Y-61849000D03*
X124525000Y-63119000D03*
D15*
X114287000Y-132852000D03*
X115837000Y-132852000D03*
X145529000Y-105156000D03*
X147079000Y-105156000D03*
D27*
X147466250Y-115570000D03*
D28*
X147465000Y-119150000D03*
X145415000Y-115570000D03*
X145415000Y-119150000D03*
D11*
X140653000Y-99060000D03*
X142303000Y-99060000D03*
D25*
X144780000Y-123685000D03*
X144780000Y-125235000D03*
D29*
X143065000Y-105156000D03*
X141415000Y-105156000D03*
D30*
X142380000Y-74295000D03*
X140830000Y-74295000D03*
D31*
X139700000Y-78550000D03*
X139700000Y-80200000D03*
D21*
X126525000Y-131445000D03*
X121125000Y-131445000D03*
D32*
X136365000Y-132080000D03*
X141765000Y-132080000D03*
D27*
X145268750Y-102870000D03*
D28*
X145270000Y-99290000D03*
X147320000Y-102870000D03*
X147320000Y-99290000D03*
D21*
X141765000Y-116840000D03*
X136365000Y-116840000D03*
D33*
X127305000Y-57404000D03*
X125730000Y-57404000D03*
D30*
X130950000Y-64770000D03*
X129400000Y-64770000D03*
M02*
