G04 #@! TF.GenerationSoftware,KiCad,Pcbnew,9.0.5*
G04 #@! TF.CreationDate,2025-10-28T17:02:37+01:00*
G04 #@! TF.ProjectId,Laser_Electronics,4c617365-725f-4456-9c65-6374726f6e69,2*
G04 #@! TF.SameCoordinates,Original*
G04 #@! TF.FileFunction,Legend,Bot*
G04 #@! TF.FilePolarity,Positive*
%FSLAX46Y46*%
G04 Gerber Fmt 4.6, Leading zero omitted, Abs format (unit mm)*
G04 Created by KiCad (PCBNEW 9.0.5) date 2025-10-28 17:02:37*
%MOMM*%
%LPD*%
G01*
G04 APERTURE LIST*
G04 Aperture macros list*
%AMRoundRect*
0 Rectangle with rounded corners*
0 $1 Rounding radius*
0 $2 $3 $4 $5 $6 $7 $8 $9 X,Y pos of 4 corners*
0 Add a 4 corners polygon primitive as box body*
4,1,4,$2,$3,$4,$5,$6,$7,$8,$9,$2,$3,0*
0 Add four circle primitives for the rounded corners*
1,1,$1+$1,$2,$3*
1,1,$1+$1,$4,$5*
1,1,$1+$1,$6,$7*
1,1,$1+$1,$8,$9*
0 Add four rect primitives between the rounded corners*
20,1,$1+$1,$2,$3,$4,$5,0*
20,1,$1+$1,$4,$5,$6,$7,0*
20,1,$1+$1,$6,$7,$8,$9,0*
20,1,$1+$1,$8,$9,$2,$3,0*%
G04 Aperture macros list end*
%ADD10C,0.100000*%
%ADD11C,0.250000*%
%ADD12C,0.700000*%
%ADD13C,0.200000*%
%ADD14C,0.300000*%
%ADD15C,0.125000*%
%ADD16C,0.400000*%
%ADD17RoundRect,0.250000X-0.350000X-0.625000X0.350000X-0.625000X0.350000X0.625000X-0.350000X0.625000X0*%
%ADD18O,1.200000X1.750000*%
%ADD19R,1.700000X1.700000*%
%ADD20C,1.700000*%
%ADD21C,0.900000*%
%ADD22RoundRect,0.250000X-0.600000X-0.725000X0.600000X-0.725000X0.600000X0.725000X-0.600000X0.725000X0*%
%ADD23O,1.700000X1.950000*%
%ADD24C,5.600000*%
%ADD25R,1.600000X1.600000*%
%ADD26O,1.600000X1.600000*%
%ADD27RoundRect,0.250001X0.799999X0.799999X-0.799999X0.799999X-0.799999X-0.799999X0.799999X-0.799999X0*%
%ADD28C,2.100000*%
G04 APERTURE END LIST*
D10*
X112268000Y-122428000D02*
X132842000Y-122428000D01*
X132842000Y-137922000D01*
X112268000Y-137922000D01*
X112268000Y-122428000D01*
D11*
X113284000Y-70739000D02*
X141986000Y-70739000D01*
X141986000Y-89281000D01*
X113284000Y-89281000D01*
X113284000Y-70739000D01*
D12*
X142748000Y-68199000D02*
X142748000Y-69469000D01*
X140716000Y-68199000D02*
X140716000Y-69469000D01*
X136652000Y-68199000D02*
X136652000Y-69469000D01*
D13*
X135890000Y-70104000D02*
X135890000Y-58674000D01*
X144526000Y-70104000D02*
X135890000Y-70104000D01*
X145796000Y-67056000D02*
X144526000Y-68072000D01*
D12*
X137668000Y-68199000D02*
X137668000Y-69469000D01*
X138684000Y-68199000D02*
X138684000Y-69469000D01*
X141732000Y-68199000D02*
X141732000Y-69469000D01*
D13*
X144526000Y-68072000D02*
X144526000Y-70104000D01*
D12*
X139700000Y-68199000D02*
X139700000Y-69469000D01*
D10*
X112268000Y-97790000D02*
X132842000Y-97790000D01*
X132842000Y-113538000D01*
X112268000Y-113538000D01*
X112268000Y-97790000D01*
D13*
X145796000Y-66294000D02*
X145796000Y-67056000D01*
X145796000Y-65024000D02*
X145034000Y-65532000D01*
X135890000Y-58674000D02*
X144780000Y-58674000D01*
D12*
X143764000Y-68199000D02*
X143764000Y-69469000D01*
D13*
X145034000Y-65532000D02*
X145796000Y-66294000D01*
X144780000Y-58674000D02*
X145796000Y-59944000D01*
X145796000Y-59944000D02*
X145796000Y-65024000D01*
D14*
X121159203Y-95558828D02*
X121873489Y-95558828D01*
X121873489Y-95558828D02*
X121873489Y-94058828D01*
X120659203Y-95558828D02*
X120659203Y-94558828D01*
X120659203Y-94058828D02*
X120730631Y-94130257D01*
X120730631Y-94130257D02*
X120659203Y-94201685D01*
X120659203Y-94201685D02*
X120587774Y-94130257D01*
X120587774Y-94130257D02*
X120659203Y-94058828D01*
X120659203Y-94058828D02*
X120659203Y-94201685D01*
X119944917Y-95558828D02*
X119944917Y-94558828D01*
X119944917Y-94701685D02*
X119873488Y-94630257D01*
X119873488Y-94630257D02*
X119730631Y-94558828D01*
X119730631Y-94558828D02*
X119516345Y-94558828D01*
X119516345Y-94558828D02*
X119373488Y-94630257D01*
X119373488Y-94630257D02*
X119302060Y-94773114D01*
X119302060Y-94773114D02*
X119302060Y-95558828D01*
X119302060Y-94773114D02*
X119230631Y-94630257D01*
X119230631Y-94630257D02*
X119087774Y-94558828D01*
X119087774Y-94558828D02*
X118873488Y-94558828D01*
X118873488Y-94558828D02*
X118730631Y-94630257D01*
X118730631Y-94630257D02*
X118659202Y-94773114D01*
X118659202Y-94773114D02*
X118659202Y-95558828D01*
X118302060Y-95701685D02*
X117159202Y-95701685D01*
X116944917Y-94058828D02*
X115944917Y-95558828D01*
X115944917Y-94058828D02*
X116944917Y-95558828D01*
D10*
X116615544Y-68658800D02*
X116710782Y-68706419D01*
X116710782Y-68706419D02*
X116901258Y-68706419D01*
X116901258Y-68706419D02*
X116996496Y-68658800D01*
X116996496Y-68658800D02*
X117044115Y-68611180D01*
X117044115Y-68611180D02*
X117091734Y-68515942D01*
X117091734Y-68515942D02*
X117091734Y-68230228D01*
X117091734Y-68230228D02*
X117044115Y-68134990D01*
X117044115Y-68134990D02*
X116996496Y-68087371D01*
X116996496Y-68087371D02*
X116901258Y-68039752D01*
X116901258Y-68039752D02*
X116710782Y-68039752D01*
X116710782Y-68039752D02*
X116615544Y-68087371D01*
X116329829Y-68039752D02*
X115948877Y-68039752D01*
X116186972Y-67706419D02*
X116186972Y-68563561D01*
X116186972Y-68563561D02*
X116139353Y-68658800D01*
X116139353Y-68658800D02*
X116044115Y-68706419D01*
X116044115Y-68706419D02*
X115948877Y-68706419D01*
X115663162Y-68658800D02*
X115567924Y-68706419D01*
X115567924Y-68706419D02*
X115377448Y-68706419D01*
X115377448Y-68706419D02*
X115282210Y-68658800D01*
X115282210Y-68658800D02*
X115234591Y-68563561D01*
X115234591Y-68563561D02*
X115234591Y-68515942D01*
X115234591Y-68515942D02*
X115282210Y-68420704D01*
X115282210Y-68420704D02*
X115377448Y-68373085D01*
X115377448Y-68373085D02*
X115520305Y-68373085D01*
X115520305Y-68373085D02*
X115615543Y-68325466D01*
X115615543Y-68325466D02*
X115663162Y-68230228D01*
X115663162Y-68230228D02*
X115663162Y-68182609D01*
X115663162Y-68182609D02*
X115615543Y-68087371D01*
X115615543Y-68087371D02*
X115520305Y-68039752D01*
X115520305Y-68039752D02*
X115377448Y-68039752D01*
X115377448Y-68039752D02*
X115282210Y-68087371D01*
D15*
X139379668Y-138174166D02*
X138617764Y-138174166D01*
X138998716Y-138555119D02*
X138998716Y-137793214D01*
X137617764Y-138555119D02*
X138189192Y-138555119D01*
X137903478Y-138555119D02*
X137903478Y-137555119D01*
X137903478Y-137555119D02*
X137998716Y-137697976D01*
X137998716Y-137697976D02*
X138093954Y-137793214D01*
X138093954Y-137793214D02*
X138189192Y-137840833D01*
X137236811Y-137650357D02*
X137189192Y-137602738D01*
X137189192Y-137602738D02*
X137093954Y-137555119D01*
X137093954Y-137555119D02*
X136855859Y-137555119D01*
X136855859Y-137555119D02*
X136760621Y-137602738D01*
X136760621Y-137602738D02*
X136713002Y-137650357D01*
X136713002Y-137650357D02*
X136665383Y-137745595D01*
X136665383Y-137745595D02*
X136665383Y-137840833D01*
X136665383Y-137840833D02*
X136713002Y-137983690D01*
X136713002Y-137983690D02*
X137284430Y-138555119D01*
X137284430Y-138555119D02*
X136665383Y-138555119D01*
D16*
X140738652Y-73812662D02*
X140738652Y-71812662D01*
X140738652Y-71812662D02*
X140071985Y-73241233D01*
X140071985Y-73241233D02*
X139405319Y-71812662D01*
X139405319Y-71812662D02*
X139405319Y-73812662D01*
X138452938Y-73812662D02*
X138452938Y-72479328D01*
X138452938Y-71812662D02*
X138548176Y-71907900D01*
X138548176Y-71907900D02*
X138452938Y-72003138D01*
X138452938Y-72003138D02*
X138357700Y-71907900D01*
X138357700Y-71907900D02*
X138452938Y-71812662D01*
X138452938Y-71812662D02*
X138452938Y-72003138D01*
X137500557Y-72479328D02*
X137500557Y-73812662D01*
X137500557Y-72669804D02*
X137405319Y-72574566D01*
X137405319Y-72574566D02*
X137214843Y-72479328D01*
X137214843Y-72479328D02*
X136929128Y-72479328D01*
X136929128Y-72479328D02*
X136738652Y-72574566D01*
X136738652Y-72574566D02*
X136643414Y-72765043D01*
X136643414Y-72765043D02*
X136643414Y-73812662D01*
X135691033Y-73812662D02*
X135691033Y-72479328D01*
X135691033Y-71812662D02*
X135786271Y-71907900D01*
X135786271Y-71907900D02*
X135691033Y-72003138D01*
X135691033Y-72003138D02*
X135595795Y-71907900D01*
X135595795Y-71907900D02*
X135691033Y-71812662D01*
X135691033Y-71812662D02*
X135691033Y-72003138D01*
X139786271Y-77032550D02*
X140738652Y-77032550D01*
X140738652Y-77032550D02*
X140738652Y-75032550D01*
X138262461Y-77032550D02*
X138262461Y-75984931D01*
X138262461Y-75984931D02*
X138357699Y-75794454D01*
X138357699Y-75794454D02*
X138548175Y-75699216D01*
X138548175Y-75699216D02*
X138929128Y-75699216D01*
X138929128Y-75699216D02*
X139119604Y-75794454D01*
X138262461Y-76937312D02*
X138452937Y-77032550D01*
X138452937Y-77032550D02*
X138929128Y-77032550D01*
X138929128Y-77032550D02*
X139119604Y-76937312D01*
X139119604Y-76937312D02*
X139214842Y-76746835D01*
X139214842Y-76746835D02*
X139214842Y-76556359D01*
X139214842Y-76556359D02*
X139119604Y-76365883D01*
X139119604Y-76365883D02*
X138929128Y-76270645D01*
X138929128Y-76270645D02*
X138452937Y-76270645D01*
X138452937Y-76270645D02*
X138262461Y-76175407D01*
X137405318Y-76937312D02*
X137214842Y-77032550D01*
X137214842Y-77032550D02*
X136833890Y-77032550D01*
X136833890Y-77032550D02*
X136643413Y-76937312D01*
X136643413Y-76937312D02*
X136548175Y-76746835D01*
X136548175Y-76746835D02*
X136548175Y-76651597D01*
X136548175Y-76651597D02*
X136643413Y-76461121D01*
X136643413Y-76461121D02*
X136833890Y-76365883D01*
X136833890Y-76365883D02*
X137119604Y-76365883D01*
X137119604Y-76365883D02*
X137310080Y-76270645D01*
X137310080Y-76270645D02*
X137405318Y-76080169D01*
X137405318Y-76080169D02*
X137405318Y-75984931D01*
X137405318Y-75984931D02*
X137310080Y-75794454D01*
X137310080Y-75794454D02*
X137119604Y-75699216D01*
X137119604Y-75699216D02*
X136833890Y-75699216D01*
X136833890Y-75699216D02*
X136643413Y-75794454D01*
X134929127Y-76937312D02*
X135119603Y-77032550D01*
X135119603Y-77032550D02*
X135500556Y-77032550D01*
X135500556Y-77032550D02*
X135691032Y-76937312D01*
X135691032Y-76937312D02*
X135786270Y-76746835D01*
X135786270Y-76746835D02*
X135786270Y-75984931D01*
X135786270Y-75984931D02*
X135691032Y-75794454D01*
X135691032Y-75794454D02*
X135500556Y-75699216D01*
X135500556Y-75699216D02*
X135119603Y-75699216D01*
X135119603Y-75699216D02*
X134929127Y-75794454D01*
X134929127Y-75794454D02*
X134833889Y-75984931D01*
X134833889Y-75984931D02*
X134833889Y-76175407D01*
X134833889Y-76175407D02*
X135786270Y-76365883D01*
X133976746Y-77032550D02*
X133976746Y-75699216D01*
X133976746Y-76080169D02*
X133881508Y-75889692D01*
X133881508Y-75889692D02*
X133786270Y-75794454D01*
X133786270Y-75794454D02*
X133595794Y-75699216D01*
X133595794Y-75699216D02*
X133405317Y-75699216D01*
X140071985Y-79204819D02*
X140738652Y-79204819D01*
X140738652Y-80252438D02*
X140738652Y-78252438D01*
X140738652Y-78252438D02*
X139786271Y-78252438D01*
X138738652Y-80252438D02*
X138929128Y-80157200D01*
X138929128Y-80157200D02*
X139024366Y-79966723D01*
X139024366Y-79966723D02*
X139024366Y-78252438D01*
X137119604Y-78919104D02*
X137119604Y-80252438D01*
X137976747Y-78919104D02*
X137976747Y-79966723D01*
X137976747Y-79966723D02*
X137881509Y-80157200D01*
X137881509Y-80157200D02*
X137691033Y-80252438D01*
X137691033Y-80252438D02*
X137405318Y-80252438D01*
X137405318Y-80252438D02*
X137214842Y-80157200D01*
X137214842Y-80157200D02*
X137119604Y-80061961D01*
X136167223Y-80252438D02*
X136167223Y-78919104D01*
X136167223Y-78252438D02*
X136262461Y-78347676D01*
X136262461Y-78347676D02*
X136167223Y-78442914D01*
X136167223Y-78442914D02*
X136071985Y-78347676D01*
X136071985Y-78347676D02*
X136167223Y-78252438D01*
X136167223Y-78252438D02*
X136167223Y-78442914D01*
X134357699Y-80252438D02*
X134357699Y-78252438D01*
X134357699Y-80157200D02*
X134548175Y-80252438D01*
X134548175Y-80252438D02*
X134929128Y-80252438D01*
X134929128Y-80252438D02*
X135119604Y-80157200D01*
X135119604Y-80157200D02*
X135214842Y-80061961D01*
X135214842Y-80061961D02*
X135310080Y-79871485D01*
X135310080Y-79871485D02*
X135310080Y-79300057D01*
X135310080Y-79300057D02*
X135214842Y-79109580D01*
X135214842Y-79109580D02*
X135119604Y-79014342D01*
X135119604Y-79014342D02*
X134929128Y-78919104D01*
X134929128Y-78919104D02*
X134548175Y-78919104D01*
X134548175Y-78919104D02*
X134357699Y-79014342D01*
X133405318Y-79490533D02*
X131881509Y-79490533D01*
X130929128Y-80252438D02*
X130929128Y-78252438D01*
X130929128Y-78252438D02*
X129786271Y-80252438D01*
X129786271Y-80252438D02*
X129786271Y-78252438D01*
X127691033Y-80061961D02*
X127786271Y-80157200D01*
X127786271Y-80157200D02*
X128071985Y-80252438D01*
X128071985Y-80252438D02*
X128262461Y-80252438D01*
X128262461Y-80252438D02*
X128548176Y-80157200D01*
X128548176Y-80157200D02*
X128738652Y-79966723D01*
X128738652Y-79966723D02*
X128833890Y-79776247D01*
X128833890Y-79776247D02*
X128929128Y-79395295D01*
X128929128Y-79395295D02*
X128929128Y-79109580D01*
X128929128Y-79109580D02*
X128833890Y-78728628D01*
X128833890Y-78728628D02*
X128738652Y-78538152D01*
X128738652Y-78538152D02*
X128548176Y-78347676D01*
X128548176Y-78347676D02*
X128262461Y-78252438D01*
X128262461Y-78252438D02*
X128071985Y-78252438D01*
X128071985Y-78252438D02*
X127786271Y-78347676D01*
X127786271Y-78347676D02*
X127691033Y-78442914D01*
D10*
X144523734Y-85327657D02*
X144476115Y-85280038D01*
X144476115Y-85280038D02*
X144380877Y-85232419D01*
X144380877Y-85232419D02*
X144142782Y-85232419D01*
X144142782Y-85232419D02*
X144047544Y-85280038D01*
X144047544Y-85280038D02*
X143999925Y-85327657D01*
X143999925Y-85327657D02*
X143952306Y-85422895D01*
X143952306Y-85422895D02*
X143952306Y-85518133D01*
X143952306Y-85518133D02*
X143999925Y-85660990D01*
X143999925Y-85660990D02*
X144571353Y-86232419D01*
X144571353Y-86232419D02*
X143952306Y-86232419D01*
X143571353Y-85327657D02*
X143523734Y-85280038D01*
X143523734Y-85280038D02*
X143428496Y-85232419D01*
X143428496Y-85232419D02*
X143190401Y-85232419D01*
X143190401Y-85232419D02*
X143095163Y-85280038D01*
X143095163Y-85280038D02*
X143047544Y-85327657D01*
X143047544Y-85327657D02*
X142999925Y-85422895D01*
X142999925Y-85422895D02*
X142999925Y-85518133D01*
X142999925Y-85518133D02*
X143047544Y-85660990D01*
X143047544Y-85660990D02*
X143618972Y-86232419D01*
X143618972Y-86232419D02*
X142999925Y-86232419D01*
X144285639Y-77612419D02*
X144190401Y-77612419D01*
X144190401Y-77612419D02*
X144095163Y-77660038D01*
X144095163Y-77660038D02*
X144047544Y-77707657D01*
X144047544Y-77707657D02*
X143999925Y-77802895D01*
X143999925Y-77802895D02*
X143952306Y-77993371D01*
X143952306Y-77993371D02*
X143952306Y-78231466D01*
X143952306Y-78231466D02*
X143999925Y-78421942D01*
X143999925Y-78421942D02*
X144047544Y-78517180D01*
X144047544Y-78517180D02*
X144095163Y-78564800D01*
X144095163Y-78564800D02*
X144190401Y-78612419D01*
X144190401Y-78612419D02*
X144285639Y-78612419D01*
X144285639Y-78612419D02*
X144380877Y-78564800D01*
X144380877Y-78564800D02*
X144428496Y-78517180D01*
X144428496Y-78517180D02*
X144476115Y-78421942D01*
X144476115Y-78421942D02*
X144523734Y-78231466D01*
X144523734Y-78231466D02*
X144523734Y-77993371D01*
X144523734Y-77993371D02*
X144476115Y-77802895D01*
X144476115Y-77802895D02*
X144428496Y-77707657D01*
X144428496Y-77707657D02*
X144380877Y-77660038D01*
X144380877Y-77660038D02*
X144285639Y-77612419D01*
X143571353Y-77707657D02*
X143523734Y-77660038D01*
X143523734Y-77660038D02*
X143428496Y-77612419D01*
X143428496Y-77612419D02*
X143190401Y-77612419D01*
X143190401Y-77612419D02*
X143095163Y-77660038D01*
X143095163Y-77660038D02*
X143047544Y-77707657D01*
X143047544Y-77707657D02*
X142999925Y-77802895D01*
X142999925Y-77802895D02*
X142999925Y-77898133D01*
X142999925Y-77898133D02*
X143047544Y-78040990D01*
X143047544Y-78040990D02*
X143618972Y-78612419D01*
X143618972Y-78612419D02*
X142999925Y-78612419D01*
D14*
X143003203Y-112830828D02*
X143717489Y-112830828D01*
X143717489Y-112830828D02*
X143717489Y-111330828D01*
X141860346Y-112830828D02*
X141860346Y-112045114D01*
X141860346Y-112045114D02*
X141931774Y-111902257D01*
X141931774Y-111902257D02*
X142074631Y-111830828D01*
X142074631Y-111830828D02*
X142360346Y-111830828D01*
X142360346Y-111830828D02*
X142503203Y-111902257D01*
X141860346Y-112759400D02*
X142003203Y-112830828D01*
X142003203Y-112830828D02*
X142360346Y-112830828D01*
X142360346Y-112830828D02*
X142503203Y-112759400D01*
X142503203Y-112759400D02*
X142574631Y-112616542D01*
X142574631Y-112616542D02*
X142574631Y-112473685D01*
X142574631Y-112473685D02*
X142503203Y-112330828D01*
X142503203Y-112330828D02*
X142360346Y-112259400D01*
X142360346Y-112259400D02*
X142003203Y-112259400D01*
X142003203Y-112259400D02*
X141860346Y-112187971D01*
X141217488Y-112759400D02*
X141074631Y-112830828D01*
X141074631Y-112830828D02*
X140788917Y-112830828D01*
X140788917Y-112830828D02*
X140646060Y-112759400D01*
X140646060Y-112759400D02*
X140574631Y-112616542D01*
X140574631Y-112616542D02*
X140574631Y-112545114D01*
X140574631Y-112545114D02*
X140646060Y-112402257D01*
X140646060Y-112402257D02*
X140788917Y-112330828D01*
X140788917Y-112330828D02*
X141003203Y-112330828D01*
X141003203Y-112330828D02*
X141146060Y-112259400D01*
X141146060Y-112259400D02*
X141217488Y-112116542D01*
X141217488Y-112116542D02*
X141217488Y-112045114D01*
X141217488Y-112045114D02*
X141146060Y-111902257D01*
X141146060Y-111902257D02*
X141003203Y-111830828D01*
X141003203Y-111830828D02*
X140788917Y-111830828D01*
X140788917Y-111830828D02*
X140646060Y-111902257D01*
X139360345Y-112759400D02*
X139503202Y-112830828D01*
X139503202Y-112830828D02*
X139788917Y-112830828D01*
X139788917Y-112830828D02*
X139931774Y-112759400D01*
X139931774Y-112759400D02*
X140003202Y-112616542D01*
X140003202Y-112616542D02*
X140003202Y-112045114D01*
X140003202Y-112045114D02*
X139931774Y-111902257D01*
X139931774Y-111902257D02*
X139788917Y-111830828D01*
X139788917Y-111830828D02*
X139503202Y-111830828D01*
X139503202Y-111830828D02*
X139360345Y-111902257D01*
X139360345Y-111902257D02*
X139288917Y-112045114D01*
X139288917Y-112045114D02*
X139288917Y-112187971D01*
X139288917Y-112187971D02*
X140003202Y-112330828D01*
X138646060Y-112830828D02*
X138646060Y-111830828D01*
X138646060Y-112116542D02*
X138574631Y-111973685D01*
X138574631Y-111973685D02*
X138503203Y-111902257D01*
X138503203Y-111902257D02*
X138360345Y-111830828D01*
X138360345Y-111830828D02*
X138217488Y-111830828D01*
D10*
X144476115Y-75691466D02*
X143714211Y-75691466D01*
X144095163Y-76072419D02*
X144095163Y-75310514D01*
D14*
X124715203Y-58474828D02*
X125429489Y-58474828D01*
X125429489Y-58474828D02*
X125429489Y-56974828D01*
X124215203Y-57689114D02*
X123715203Y-57689114D01*
X123500917Y-58474828D02*
X124215203Y-58474828D01*
X124215203Y-58474828D02*
X124215203Y-56974828D01*
X124215203Y-56974828D02*
X123500917Y-56974828D01*
X122858060Y-58474828D02*
X122858060Y-56974828D01*
X122858060Y-56974828D02*
X122500917Y-56974828D01*
X122500917Y-56974828D02*
X122286631Y-57046257D01*
X122286631Y-57046257D02*
X122143774Y-57189114D01*
X122143774Y-57189114D02*
X122072345Y-57331971D01*
X122072345Y-57331971D02*
X122000917Y-57617685D01*
X122000917Y-57617685D02*
X122000917Y-57831971D01*
X122000917Y-57831971D02*
X122072345Y-58117685D01*
X122072345Y-58117685D02*
X122143774Y-58260542D01*
X122143774Y-58260542D02*
X122286631Y-58403400D01*
X122286631Y-58403400D02*
X122500917Y-58474828D01*
X122500917Y-58474828D02*
X122858060Y-58474828D01*
X121429488Y-57117685D02*
X121358060Y-57046257D01*
X121358060Y-57046257D02*
X121215203Y-56974828D01*
X121215203Y-56974828D02*
X120858060Y-56974828D01*
X120858060Y-56974828D02*
X120715203Y-57046257D01*
X120715203Y-57046257D02*
X120643774Y-57117685D01*
X120643774Y-57117685D02*
X120572345Y-57260542D01*
X120572345Y-57260542D02*
X120572345Y-57403400D01*
X120572345Y-57403400D02*
X120643774Y-57617685D01*
X120643774Y-57617685D02*
X121500917Y-58474828D01*
X121500917Y-58474828D02*
X120572345Y-58474828D01*
D10*
X144523734Y-87867657D02*
X144476115Y-87820038D01*
X144476115Y-87820038D02*
X144380877Y-87772419D01*
X144380877Y-87772419D02*
X144142782Y-87772419D01*
X144142782Y-87772419D02*
X144047544Y-87820038D01*
X144047544Y-87820038D02*
X143999925Y-87867657D01*
X143999925Y-87867657D02*
X143952306Y-87962895D01*
X143952306Y-87962895D02*
X143952306Y-88058133D01*
X143952306Y-88058133D02*
X143999925Y-88200990D01*
X143999925Y-88200990D02*
X144571353Y-88772419D01*
X144571353Y-88772419D02*
X143952306Y-88772419D01*
X143618972Y-87772419D02*
X142952306Y-87772419D01*
X142952306Y-87772419D02*
X143380877Y-88772419D01*
X116932972Y-63467752D02*
X116552020Y-63467752D01*
X116790115Y-63134419D02*
X116790115Y-63991561D01*
X116790115Y-63991561D02*
X116742496Y-64086800D01*
X116742496Y-64086800D02*
X116647258Y-64134419D01*
X116647258Y-64134419D02*
X116552020Y-64134419D01*
X116313924Y-64134419D02*
X115790115Y-63467752D01*
X116313924Y-63467752D02*
X115790115Y-64134419D01*
X144523734Y-82787657D02*
X144476115Y-82740038D01*
X144476115Y-82740038D02*
X144380877Y-82692419D01*
X144380877Y-82692419D02*
X144142782Y-82692419D01*
X144142782Y-82692419D02*
X144047544Y-82740038D01*
X144047544Y-82740038D02*
X143999925Y-82787657D01*
X143999925Y-82787657D02*
X143952306Y-82882895D01*
X143952306Y-82882895D02*
X143952306Y-82978133D01*
X143952306Y-82978133D02*
X143999925Y-83120990D01*
X143999925Y-83120990D02*
X144571353Y-83692419D01*
X144571353Y-83692419D02*
X143952306Y-83692419D01*
X142999925Y-83692419D02*
X143571353Y-83692419D01*
X143285639Y-83692419D02*
X143285639Y-82692419D01*
X143285639Y-82692419D02*
X143380877Y-82835276D01*
X143380877Y-82835276D02*
X143476115Y-82930514D01*
X143476115Y-82930514D02*
X143571353Y-82978133D01*
D16*
X124165128Y-128798438D02*
X122831795Y-130798438D01*
X122831795Y-128798438D02*
X124165128Y-130798438D01*
D10*
X144730115Y-106901752D02*
X144730115Y-107901752D01*
X144730115Y-106949371D02*
X144634877Y-106901752D01*
X144634877Y-106901752D02*
X144444401Y-106901752D01*
X144444401Y-106901752D02*
X144349163Y-106949371D01*
X144349163Y-106949371D02*
X144301544Y-106996990D01*
X144301544Y-106996990D02*
X144253925Y-107092228D01*
X144253925Y-107092228D02*
X144253925Y-107377942D01*
X144253925Y-107377942D02*
X144301544Y-107473180D01*
X144301544Y-107473180D02*
X144349163Y-107520800D01*
X144349163Y-107520800D02*
X144444401Y-107568419D01*
X144444401Y-107568419D02*
X144634877Y-107568419D01*
X144634877Y-107568419D02*
X144730115Y-107520800D01*
X143920591Y-106901752D02*
X143730115Y-107568419D01*
X143730115Y-107568419D02*
X143539639Y-107092228D01*
X143539639Y-107092228D02*
X143349163Y-107568419D01*
X143349163Y-107568419D02*
X143158687Y-106901752D01*
X142777734Y-107568419D02*
X142777734Y-106901752D01*
X142777734Y-106996990D02*
X142730115Y-106949371D01*
X142730115Y-106949371D02*
X142634877Y-106901752D01*
X142634877Y-106901752D02*
X142492020Y-106901752D01*
X142492020Y-106901752D02*
X142396782Y-106949371D01*
X142396782Y-106949371D02*
X142349163Y-107044609D01*
X142349163Y-107044609D02*
X142349163Y-107568419D01*
X142349163Y-107044609D02*
X142301544Y-106949371D01*
X142301544Y-106949371D02*
X142206306Y-106901752D01*
X142206306Y-106901752D02*
X142063449Y-106901752D01*
X142063449Y-106901752D02*
X141968210Y-106949371D01*
X141968210Y-106949371D02*
X141920591Y-107044609D01*
X141920591Y-107044609D02*
X141920591Y-107568419D01*
D14*
X128223489Y-61292828D02*
X128223489Y-62507114D01*
X128223489Y-62507114D02*
X128152060Y-62649971D01*
X128152060Y-62649971D02*
X128080632Y-62721400D01*
X128080632Y-62721400D02*
X127937774Y-62792828D01*
X127937774Y-62792828D02*
X127652060Y-62792828D01*
X127652060Y-62792828D02*
X127509203Y-62721400D01*
X127509203Y-62721400D02*
X127437774Y-62649971D01*
X127437774Y-62649971D02*
X127366346Y-62507114D01*
X127366346Y-62507114D02*
X127366346Y-61292828D01*
X126652060Y-62792828D02*
X126652060Y-61292828D01*
X126652060Y-61292828D02*
X126294917Y-61292828D01*
X126294917Y-61292828D02*
X126080631Y-61364257D01*
X126080631Y-61364257D02*
X125937774Y-61507114D01*
X125937774Y-61507114D02*
X125866345Y-61649971D01*
X125866345Y-61649971D02*
X125794917Y-61935685D01*
X125794917Y-61935685D02*
X125794917Y-62149971D01*
X125794917Y-62149971D02*
X125866345Y-62435685D01*
X125866345Y-62435685D02*
X125937774Y-62578542D01*
X125937774Y-62578542D02*
X126080631Y-62721400D01*
X126080631Y-62721400D02*
X126294917Y-62792828D01*
X126294917Y-62792828D02*
X126652060Y-62792828D01*
X125152060Y-62792828D02*
X125152060Y-61292828D01*
X125152060Y-61292828D02*
X124580631Y-61292828D01*
X124580631Y-61292828D02*
X124437774Y-61364257D01*
X124437774Y-61364257D02*
X124366345Y-61435685D01*
X124366345Y-61435685D02*
X124294917Y-61578542D01*
X124294917Y-61578542D02*
X124294917Y-61792828D01*
X124294917Y-61792828D02*
X124366345Y-61935685D01*
X124366345Y-61935685D02*
X124437774Y-62007114D01*
X124437774Y-62007114D02*
X124580631Y-62078542D01*
X124580631Y-62078542D02*
X125152060Y-62078542D01*
X123652060Y-62792828D02*
X123652060Y-61292828D01*
D16*
X123085700Y-105716057D02*
X123085700Y-106668438D01*
X123752366Y-104668438D02*
X123085700Y-105716057D01*
X123085700Y-105716057D02*
X122419033Y-104668438D01*
D10*
X119330115Y-64134419D02*
X119330115Y-63467752D01*
X119330115Y-63658228D02*
X119282496Y-63562990D01*
X119282496Y-63562990D02*
X119234877Y-63515371D01*
X119234877Y-63515371D02*
X119139639Y-63467752D01*
X119139639Y-63467752D02*
X119044401Y-63467752D01*
X118806305Y-64134419D02*
X118282496Y-63467752D01*
X118806305Y-63467752D02*
X118282496Y-64134419D01*
D14*
X145035108Y-64570828D02*
X145035108Y-63070828D01*
X145035108Y-63070828D02*
X144601774Y-64142257D01*
X144601774Y-64142257D02*
X144168441Y-63070828D01*
X144168441Y-63070828D02*
X144168441Y-64570828D01*
X143549394Y-64570828D02*
X143549394Y-63570828D01*
X143549394Y-63070828D02*
X143611298Y-63142257D01*
X143611298Y-63142257D02*
X143549394Y-63213685D01*
X143549394Y-63213685D02*
X143487489Y-63142257D01*
X143487489Y-63142257D02*
X143549394Y-63070828D01*
X143549394Y-63070828D02*
X143549394Y-63213685D01*
X142373203Y-64499400D02*
X142497012Y-64570828D01*
X142497012Y-64570828D02*
X142744631Y-64570828D01*
X142744631Y-64570828D02*
X142868441Y-64499400D01*
X142868441Y-64499400D02*
X142930346Y-64427971D01*
X142930346Y-64427971D02*
X142992250Y-64285114D01*
X142992250Y-64285114D02*
X142992250Y-63856542D01*
X142992250Y-63856542D02*
X142930346Y-63713685D01*
X142930346Y-63713685D02*
X142868441Y-63642257D01*
X142868441Y-63642257D02*
X142744631Y-63570828D01*
X142744631Y-63570828D02*
X142497012Y-63570828D01*
X142497012Y-63570828D02*
X142373203Y-63642257D01*
X141816060Y-64570828D02*
X141816060Y-63570828D01*
X141816060Y-63856542D02*
X141754155Y-63713685D01*
X141754155Y-63713685D02*
X141692250Y-63642257D01*
X141692250Y-63642257D02*
X141568441Y-63570828D01*
X141568441Y-63570828D02*
X141444631Y-63570828D01*
X140825583Y-64570828D02*
X140949393Y-64499400D01*
X140949393Y-64499400D02*
X141011298Y-64427971D01*
X141011298Y-64427971D02*
X141073202Y-64285114D01*
X141073202Y-64285114D02*
X141073202Y-63856542D01*
X141073202Y-63856542D02*
X141011298Y-63713685D01*
X141011298Y-63713685D02*
X140949393Y-63642257D01*
X140949393Y-63642257D02*
X140825583Y-63570828D01*
X140825583Y-63570828D02*
X140639869Y-63570828D01*
X140639869Y-63570828D02*
X140516060Y-63642257D01*
X140516060Y-63642257D02*
X140454155Y-63713685D01*
X140454155Y-63713685D02*
X140392250Y-63856542D01*
X140392250Y-63856542D02*
X140392250Y-64285114D01*
X140392250Y-64285114D02*
X140454155Y-64427971D01*
X140454155Y-64427971D02*
X140516060Y-64499400D01*
X140516060Y-64499400D02*
X140639869Y-64570828D01*
X140639869Y-64570828D02*
X140825583Y-64570828D01*
X138906536Y-64499400D02*
X138720822Y-64570828D01*
X138720822Y-64570828D02*
X138411298Y-64570828D01*
X138411298Y-64570828D02*
X138287489Y-64499400D01*
X138287489Y-64499400D02*
X138225584Y-64427971D01*
X138225584Y-64427971D02*
X138163679Y-64285114D01*
X138163679Y-64285114D02*
X138163679Y-64142257D01*
X138163679Y-64142257D02*
X138225584Y-63999400D01*
X138225584Y-63999400D02*
X138287489Y-63927971D01*
X138287489Y-63927971D02*
X138411298Y-63856542D01*
X138411298Y-63856542D02*
X138658917Y-63785114D01*
X138658917Y-63785114D02*
X138782727Y-63713685D01*
X138782727Y-63713685D02*
X138844632Y-63642257D01*
X138844632Y-63642257D02*
X138906536Y-63499400D01*
X138906536Y-63499400D02*
X138906536Y-63356542D01*
X138906536Y-63356542D02*
X138844632Y-63213685D01*
X138844632Y-63213685D02*
X138782727Y-63142257D01*
X138782727Y-63142257D02*
X138658917Y-63070828D01*
X138658917Y-63070828D02*
X138349394Y-63070828D01*
X138349394Y-63070828D02*
X138163679Y-63142257D01*
X137606537Y-64570828D02*
X137606537Y-63070828D01*
X137606537Y-63070828D02*
X137297013Y-63070828D01*
X137297013Y-63070828D02*
X137111299Y-63142257D01*
X137111299Y-63142257D02*
X136987489Y-63285114D01*
X136987489Y-63285114D02*
X136925584Y-63427971D01*
X136925584Y-63427971D02*
X136863680Y-63713685D01*
X136863680Y-63713685D02*
X136863680Y-63927971D01*
X136863680Y-63927971D02*
X136925584Y-64213685D01*
X136925584Y-64213685D02*
X136987489Y-64356542D01*
X136987489Y-64356542D02*
X137111299Y-64499400D01*
X137111299Y-64499400D02*
X137297013Y-64570828D01*
X137297013Y-64570828D02*
X137606537Y-64570828D01*
X140740917Y-88121400D02*
X140598060Y-88192828D01*
X140598060Y-88192828D02*
X140312346Y-88192828D01*
X140312346Y-88192828D02*
X140169489Y-88121400D01*
X140169489Y-88121400D02*
X140098060Y-87978542D01*
X140098060Y-87978542D02*
X140098060Y-87907114D01*
X140098060Y-87907114D02*
X140169489Y-87764257D01*
X140169489Y-87764257D02*
X140312346Y-87692828D01*
X140312346Y-87692828D02*
X140526632Y-87692828D01*
X140526632Y-87692828D02*
X140669489Y-87621400D01*
X140669489Y-87621400D02*
X140740917Y-87478542D01*
X140740917Y-87478542D02*
X140740917Y-87407114D01*
X140740917Y-87407114D02*
X140669489Y-87264257D01*
X140669489Y-87264257D02*
X140526632Y-87192828D01*
X140526632Y-87192828D02*
X140312346Y-87192828D01*
X140312346Y-87192828D02*
X140169489Y-87264257D01*
X138883774Y-88121400D02*
X139026631Y-88192828D01*
X139026631Y-88192828D02*
X139312346Y-88192828D01*
X139312346Y-88192828D02*
X139455203Y-88121400D01*
X139455203Y-88121400D02*
X139526631Y-87978542D01*
X139526631Y-87978542D02*
X139526631Y-87407114D01*
X139526631Y-87407114D02*
X139455203Y-87264257D01*
X139455203Y-87264257D02*
X139312346Y-87192828D01*
X139312346Y-87192828D02*
X139026631Y-87192828D01*
X139026631Y-87192828D02*
X138883774Y-87264257D01*
X138883774Y-87264257D02*
X138812346Y-87407114D01*
X138812346Y-87407114D02*
X138812346Y-87549971D01*
X138812346Y-87549971D02*
X139526631Y-87692828D01*
X138169489Y-88192828D02*
X138169489Y-87192828D01*
X138169489Y-87478542D02*
X138098060Y-87335685D01*
X138098060Y-87335685D02*
X138026632Y-87264257D01*
X138026632Y-87264257D02*
X137883774Y-87192828D01*
X137883774Y-87192828D02*
X137740917Y-87192828D01*
X137383775Y-87192828D02*
X137026632Y-88192828D01*
X136669489Y-87192828D02*
X137026632Y-88192828D01*
X137026632Y-88192828D02*
X137169489Y-88549971D01*
X137169489Y-88549971D02*
X137240918Y-88621400D01*
X137240918Y-88621400D02*
X137383775Y-88692828D01*
X135455204Y-88121400D02*
X135598061Y-88192828D01*
X135598061Y-88192828D02*
X135883775Y-88192828D01*
X135883775Y-88192828D02*
X136026632Y-88121400D01*
X136026632Y-88121400D02*
X136098061Y-88049971D01*
X136098061Y-88049971D02*
X136169489Y-87907114D01*
X136169489Y-87907114D02*
X136169489Y-87478542D01*
X136169489Y-87478542D02*
X136098061Y-87335685D01*
X136098061Y-87335685D02*
X136026632Y-87264257D01*
X136026632Y-87264257D02*
X135883775Y-87192828D01*
X135883775Y-87192828D02*
X135598061Y-87192828D01*
X135598061Y-87192828D02*
X135455204Y-87264257D01*
X134812347Y-88192828D02*
X134812347Y-86692828D01*
X134169490Y-88192828D02*
X134169490Y-87407114D01*
X134169490Y-87407114D02*
X134240918Y-87264257D01*
X134240918Y-87264257D02*
X134383775Y-87192828D01*
X134383775Y-87192828D02*
X134598061Y-87192828D01*
X134598061Y-87192828D02*
X134740918Y-87264257D01*
X134740918Y-87264257D02*
X134812347Y-87335685D01*
X132526632Y-87478542D02*
X132598061Y-87407114D01*
X132598061Y-87407114D02*
X132740918Y-87335685D01*
X132740918Y-87335685D02*
X132883775Y-87335685D01*
X132883775Y-87335685D02*
X133026632Y-87407114D01*
X133026632Y-87407114D02*
X133098061Y-87478542D01*
X133098061Y-87478542D02*
X133169489Y-87621400D01*
X133169489Y-87621400D02*
X133169489Y-87764257D01*
X133169489Y-87764257D02*
X133098061Y-87907114D01*
X133098061Y-87907114D02*
X133026632Y-87978542D01*
X133026632Y-87978542D02*
X132883775Y-88049971D01*
X132883775Y-88049971D02*
X132740918Y-88049971D01*
X132740918Y-88049971D02*
X132598061Y-87978542D01*
X132598061Y-87978542D02*
X132526632Y-87907114D01*
X132526632Y-87335685D02*
X132526632Y-87907114D01*
X132526632Y-87907114D02*
X132455204Y-87978542D01*
X132455204Y-87978542D02*
X132383775Y-87978542D01*
X132383775Y-87978542D02*
X132240918Y-87907114D01*
X132240918Y-87907114D02*
X132169489Y-87764257D01*
X132169489Y-87764257D02*
X132169489Y-87407114D01*
X132169489Y-87407114D02*
X132312347Y-87192828D01*
X132312347Y-87192828D02*
X132526632Y-87049971D01*
X132526632Y-87049971D02*
X132812347Y-86978542D01*
X132812347Y-86978542D02*
X133098061Y-87049971D01*
X133098061Y-87049971D02*
X133312347Y-87192828D01*
X133312347Y-87192828D02*
X133455204Y-87407114D01*
X133455204Y-87407114D02*
X133526632Y-87692828D01*
X133526632Y-87692828D02*
X133455204Y-87978542D01*
X133455204Y-87978542D02*
X133312347Y-88192828D01*
X133312347Y-88192828D02*
X133098061Y-88335685D01*
X133098061Y-88335685D02*
X132812347Y-88407114D01*
X132812347Y-88407114D02*
X132526632Y-88335685D01*
X132526632Y-88335685D02*
X132312347Y-88192828D01*
X131526633Y-87192828D02*
X131526633Y-88692828D01*
X131526633Y-87264257D02*
X131383776Y-87192828D01*
X131383776Y-87192828D02*
X131098061Y-87192828D01*
X131098061Y-87192828D02*
X130955204Y-87264257D01*
X130955204Y-87264257D02*
X130883776Y-87335685D01*
X130883776Y-87335685D02*
X130812347Y-87478542D01*
X130812347Y-87478542D02*
X130812347Y-87907114D01*
X130812347Y-87907114D02*
X130883776Y-88049971D01*
X130883776Y-88049971D02*
X130955204Y-88121400D01*
X130955204Y-88121400D02*
X131098061Y-88192828D01*
X131098061Y-88192828D02*
X131383776Y-88192828D01*
X131383776Y-88192828D02*
X131526633Y-88121400D01*
X129526633Y-88192828D02*
X129526633Y-87407114D01*
X129526633Y-87407114D02*
X129598061Y-87264257D01*
X129598061Y-87264257D02*
X129740918Y-87192828D01*
X129740918Y-87192828D02*
X130026633Y-87192828D01*
X130026633Y-87192828D02*
X130169490Y-87264257D01*
X129526633Y-88121400D02*
X129669490Y-88192828D01*
X129669490Y-88192828D02*
X130026633Y-88192828D01*
X130026633Y-88192828D02*
X130169490Y-88121400D01*
X130169490Y-88121400D02*
X130240918Y-87978542D01*
X130240918Y-87978542D02*
X130240918Y-87835685D01*
X130240918Y-87835685D02*
X130169490Y-87692828D01*
X130169490Y-87692828D02*
X130026633Y-87621400D01*
X130026633Y-87621400D02*
X129669490Y-87621400D01*
X129669490Y-87621400D02*
X129526633Y-87549971D01*
X128812347Y-87192828D02*
X128812347Y-88192828D01*
X128812347Y-87335685D02*
X128740918Y-87264257D01*
X128740918Y-87264257D02*
X128598061Y-87192828D01*
X128598061Y-87192828D02*
X128383775Y-87192828D01*
X128383775Y-87192828D02*
X128240918Y-87264257D01*
X128240918Y-87264257D02*
X128169490Y-87407114D01*
X128169490Y-87407114D02*
X128169490Y-88192828D01*
X127526632Y-88121400D02*
X127383775Y-88192828D01*
X127383775Y-88192828D02*
X127098061Y-88192828D01*
X127098061Y-88192828D02*
X126955204Y-88121400D01*
X126955204Y-88121400D02*
X126883775Y-87978542D01*
X126883775Y-87978542D02*
X126883775Y-87907114D01*
X126883775Y-87907114D02*
X126955204Y-87764257D01*
X126955204Y-87764257D02*
X127098061Y-87692828D01*
X127098061Y-87692828D02*
X127312347Y-87692828D01*
X127312347Y-87692828D02*
X127455204Y-87621400D01*
X127455204Y-87621400D02*
X127526632Y-87478542D01*
X127526632Y-87478542D02*
X127526632Y-87407114D01*
X127526632Y-87407114D02*
X127455204Y-87264257D01*
X127455204Y-87264257D02*
X127312347Y-87192828D01*
X127312347Y-87192828D02*
X127098061Y-87192828D01*
X127098061Y-87192828D02*
X126955204Y-87264257D01*
X126240918Y-88192828D02*
X126240918Y-86692828D01*
X126098061Y-87621400D02*
X125669489Y-88192828D01*
X125669489Y-87192828D02*
X126240918Y-87764257D01*
X124383775Y-88192828D02*
X124383775Y-87407114D01*
X124383775Y-87407114D02*
X124455203Y-87264257D01*
X124455203Y-87264257D02*
X124598060Y-87192828D01*
X124598060Y-87192828D02*
X124883775Y-87192828D01*
X124883775Y-87192828D02*
X125026632Y-87264257D01*
X124383775Y-88121400D02*
X124526632Y-88192828D01*
X124526632Y-88192828D02*
X124883775Y-88192828D01*
X124883775Y-88192828D02*
X125026632Y-88121400D01*
X125026632Y-88121400D02*
X125098060Y-87978542D01*
X125098060Y-87978542D02*
X125098060Y-87835685D01*
X125098060Y-87835685D02*
X125026632Y-87692828D01*
X125026632Y-87692828D02*
X124883775Y-87621400D01*
X124883775Y-87621400D02*
X124526632Y-87621400D01*
X124526632Y-87621400D02*
X124383775Y-87549971D01*
X123669489Y-88049971D02*
X123598060Y-88121400D01*
X123598060Y-88121400D02*
X123669489Y-88192828D01*
X123669489Y-88192828D02*
X123740917Y-88121400D01*
X123740917Y-88121400D02*
X123669489Y-88049971D01*
X123669489Y-88049971D02*
X123669489Y-88192828D01*
X122312346Y-88121400D02*
X122455203Y-88192828D01*
X122455203Y-88192828D02*
X122740917Y-88192828D01*
X122740917Y-88192828D02*
X122883774Y-88121400D01*
X122883774Y-88121400D02*
X122955203Y-88049971D01*
X122955203Y-88049971D02*
X123026631Y-87907114D01*
X123026631Y-87907114D02*
X123026631Y-87478542D01*
X123026631Y-87478542D02*
X122955203Y-87335685D01*
X122955203Y-87335685D02*
X122883774Y-87264257D01*
X122883774Y-87264257D02*
X122740917Y-87192828D01*
X122740917Y-87192828D02*
X122455203Y-87192828D01*
X122455203Y-87192828D02*
X122312346Y-87264257D01*
X121812346Y-87192828D02*
X121026632Y-87192828D01*
X121026632Y-87192828D02*
X121812346Y-88192828D01*
X121812346Y-88192828D02*
X121026632Y-88192828D01*
D10*
X119076115Y-59689466D02*
X118314211Y-59689466D01*
X118695163Y-60070419D02*
X118695163Y-59308514D01*
X127204115Y-68706419D02*
X127204115Y-68039752D01*
X127204115Y-68230228D02*
X127156496Y-68134990D01*
X127156496Y-68134990D02*
X127108877Y-68087371D01*
X127108877Y-68087371D02*
X127013639Y-68039752D01*
X127013639Y-68039752D02*
X126918401Y-68039752D01*
X126727924Y-68039752D02*
X126346972Y-68039752D01*
X126585067Y-67706419D02*
X126585067Y-68563561D01*
X126585067Y-68563561D02*
X126537448Y-68658800D01*
X126537448Y-68658800D02*
X126442210Y-68706419D01*
X126442210Y-68706419D02*
X126346972Y-68706419D01*
X126061257Y-68658800D02*
X125966019Y-68706419D01*
X125966019Y-68706419D02*
X125775543Y-68706419D01*
X125775543Y-68706419D02*
X125680305Y-68658800D01*
X125680305Y-68658800D02*
X125632686Y-68563561D01*
X125632686Y-68563561D02*
X125632686Y-68515942D01*
X125632686Y-68515942D02*
X125680305Y-68420704D01*
X125680305Y-68420704D02*
X125775543Y-68373085D01*
X125775543Y-68373085D02*
X125918400Y-68373085D01*
X125918400Y-68373085D02*
X126013638Y-68325466D01*
X126013638Y-68325466D02*
X126061257Y-68230228D01*
X126061257Y-68230228D02*
X126061257Y-68182609D01*
X126061257Y-68182609D02*
X126013638Y-68087371D01*
X126013638Y-68087371D02*
X125918400Y-68039752D01*
X125918400Y-68039752D02*
X125775543Y-68039752D01*
X125775543Y-68039752D02*
X125680305Y-68087371D01*
D14*
X119587489Y-73206828D02*
X119587489Y-72206828D01*
X119587489Y-72492542D02*
X119516060Y-72349685D01*
X119516060Y-72349685D02*
X119444632Y-72278257D01*
X119444632Y-72278257D02*
X119301774Y-72206828D01*
X119301774Y-72206828D02*
X119158917Y-72206828D01*
X118087489Y-73135400D02*
X118230346Y-73206828D01*
X118230346Y-73206828D02*
X118516061Y-73206828D01*
X118516061Y-73206828D02*
X118658918Y-73135400D01*
X118658918Y-73135400D02*
X118730346Y-72992542D01*
X118730346Y-72992542D02*
X118730346Y-72421114D01*
X118730346Y-72421114D02*
X118658918Y-72278257D01*
X118658918Y-72278257D02*
X118516061Y-72206828D01*
X118516061Y-72206828D02*
X118230346Y-72206828D01*
X118230346Y-72206828D02*
X118087489Y-72278257D01*
X118087489Y-72278257D02*
X118016061Y-72421114D01*
X118016061Y-72421114D02*
X118016061Y-72563971D01*
X118016061Y-72563971D02*
X118730346Y-72706828D01*
X117516061Y-72206828D02*
X117158918Y-73206828D01*
X117158918Y-73206828D02*
X116801775Y-72206828D01*
X115158918Y-71849685D02*
X115087490Y-71778257D01*
X115087490Y-71778257D02*
X114944633Y-71706828D01*
X114944633Y-71706828D02*
X114587490Y-71706828D01*
X114587490Y-71706828D02*
X114444633Y-71778257D01*
X114444633Y-71778257D02*
X114373204Y-71849685D01*
X114373204Y-71849685D02*
X114301775Y-71992542D01*
X114301775Y-71992542D02*
X114301775Y-72135400D01*
X114301775Y-72135400D02*
X114373204Y-72349685D01*
X114373204Y-72349685D02*
X115230347Y-73206828D01*
X115230347Y-73206828D02*
X114301775Y-73206828D01*
D10*
X139904115Y-107187466D02*
X139142211Y-107187466D01*
X139523163Y-107568419D02*
X139523163Y-106806514D01*
X138142211Y-107568419D02*
X138713639Y-107568419D01*
X138427925Y-107568419D02*
X138427925Y-106568419D01*
X138427925Y-106568419D02*
X138523163Y-106711276D01*
X138523163Y-106711276D02*
X138618401Y-106806514D01*
X138618401Y-106806514D02*
X138713639Y-106854133D01*
X137761258Y-106663657D02*
X137713639Y-106616038D01*
X137713639Y-106616038D02*
X137618401Y-106568419D01*
X137618401Y-106568419D02*
X137380306Y-106568419D01*
X137380306Y-106568419D02*
X137285068Y-106616038D01*
X137285068Y-106616038D02*
X137237449Y-106663657D01*
X137237449Y-106663657D02*
X137189830Y-106758895D01*
X137189830Y-106758895D02*
X137189830Y-106854133D01*
X137189830Y-106854133D02*
X137237449Y-106996990D01*
X137237449Y-106996990D02*
X137808877Y-107568419D01*
X137808877Y-107568419D02*
X137189830Y-107568419D01*
X120600115Y-68325466D02*
X119838211Y-68325466D01*
X120219163Y-68706419D02*
X120219163Y-67944514D01*
X119457258Y-67706419D02*
X118838211Y-67706419D01*
X118838211Y-67706419D02*
X119171544Y-68087371D01*
X119171544Y-68087371D02*
X119028687Y-68087371D01*
X119028687Y-68087371D02*
X118933449Y-68134990D01*
X118933449Y-68134990D02*
X118885830Y-68182609D01*
X118885830Y-68182609D02*
X118838211Y-68277847D01*
X118838211Y-68277847D02*
X118838211Y-68515942D01*
X118838211Y-68515942D02*
X118885830Y-68611180D01*
X118885830Y-68611180D02*
X118933449Y-68658800D01*
X118933449Y-68658800D02*
X119028687Y-68706419D01*
X119028687Y-68706419D02*
X119314401Y-68706419D01*
X119314401Y-68706419D02*
X119409639Y-68658800D01*
X119409639Y-68658800D02*
X119457258Y-68611180D01*
X118409639Y-68611180D02*
X118362020Y-68658800D01*
X118362020Y-68658800D02*
X118409639Y-68706419D01*
X118409639Y-68706419D02*
X118457258Y-68658800D01*
X118457258Y-68658800D02*
X118409639Y-68611180D01*
X118409639Y-68611180D02*
X118409639Y-68706419D01*
X118028687Y-67706419D02*
X117409640Y-67706419D01*
X117409640Y-67706419D02*
X117742973Y-68087371D01*
X117742973Y-68087371D02*
X117600116Y-68087371D01*
X117600116Y-68087371D02*
X117504878Y-68134990D01*
X117504878Y-68134990D02*
X117457259Y-68182609D01*
X117457259Y-68182609D02*
X117409640Y-68277847D01*
X117409640Y-68277847D02*
X117409640Y-68515942D01*
X117409640Y-68515942D02*
X117457259Y-68611180D01*
X117457259Y-68611180D02*
X117504878Y-68658800D01*
X117504878Y-68658800D02*
X117600116Y-68706419D01*
X117600116Y-68706419D02*
X117885830Y-68706419D01*
X117885830Y-68706419D02*
X117981068Y-68658800D01*
X117981068Y-68658800D02*
X118028687Y-68611180D01*
X124552972Y-68039752D02*
X124172020Y-68039752D01*
X124410115Y-67706419D02*
X124410115Y-68563561D01*
X124410115Y-68563561D02*
X124362496Y-68658800D01*
X124362496Y-68658800D02*
X124267258Y-68706419D01*
X124267258Y-68706419D02*
X124172020Y-68706419D01*
X123933924Y-68706419D02*
X123410115Y-68039752D01*
X123933924Y-68039752D02*
X123410115Y-68706419D01*
X121870115Y-68706419D02*
X121870115Y-68039752D01*
X121870115Y-68230228D02*
X121822496Y-68134990D01*
X121822496Y-68134990D02*
X121774877Y-68087371D01*
X121774877Y-68087371D02*
X121679639Y-68039752D01*
X121679639Y-68039752D02*
X121584401Y-68039752D01*
X121346305Y-68706419D02*
X120822496Y-68039752D01*
X121346305Y-68039752D02*
X120822496Y-68706419D01*
D14*
X141431489Y-144834828D02*
X141431489Y-143334828D01*
X141431489Y-143334828D02*
X140860060Y-143334828D01*
X140860060Y-143334828D02*
X140717203Y-143406257D01*
X140717203Y-143406257D02*
X140645774Y-143477685D01*
X140645774Y-143477685D02*
X140574346Y-143620542D01*
X140574346Y-143620542D02*
X140574346Y-143834828D01*
X140574346Y-143834828D02*
X140645774Y-143977685D01*
X140645774Y-143977685D02*
X140717203Y-144049114D01*
X140717203Y-144049114D02*
X140860060Y-144120542D01*
X140860060Y-144120542D02*
X141431489Y-144120542D01*
X140074346Y-143334828D02*
X139717203Y-144834828D01*
X139717203Y-144834828D02*
X139431489Y-143763400D01*
X139431489Y-143763400D02*
X139145774Y-144834828D01*
X139145774Y-144834828D02*
X138788632Y-143334828D01*
X137360060Y-144834828D02*
X137860060Y-144120542D01*
X138217203Y-144834828D02*
X138217203Y-143334828D01*
X138217203Y-143334828D02*
X137645774Y-143334828D01*
X137645774Y-143334828D02*
X137502917Y-143406257D01*
X137502917Y-143406257D02*
X137431488Y-143477685D01*
X137431488Y-143477685D02*
X137360060Y-143620542D01*
X137360060Y-143620542D02*
X137360060Y-143834828D01*
X137360060Y-143834828D02*
X137431488Y-143977685D01*
X137431488Y-143977685D02*
X137502917Y-144049114D01*
X137502917Y-144049114D02*
X137645774Y-144120542D01*
X137645774Y-144120542D02*
X138217203Y-144120542D01*
D10*
X143952306Y-81152419D02*
X144523734Y-81152419D01*
X144238020Y-81152419D02*
X144238020Y-80152419D01*
X144238020Y-80152419D02*
X144333258Y-80295276D01*
X144333258Y-80295276D02*
X144428496Y-80390514D01*
X144428496Y-80390514D02*
X144523734Y-80438133D01*
X143047544Y-80152419D02*
X143523734Y-80152419D01*
X143523734Y-80152419D02*
X143571353Y-80628609D01*
X143571353Y-80628609D02*
X143523734Y-80580990D01*
X143523734Y-80580990D02*
X143428496Y-80533371D01*
X143428496Y-80533371D02*
X143190401Y-80533371D01*
X143190401Y-80533371D02*
X143095163Y-80580990D01*
X143095163Y-80580990D02*
X143047544Y-80628609D01*
X143047544Y-80628609D02*
X142999925Y-80723847D01*
X142999925Y-80723847D02*
X142999925Y-80961942D01*
X142999925Y-80961942D02*
X143047544Y-81057180D01*
X143047544Y-81057180D02*
X143095163Y-81104800D01*
X143095163Y-81104800D02*
X143190401Y-81152419D01*
X143190401Y-81152419D02*
X143428496Y-81152419D01*
X143428496Y-81152419D02*
X143523734Y-81104800D01*
X143523734Y-81104800D02*
X143571353Y-81057180D01*
X116615544Y-60070419D02*
X116615544Y-59070419D01*
X116615544Y-60022800D02*
X116710782Y-60070419D01*
X116710782Y-60070419D02*
X116901258Y-60070419D01*
X116901258Y-60070419D02*
X116996496Y-60022800D01*
X116996496Y-60022800D02*
X117044115Y-59975180D01*
X117044115Y-59975180D02*
X117091734Y-59879942D01*
X117091734Y-59879942D02*
X117091734Y-59594228D01*
X117091734Y-59594228D02*
X117044115Y-59498990D01*
X117044115Y-59498990D02*
X116996496Y-59451371D01*
X116996496Y-59451371D02*
X116901258Y-59403752D01*
X116901258Y-59403752D02*
X116710782Y-59403752D01*
X116710782Y-59403752D02*
X116615544Y-59451371D01*
X115948877Y-59070419D02*
X115853639Y-59070419D01*
X115853639Y-59070419D02*
X115758401Y-59118038D01*
X115758401Y-59118038D02*
X115710782Y-59165657D01*
X115710782Y-59165657D02*
X115663163Y-59260895D01*
X115663163Y-59260895D02*
X115615544Y-59451371D01*
X115615544Y-59451371D02*
X115615544Y-59689466D01*
X115615544Y-59689466D02*
X115663163Y-59879942D01*
X115663163Y-59879942D02*
X115710782Y-59975180D01*
X115710782Y-59975180D02*
X115758401Y-60022800D01*
X115758401Y-60022800D02*
X115853639Y-60070419D01*
X115853639Y-60070419D02*
X115948877Y-60070419D01*
X115948877Y-60070419D02*
X116044115Y-60022800D01*
X116044115Y-60022800D02*
X116091734Y-59975180D01*
X116091734Y-59975180D02*
X116139353Y-59879942D01*
X116139353Y-59879942D02*
X116186972Y-59689466D01*
X116186972Y-59689466D02*
X116186972Y-59451371D01*
X116186972Y-59451371D02*
X116139353Y-59260895D01*
X116139353Y-59260895D02*
X116091734Y-59165657D01*
X116091734Y-59165657D02*
X116044115Y-59118038D01*
X116044115Y-59118038D02*
X115948877Y-59070419D01*
D14*
X129287203Y-95558828D02*
X130001489Y-95558828D01*
X130001489Y-95558828D02*
X130001489Y-94058828D01*
X128787203Y-95558828D02*
X128787203Y-94558828D01*
X128787203Y-94058828D02*
X128858631Y-94130257D01*
X128858631Y-94130257D02*
X128787203Y-94201685D01*
X128787203Y-94201685D02*
X128715774Y-94130257D01*
X128715774Y-94130257D02*
X128787203Y-94058828D01*
X128787203Y-94058828D02*
X128787203Y-94201685D01*
X128072917Y-95558828D02*
X128072917Y-94558828D01*
X128072917Y-94701685D02*
X128001488Y-94630257D01*
X128001488Y-94630257D02*
X127858631Y-94558828D01*
X127858631Y-94558828D02*
X127644345Y-94558828D01*
X127644345Y-94558828D02*
X127501488Y-94630257D01*
X127501488Y-94630257D02*
X127430060Y-94773114D01*
X127430060Y-94773114D02*
X127430060Y-95558828D01*
X127430060Y-94773114D02*
X127358631Y-94630257D01*
X127358631Y-94630257D02*
X127215774Y-94558828D01*
X127215774Y-94558828D02*
X127001488Y-94558828D01*
X127001488Y-94558828D02*
X126858631Y-94630257D01*
X126858631Y-94630257D02*
X126787202Y-94773114D01*
X126787202Y-94773114D02*
X126787202Y-95558828D01*
X126430060Y-95701685D02*
X125287202Y-95701685D01*
X124644345Y-94844542D02*
X124644345Y-95558828D01*
X125144345Y-94058828D02*
X124644345Y-94844542D01*
X124644345Y-94844542D02*
X124144345Y-94058828D01*
X139772632Y-83636828D02*
X139772632Y-84851114D01*
X139772632Y-84851114D02*
X139844060Y-84993971D01*
X139844060Y-84993971D02*
X139915489Y-85065400D01*
X139915489Y-85065400D02*
X140058346Y-85136828D01*
X140058346Y-85136828D02*
X140272632Y-85136828D01*
X140272632Y-85136828D02*
X140415489Y-85065400D01*
X139772632Y-84565400D02*
X139915489Y-84636828D01*
X139915489Y-84636828D02*
X140201203Y-84636828D01*
X140201203Y-84636828D02*
X140344060Y-84565400D01*
X140344060Y-84565400D02*
X140415489Y-84493971D01*
X140415489Y-84493971D02*
X140486917Y-84351114D01*
X140486917Y-84351114D02*
X140486917Y-83922542D01*
X140486917Y-83922542D02*
X140415489Y-83779685D01*
X140415489Y-83779685D02*
X140344060Y-83708257D01*
X140344060Y-83708257D02*
X140201203Y-83636828D01*
X140201203Y-83636828D02*
X139915489Y-83636828D01*
X139915489Y-83636828D02*
X139772632Y-83708257D01*
X139058346Y-84636828D02*
X139058346Y-83636828D01*
X139058346Y-83136828D02*
X139129774Y-83208257D01*
X139129774Y-83208257D02*
X139058346Y-83279685D01*
X139058346Y-83279685D02*
X138986917Y-83208257D01*
X138986917Y-83208257D02*
X139058346Y-83136828D01*
X139058346Y-83136828D02*
X139058346Y-83279685D01*
X138558345Y-83636828D02*
X137986917Y-83636828D01*
X138344060Y-83136828D02*
X138344060Y-84422542D01*
X138344060Y-84422542D02*
X138272631Y-84565400D01*
X138272631Y-84565400D02*
X138129774Y-84636828D01*
X138129774Y-84636828D02*
X137986917Y-84636828D01*
X137486917Y-84636828D02*
X137486917Y-83136828D01*
X136844060Y-84636828D02*
X136844060Y-83851114D01*
X136844060Y-83851114D02*
X136915488Y-83708257D01*
X136915488Y-83708257D02*
X137058345Y-83636828D01*
X137058345Y-83636828D02*
X137272631Y-83636828D01*
X137272631Y-83636828D02*
X137415488Y-83708257D01*
X137415488Y-83708257D02*
X137486917Y-83779685D01*
X135486917Y-83636828D02*
X135486917Y-84636828D01*
X136129774Y-83636828D02*
X136129774Y-84422542D01*
X136129774Y-84422542D02*
X136058345Y-84565400D01*
X136058345Y-84565400D02*
X135915488Y-84636828D01*
X135915488Y-84636828D02*
X135701202Y-84636828D01*
X135701202Y-84636828D02*
X135558345Y-84565400D01*
X135558345Y-84565400D02*
X135486917Y-84493971D01*
X134772631Y-84636828D02*
X134772631Y-83136828D01*
X134772631Y-83708257D02*
X134629774Y-83636828D01*
X134629774Y-83636828D02*
X134344059Y-83636828D01*
X134344059Y-83636828D02*
X134201202Y-83708257D01*
X134201202Y-83708257D02*
X134129774Y-83779685D01*
X134129774Y-83779685D02*
X134058345Y-83922542D01*
X134058345Y-83922542D02*
X134058345Y-84351114D01*
X134058345Y-84351114D02*
X134129774Y-84493971D01*
X134129774Y-84493971D02*
X134201202Y-84565400D01*
X134201202Y-84565400D02*
X134344059Y-84636828D01*
X134344059Y-84636828D02*
X134629774Y-84636828D01*
X134629774Y-84636828D02*
X134772631Y-84565400D01*
X133415488Y-84493971D02*
X133344059Y-84565400D01*
X133344059Y-84565400D02*
X133415488Y-84636828D01*
X133415488Y-84636828D02*
X133486916Y-84565400D01*
X133486916Y-84565400D02*
X133415488Y-84493971D01*
X133415488Y-84493971D02*
X133415488Y-84636828D01*
X132058345Y-84565400D02*
X132201202Y-84636828D01*
X132201202Y-84636828D02*
X132486916Y-84636828D01*
X132486916Y-84636828D02*
X132629773Y-84565400D01*
X132629773Y-84565400D02*
X132701202Y-84493971D01*
X132701202Y-84493971D02*
X132772630Y-84351114D01*
X132772630Y-84351114D02*
X132772630Y-83922542D01*
X132772630Y-83922542D02*
X132701202Y-83779685D01*
X132701202Y-83779685D02*
X132629773Y-83708257D01*
X132629773Y-83708257D02*
X132486916Y-83636828D01*
X132486916Y-83636828D02*
X132201202Y-83636828D01*
X132201202Y-83636828D02*
X132058345Y-83708257D01*
X131201202Y-84636828D02*
X131344059Y-84565400D01*
X131344059Y-84565400D02*
X131415488Y-84493971D01*
X131415488Y-84493971D02*
X131486916Y-84351114D01*
X131486916Y-84351114D02*
X131486916Y-83922542D01*
X131486916Y-83922542D02*
X131415488Y-83779685D01*
X131415488Y-83779685D02*
X131344059Y-83708257D01*
X131344059Y-83708257D02*
X131201202Y-83636828D01*
X131201202Y-83636828D02*
X130986916Y-83636828D01*
X130986916Y-83636828D02*
X130844059Y-83708257D01*
X130844059Y-83708257D02*
X130772631Y-83779685D01*
X130772631Y-83779685D02*
X130701202Y-83922542D01*
X130701202Y-83922542D02*
X130701202Y-84351114D01*
X130701202Y-84351114D02*
X130772631Y-84493971D01*
X130772631Y-84493971D02*
X130844059Y-84565400D01*
X130844059Y-84565400D02*
X130986916Y-84636828D01*
X130986916Y-84636828D02*
X131201202Y-84636828D01*
X130058345Y-84636828D02*
X130058345Y-83636828D01*
X130058345Y-83779685D02*
X129986916Y-83708257D01*
X129986916Y-83708257D02*
X129844059Y-83636828D01*
X129844059Y-83636828D02*
X129629773Y-83636828D01*
X129629773Y-83636828D02*
X129486916Y-83708257D01*
X129486916Y-83708257D02*
X129415488Y-83851114D01*
X129415488Y-83851114D02*
X129415488Y-84636828D01*
X129415488Y-83851114D02*
X129344059Y-83708257D01*
X129344059Y-83708257D02*
X129201202Y-83636828D01*
X129201202Y-83636828D02*
X128986916Y-83636828D01*
X128986916Y-83636828D02*
X128844059Y-83708257D01*
X128844059Y-83708257D02*
X128772630Y-83851114D01*
X128772630Y-83851114D02*
X128772630Y-84636828D01*
X126986916Y-83065400D02*
X128272630Y-84993971D01*
X126558344Y-84565400D02*
X126415487Y-84636828D01*
X126415487Y-84636828D02*
X126129773Y-84636828D01*
X126129773Y-84636828D02*
X125986916Y-84565400D01*
X125986916Y-84565400D02*
X125915487Y-84422542D01*
X125915487Y-84422542D02*
X125915487Y-84351114D01*
X125915487Y-84351114D02*
X125986916Y-84208257D01*
X125986916Y-84208257D02*
X126129773Y-84136828D01*
X126129773Y-84136828D02*
X126344059Y-84136828D01*
X126344059Y-84136828D02*
X126486916Y-84065400D01*
X126486916Y-84065400D02*
X126558344Y-83922542D01*
X126558344Y-83922542D02*
X126558344Y-83851114D01*
X126558344Y-83851114D02*
X126486916Y-83708257D01*
X126486916Y-83708257D02*
X126344059Y-83636828D01*
X126344059Y-83636828D02*
X126129773Y-83636828D01*
X126129773Y-83636828D02*
X125986916Y-83708257D01*
X124701201Y-84565400D02*
X124844058Y-84636828D01*
X124844058Y-84636828D02*
X125129773Y-84636828D01*
X125129773Y-84636828D02*
X125272630Y-84565400D01*
X125272630Y-84565400D02*
X125344058Y-84422542D01*
X125344058Y-84422542D02*
X125344058Y-83851114D01*
X125344058Y-83851114D02*
X125272630Y-83708257D01*
X125272630Y-83708257D02*
X125129773Y-83636828D01*
X125129773Y-83636828D02*
X124844058Y-83636828D01*
X124844058Y-83636828D02*
X124701201Y-83708257D01*
X124701201Y-83708257D02*
X124629773Y-83851114D01*
X124629773Y-83851114D02*
X124629773Y-83993971D01*
X124629773Y-83993971D02*
X125344058Y-84136828D01*
X123986916Y-84636828D02*
X123986916Y-83636828D01*
X123986916Y-83922542D02*
X123915487Y-83779685D01*
X123915487Y-83779685D02*
X123844059Y-83708257D01*
X123844059Y-83708257D02*
X123701201Y-83636828D01*
X123701201Y-83636828D02*
X123558344Y-83636828D01*
X123201202Y-83636828D02*
X122844059Y-84636828D01*
X122486916Y-83636828D02*
X122844059Y-84636828D01*
X122844059Y-84636828D02*
X122986916Y-84993971D01*
X122986916Y-84993971D02*
X123058345Y-85065400D01*
X123058345Y-85065400D02*
X123201202Y-85136828D01*
X121272631Y-84565400D02*
X121415488Y-84636828D01*
X121415488Y-84636828D02*
X121701202Y-84636828D01*
X121701202Y-84636828D02*
X121844059Y-84565400D01*
X121844059Y-84565400D02*
X121915488Y-84493971D01*
X121915488Y-84493971D02*
X121986916Y-84351114D01*
X121986916Y-84351114D02*
X121986916Y-83922542D01*
X121986916Y-83922542D02*
X121915488Y-83779685D01*
X121915488Y-83779685D02*
X121844059Y-83708257D01*
X121844059Y-83708257D02*
X121701202Y-83636828D01*
X121701202Y-83636828D02*
X121415488Y-83636828D01*
X121415488Y-83636828D02*
X121272631Y-83708257D01*
X120629774Y-84636828D02*
X120629774Y-83136828D01*
X119986917Y-84636828D02*
X119986917Y-83851114D01*
X119986917Y-83851114D02*
X120058345Y-83708257D01*
X120058345Y-83708257D02*
X120201202Y-83636828D01*
X120201202Y-83636828D02*
X120415488Y-83636828D01*
X120415488Y-83636828D02*
X120558345Y-83708257D01*
X120558345Y-83708257D02*
X120629774Y-83779685D01*
X133303489Y-65864828D02*
X133303489Y-67079114D01*
X133303489Y-67079114D02*
X133232060Y-67221971D01*
X133232060Y-67221971D02*
X133160632Y-67293400D01*
X133160632Y-67293400D02*
X133017774Y-67364828D01*
X133017774Y-67364828D02*
X132732060Y-67364828D01*
X132732060Y-67364828D02*
X132589203Y-67293400D01*
X132589203Y-67293400D02*
X132517774Y-67221971D01*
X132517774Y-67221971D02*
X132446346Y-67079114D01*
X132446346Y-67079114D02*
X132446346Y-65864828D01*
X131803488Y-66936257D02*
X131089203Y-66936257D01*
X131946345Y-67364828D02*
X131446345Y-65864828D01*
X131446345Y-65864828D02*
X130946345Y-67364828D01*
X129589203Y-67364828D02*
X130089203Y-66650542D01*
X130446346Y-67364828D02*
X130446346Y-65864828D01*
X130446346Y-65864828D02*
X129874917Y-65864828D01*
X129874917Y-65864828D02*
X129732060Y-65936257D01*
X129732060Y-65936257D02*
X129660631Y-66007685D01*
X129660631Y-66007685D02*
X129589203Y-66150542D01*
X129589203Y-66150542D02*
X129589203Y-66364828D01*
X129589203Y-66364828D02*
X129660631Y-66507685D01*
X129660631Y-66507685D02*
X129732060Y-66579114D01*
X129732060Y-66579114D02*
X129874917Y-66650542D01*
X129874917Y-66650542D02*
X130446346Y-66650542D01*
X129160631Y-65864828D02*
X128303489Y-65864828D01*
X128732060Y-67364828D02*
X128732060Y-65864828D01*
X146741774Y-71778257D02*
X146884632Y-71706828D01*
X146884632Y-71706828D02*
X147098917Y-71706828D01*
X147098917Y-71706828D02*
X147313203Y-71778257D01*
X147313203Y-71778257D02*
X147456060Y-71921114D01*
X147456060Y-71921114D02*
X147527489Y-72063971D01*
X147527489Y-72063971D02*
X147598917Y-72349685D01*
X147598917Y-72349685D02*
X147598917Y-72563971D01*
X147598917Y-72563971D02*
X147527489Y-72849685D01*
X147527489Y-72849685D02*
X147456060Y-72992542D01*
X147456060Y-72992542D02*
X147313203Y-73135400D01*
X147313203Y-73135400D02*
X147098917Y-73206828D01*
X147098917Y-73206828D02*
X146956060Y-73206828D01*
X146956060Y-73206828D02*
X146741774Y-73135400D01*
X146741774Y-73135400D02*
X146670346Y-73063971D01*
X146670346Y-73063971D02*
X146670346Y-72563971D01*
X146670346Y-72563971D02*
X146956060Y-72563971D01*
X146027489Y-73206828D02*
X146027489Y-71706828D01*
X146027489Y-71706828D02*
X145456060Y-71706828D01*
X145456060Y-71706828D02*
X145313203Y-71778257D01*
X145313203Y-71778257D02*
X145241774Y-71849685D01*
X145241774Y-71849685D02*
X145170346Y-71992542D01*
X145170346Y-71992542D02*
X145170346Y-72206828D01*
X145170346Y-72206828D02*
X145241774Y-72349685D01*
X145241774Y-72349685D02*
X145313203Y-72421114D01*
X145313203Y-72421114D02*
X145456060Y-72492542D01*
X145456060Y-72492542D02*
X146027489Y-72492542D01*
X144527489Y-73206828D02*
X144527489Y-71706828D01*
X143527488Y-71706828D02*
X143241774Y-71706828D01*
X143241774Y-71706828D02*
X143098917Y-71778257D01*
X143098917Y-71778257D02*
X142956060Y-71921114D01*
X142956060Y-71921114D02*
X142884631Y-72206828D01*
X142884631Y-72206828D02*
X142884631Y-72706828D01*
X142884631Y-72706828D02*
X142956060Y-72992542D01*
X142956060Y-72992542D02*
X143098917Y-73135400D01*
X143098917Y-73135400D02*
X143241774Y-73206828D01*
X143241774Y-73206828D02*
X143527488Y-73206828D01*
X143527488Y-73206828D02*
X143670346Y-73135400D01*
X143670346Y-73135400D02*
X143813203Y-72992542D01*
X143813203Y-72992542D02*
X143884631Y-72706828D01*
X143884631Y-72706828D02*
X143884631Y-72206828D01*
X143884631Y-72206828D02*
X143813203Y-71921114D01*
X143813203Y-71921114D02*
X143670346Y-71778257D01*
X143670346Y-71778257D02*
X143527488Y-71706828D01*
D10*
X121616115Y-63753466D02*
X120854211Y-63753466D01*
X121235163Y-64134419D02*
X121235163Y-63372514D01*
X144571353Y-90312419D02*
X143952306Y-90312419D01*
X143952306Y-90312419D02*
X144285639Y-90693371D01*
X144285639Y-90693371D02*
X144142782Y-90693371D01*
X144142782Y-90693371D02*
X144047544Y-90740990D01*
X144047544Y-90740990D02*
X143999925Y-90788609D01*
X143999925Y-90788609D02*
X143952306Y-90883847D01*
X143952306Y-90883847D02*
X143952306Y-91121942D01*
X143952306Y-91121942D02*
X143999925Y-91217180D01*
X143999925Y-91217180D02*
X144047544Y-91264800D01*
X144047544Y-91264800D02*
X144142782Y-91312419D01*
X144142782Y-91312419D02*
X144428496Y-91312419D01*
X144428496Y-91312419D02*
X144523734Y-91264800D01*
X144523734Y-91264800D02*
X144571353Y-91217180D01*
X143571353Y-90407657D02*
X143523734Y-90360038D01*
X143523734Y-90360038D02*
X143428496Y-90312419D01*
X143428496Y-90312419D02*
X143190401Y-90312419D01*
X143190401Y-90312419D02*
X143095163Y-90360038D01*
X143095163Y-90360038D02*
X143047544Y-90407657D01*
X143047544Y-90407657D02*
X142999925Y-90502895D01*
X142999925Y-90502895D02*
X142999925Y-90598133D01*
X142999925Y-90598133D02*
X143047544Y-90740990D01*
X143047544Y-90740990D02*
X143618972Y-91312419D01*
X143618972Y-91312419D02*
X142999925Y-91312419D01*
%LPC*%
D17*
X118015000Y-92710000D03*
D18*
X120015000Y-92710000D03*
D19*
X113665000Y-57785000D03*
D20*
X116205000Y-57785000D03*
X118745000Y-57785000D03*
D17*
X126270000Y-92710000D03*
D18*
X128270000Y-92710000D03*
D19*
X113665000Y-62230000D03*
D20*
X116205000Y-62230000D03*
X118745000Y-62230000D03*
X121285000Y-62230000D03*
D21*
X136700968Y-61037855D03*
X144700968Y-61037855D03*
D19*
X113665000Y-66675000D03*
D20*
X116205000Y-66675000D03*
X118745000Y-66675000D03*
X121285000Y-66675000D03*
X123825000Y-66675000D03*
X126365000Y-66675000D03*
D22*
X138470000Y-109220000D03*
D23*
X140970000Y-109220000D03*
X143470000Y-109220000D03*
D24*
X139700000Y-93980000D03*
D25*
X113665000Y-136525000D03*
D26*
X116205000Y-136525000D03*
X118745000Y-136525000D03*
X121285000Y-136525000D03*
X123825000Y-136525000D03*
X126365000Y-136525000D03*
X128905000Y-136525000D03*
X131445000Y-136525000D03*
X131445000Y-123825000D03*
X128905000Y-123825000D03*
X126365000Y-123825000D03*
X123825000Y-123825000D03*
X121285000Y-123825000D03*
X118745000Y-123825000D03*
X116205000Y-123825000D03*
X113665000Y-123825000D03*
X131445000Y-126365000D03*
X131445000Y-128905000D03*
D19*
X146304000Y-93472000D03*
D20*
X146304000Y-90932000D03*
X146304000Y-88392000D03*
X146304000Y-85852000D03*
X146304000Y-83312000D03*
X146304000Y-80772000D03*
X146304000Y-78232000D03*
X146304000Y-75692000D03*
D25*
X113665000Y-112014000D03*
D26*
X116205000Y-112014000D03*
X118745000Y-112014000D03*
X121285000Y-112014000D03*
X123825000Y-112014000D03*
X126365000Y-112014000D03*
X128905000Y-112014000D03*
X131445000Y-112014000D03*
X131445000Y-99314000D03*
X128905000Y-99314000D03*
X126365000Y-99314000D03*
X123825000Y-99314000D03*
X121285000Y-99314000D03*
X118745000Y-99314000D03*
X116205000Y-99314000D03*
X113665000Y-99314000D03*
X131445000Y-101854000D03*
X131445000Y-104394000D03*
D22*
X118805000Y-117175000D03*
D23*
X121305000Y-117175000D03*
X123805000Y-117175000D03*
X126305000Y-117175000D03*
D22*
X118805000Y-141940000D03*
D23*
X121305000Y-141940000D03*
X123805000Y-141940000D03*
X126305000Y-141940000D03*
D27*
X142200000Y-140467500D03*
D28*
X137200000Y-140467500D03*
%LPD*%
M02*
